<?xml version="1.0" encoding="UTF-8"?>
<!DOCTYPE svg PUBLIC "-//W3C//DTD SVG 1.1//EN" "http://www.w3.org/Graphics/SVG/1.1/DTD/svg11.dtd">
<svg xmlns="http://www.w3.org/2000/svg" version="1.1" width="312px" height="161px" style="shape-rendering:geometricPrecision; text-rendering:geometricPrecision; image-rendering:optimizeQuality; fill-rule:evenodd; clip-rule:evenodd" xmlns:xlink="http://www.w3.org/1999/xlink">
<g><path style="opacity:1" fill="#47b0d8" d="M 64.5,-0.5 C 64.8333,-0.5 65.1667,-0.5 65.5,-0.5C 65.5,9.83333 65.5,20.1667 65.5,30.5C 75.1667,30.5 84.8333,30.5 94.5,30.5C 94.8315,21.4754 94.4982,12.4754 93.5,3.5C 92.2054,2.90174 90.8721,2.40174 89.5,2C 88.7476,1.32924 88.4142,0.495904 88.5,-0.5C 89.8333,-0.5 91.1667,-0.5 92.5,-0.5C 95.0494,1.55577 96.5494,4.22244 97,7.5C 97.8228,15.6775 97.6561,23.6775 96.5,31.5C 85.8333,31.5 75.1667,31.5 64.5,31.5C 64.5,20.8333 64.5,10.1667 64.5,-0.5 Z"/></g>
<g><path style="opacity:1" fill="#01aeeb" d="M 65.5,-0.5 C 73.1667,-0.5 80.8333,-0.5 88.5,-0.5C 88.4142,0.495904 88.7476,1.32924 89.5,2C 90.8721,2.40174 92.2054,2.90174 93.5,3.5C 94.4982,12.4754 94.8315,21.4754 94.5,30.5C 84.8333,30.5 75.1667,30.5 65.5,30.5C 65.5,20.1667 65.5,9.83333 65.5,-0.5 Z"/></g>
<g><path style="opacity:0.153" fill="#baf4ff" d="M 63.5,-0.5 C 63.8333,-0.5 64.1667,-0.5 64.5,-0.5C 64.5,10.1667 64.5,20.8333 64.5,31.5C 75.1667,31.5 85.8333,31.5 96.5,31.5C 85.6794,32.4946 74.6794,32.8279 63.5,32.5C 63.5,21.5 63.5,10.5 63.5,-0.5 Z"/></g>
<g><path style="opacity:0.337" fill="#c1c6e2" d="M 128.5,64.5 C 131.287,63.5233 134.287,63.19 137.5,63.5C 137.795,65.7354 137.461,67.7354 136.5,69.5C 136.5,67.8333 136.5,66.1667 136.5,64.5C 133.833,64.5 131.167,64.5 128.5,64.5 Z"/></g>
<g><path style="opacity:0.333" fill="#b2b7d9" d="M 213.5,64.5 C 217.311,63.3547 221.311,63.1881 225.5,64C 224.956,64.7172 224.289,65.2172 223.5,65.5C 220.375,64.5206 217.042,64.1872 213.5,64.5 Z"/></g>
<g><path style="opacity:0.169" fill="#bbc1dc" d="M 194.5,77.5 C 194.5,77.8333 194.5,78.1667 194.5,78.5C 192.564,74.2853 191.897,69.6186 192.5,64.5C 190.167,64.5 187.833,64.5 185.5,64.5C 185.5,74.8333 185.5,85.1667 185.5,95.5C 185.5,95.8333 185.5,96.1667 185.5,96.5C 184.505,85.6794 184.172,74.6794 184.5,63.5C 187.5,63.5 190.5,63.5 193.5,63.5C 193.181,68.3633 193.514,73.03 194.5,77.5 Z"/></g>
<g><path style="opacity:1" fill="#172465" d="M 301.5,64.5 C 301.833,64.5 302.167,64.5 302.5,64.5C 301.737,65.2679 300.737,65.7679 299.5,66C 302.613,65.9473 305.113,67.114 307,69.5C 308.237,73.0601 308.737,76.7267 308.5,80.5C 306.533,80.2606 304.699,80.5939 303,81.5C 302.833,81 302.667,80.5 302.5,80C 305.868,77.2625 306.201,74.2625 303.5,71C 302.207,70.51 300.873,70.3433 299.5,70.5C 293.021,69.5093 286.354,69.176 279.5,69.5C 279.5,72.5 279.5,75.5 279.5,78.5C 279.904,79.7564 280.571,80.9231 281.5,82C 280.944,83.0111 280.278,83.8444 279.5,84.5C 279.5,88.1667 279.5,91.8333 279.5,95.5C 277.167,95.5 274.833,95.5 272.5,95.5C 272.5,85.1667 272.5,74.8333 272.5,64.5C 282.167,64.5 291.833,64.5 301.5,64.5 Z M 299.5,70.5 C 303.419,73.0069 303.419,75.5069 299.5,78C 293.175,78.4995 286.842,78.6662 280.5,78.5C 280.5,75.8333 280.5,73.1667 280.5,70.5C 286.833,70.5 293.167,70.5 299.5,70.5 Z"/></g>
<g><path style="opacity:0.995" fill="#1c265e" d="M 128.5,64.5 C 131.167,64.5 133.833,64.5 136.5,64.5C 136.5,66.1667 136.5,67.8333 136.5,69.5C 133.833,69.5 131.167,69.5 128.5,69.5C 128.5,67.8333 128.5,66.1667 128.5,64.5 Z"/></g>
<g><path style="opacity:1" fill="#2e3571" d="M 176.5,66.5 C 176.5,67.5 176.5,68.5 176.5,69.5C 171.833,69.5 167.167,69.5 162.5,69.5C 158.779,69.9111 155.112,70.5778 151.5,71.5C 150.732,72.2625 150.232,73.2625 150,74.5C 149.667,74.1667 149.333,73.8333 149,73.5C 148.333,74.5 148.333,75.5 149,76.5C 155.064,76.2021 161.231,76.2021 167.5,76.5C 177.736,76.2177 181.903,80.8843 180,90.5C 175.011,95.7948 168.844,98.1281 161.5,97.5C 153.555,97.7408 146.555,95.4074 140.5,90.5C 141.833,88.5 143.5,86.8333 145.5,85.5C 153.069,89.983 161.069,91.1497 169.5,89C 172.167,87.3333 172.167,85.6667 169.5,84C 161.689,83.9693 154.022,82.9693 146.5,81C 141.445,77.1943 140.611,72.6943 144,67.5C 154.697,61.2036 165.53,60.8703 176.5,66.5 Z"/></g>
<g><path style="opacity:1" fill="#4b4d7f" d="M 176.5,66.5 C 177.995,66.4148 178.995,67.0815 179.5,68.5C 178.167,70.5 176.5,72.1667 174.5,73.5C 170.576,71.5326 166.576,70.1993 162.5,69.5C 167.167,69.5 171.833,69.5 176.5,69.5C 176.5,68.5 176.5,67.5 176.5,66.5 Z"/></g>
<g><path style="opacity:0.639" fill="#7d89a5" d="M 299.5,70.5 C 293.167,70.5 286.833,70.5 280.5,70.5C 280.5,73.1667 280.5,75.8333 280.5,78.5C 280.167,78.5 279.833,78.5 279.5,78.5C 279.5,75.5 279.5,72.5 279.5,69.5C 286.354,69.176 293.021,69.5093 299.5,70.5 Z"/></g>
<g><path style="opacity:0.711" fill="#677096" d="M 228.5,64.5 C 230.948,63.5269 233.615,63.1936 236.5,63.5C 236.5,70.8333 236.5,78.1667 236.5,85.5C 235.509,78.6866 235.175,71.6866 235.5,64.5C 233.167,64.5 230.833,64.5 228.5,64.5 Z"/></g>
<g><path style="opacity:0.49" fill="#9ca5c8" d="M 301.5,64.5 C 291.833,64.5 282.167,64.5 272.5,64.5C 272.5,74.8333 272.5,85.1667 272.5,95.5C 274.833,95.5 277.167,95.5 279.5,95.5C 279.5,91.8333 279.5,88.1667 279.5,84.5C 284.695,84.1795 289.695,84.5128 294.5,85.5C 289.833,85.5 285.167,85.5 280.5,85.5C 280.5,89.1667 280.5,92.8333 280.5,96.5C 277.5,96.5 274.5,96.5 271.5,96.5C 271.5,85.5 271.5,74.5 271.5,63.5C 281.681,63.1726 291.681,63.506 301.5,64.5 Z"/></g>
<g><path style="opacity:1" fill="#09aeea" d="M 95.5,160.5 C 93.1667,160.5 90.8333,160.5 88.5,160.5C 74.8938,156.557 66.8938,147.557 64.5,133.5C 64.5,120.833 64.5,108.167 64.5,95.5C 51.8333,95.5 39.1667,95.5 26.5,95.5C 12.8554,93.5252 4.18878,85.8585 0.5,72.5C 0.337876,70.4727 0.504543,68.4727 1,66.5C 2.87087,67.6678 4.37087,67.1678 5.5,65C 35.4981,64.5 65.4981,64.3334 95.5,64.5C 95.5,96.5 95.5,128.5 95.5,160.5 Z"/></g>
<g><path style="opacity:1" fill="#7478a6" d="M 151.5,71.5 C 151.5,72.5 151.5,73.5 151.5,74.5C 156.998,74.9525 162.331,75.6191 167.5,76.5C 161.231,76.2021 155.064,76.2021 149,76.5C 148.333,75.5 148.333,74.5 149,73.5C 149.333,73.8333 149.667,74.1667 150,74.5C 150.232,73.2625 150.732,72.2625 151.5,71.5 Z"/></g>
<g><path style="opacity:0.94" fill="#6bc6e2" d="M -0.5,63.5 C 31.8351,63.3334 64.1684,63.5 96.5,64C 97.4958,96.0933 97.8291,128.26 97.5,160.5C 96.8333,160.5 96.1667,160.5 95.5,160.5C 95.5,128.5 95.5,96.5 95.5,64.5C 65.4981,64.3334 35.4981,64.5 5.5,65C 4.37087,67.1678 2.87087,67.6678 1,66.5C 0.504543,68.4727 0.337876,70.4727 0.5,72.5C 0.166667,72.5 -0.166667,72.5 -0.5,72.5C -0.5,69.5 -0.5,66.5 -0.5,63.5 Z"/></g>
<g><path style="opacity:0.999" fill="#303671" d="M 213.5,64.5 C 217.042,64.1872 220.375,64.5206 223.5,65.5C 218.569,69.3132 213.569,73.1465 208.5,77C 214.37,82.7019 220.036,88.5353 225.5,94.5C 222.375,95.4794 219.042,95.8128 215.5,95.5C 210.535,91.0366 205.702,86.3699 201,81.5C 198.931,83.0854 196.764,84.4187 194.5,85.5C 192.833,81.1667 194.167,79.8333 198.5,81.5C 198.5,80.5 198.5,79.5 198.5,78.5C 197.167,78.5 195.833,78.5 194.5,78.5C 194.5,78.1667 194.5,77.8333 194.5,77.5C 200.66,72.9196 206.993,68.5862 213.5,64.5 Z"/></g>
<g><path style="opacity:0.748" fill="#8f95b3" d="M 136.5,71.5 C 137.493,79.6499 137.826,87.9832 137.5,96.5C 134.5,96.5 131.5,96.5 128.5,96.5C 128.5,87.8333 128.5,79.1667 128.5,70.5C 131.385,70.1936 134.052,70.5269 136.5,71.5 Z"/></g>
<g><path style="opacity:1" fill="#192769" d="M 136.5,71.5 C 136.5,79.5 136.5,87.5 136.5,95.5C 134.167,95.5 131.833,95.5 129.5,95.5C 129.5,87.5 129.5,79.5 129.5,71.5C 131.833,71.5 134.167,71.5 136.5,71.5 Z"/></g>
<g><path style="opacity:0.997" fill="#172465" d="M 194.5,78.5 C 195.833,78.5 197.167,78.5 198.5,78.5C 198.5,79.5 198.5,80.5 198.5,81.5C 194.167,79.8333 192.833,81.1667 194.5,85.5C 194.5,86.1667 194.167,86.5 193.5,86.5C 192.523,89.2869 192.19,92.2869 192.5,95.5C 190.167,95.5 187.833,95.5 185.5,95.5C 185.5,85.1667 185.5,74.8333 185.5,64.5C 187.833,64.5 190.167,64.5 192.5,64.5C 191.897,69.6186 192.564,74.2853 194.5,78.5 Z"/></g>
<g><path style="opacity:1" fill="#29316b" d="M 302.5,64.5 C 307.2,65.8661 310.2,68.8661 311.5,73.5C 311.5,74.5 311.5,75.5 311.5,76.5C 310.335,80.3404 308.002,83.3404 304.5,85.5C 306.506,88.8292 308.839,91.8292 311.5,94.5C 311.5,95.1667 311.5,95.8333 311.5,96.5C 308.102,96.8204 304.768,96.487 301.5,95.5C 299.157,92.1376 296.824,88.8043 294.5,85.5C 289.695,84.5128 284.695,84.1795 279.5,84.5C 280.278,83.8444 280.944,83.0111 281.5,82C 280.571,80.9231 279.904,79.7564 279.5,78.5C 279.833,78.5 280.167,78.5 280.5,78.5C 286.842,78.6662 293.175,78.4995 299.5,78C 303.419,75.5069 303.419,73.0069 299.5,70.5C 300.873,70.3433 302.207,70.51 303.5,71C 306.201,74.2625 305.868,77.2625 302.5,80C 302.667,80.5 302.833,81 303,81.5C 304.699,80.5939 306.533,80.2606 308.5,80.5C 308.737,76.7267 308.237,73.0601 307,69.5C 305.113,67.114 302.613,65.9473 299.5,66C 300.737,65.7679 301.737,65.2679 302.5,64.5 Z"/></g>
<g><path style="opacity:0.587" fill="#727a9d" d="M 193.5,86.5 C 193.5,89.8333 193.5,93.1667 193.5,96.5C 190.833,96.5 188.167,96.5 185.5,96.5C 185.5,96.1667 185.5,95.8333 185.5,95.5C 187.833,95.5 190.167,95.5 192.5,95.5C 192.19,92.2869 192.523,89.2869 193.5,86.5 Z"/></g>
<g><path style="opacity:1" fill="#303672" d="M 228.5,64.5 C 230.833,64.5 233.167,64.5 235.5,64.5C 235.175,71.6866 235.509,78.6866 236.5,85.5C 242.721,91.1007 249.721,91.934 257.5,88C 258.126,87.2496 258.626,86.4162 259,85.5C 259.5,78.1742 259.666,70.8409 259.5,63.5C 262.448,63.2229 265.281,63.5562 268,64.5C 273.945,90.8869 263.778,101.387 237.5,96C 234.751,94.8773 232.251,93.3773 230,91.5C 228.557,82.6079 228.057,73.6079 228.5,64.5 Z"/></g>
<g><path style="opacity:0.702" fill="#6e728b" d="M 225.5,94.5 C 226.043,94.56 226.376,94.8933 226.5,95.5C 222.685,96.8077 219.019,96.8077 215.5,95.5C 219.042,95.8128 222.375,95.4794 225.5,94.5 Z"/></g>
<g><path style="opacity:0.49" fill="#949ab5" d="M 157.5,98.5 C 160.5,98.5 163.5,98.5 166.5,98.5C 166.5,100.5 166.5,102.5 166.5,104.5C 163.5,104.5 160.5,104.5 157.5,104.5C 157.5,102.5 157.5,100.5 157.5,98.5 Z"/></g>
<g><path style="opacity:1" fill="#0f1a55" d="M 158.5,99.5 C 160.833,99.5 163.167,99.5 165.5,99.5C 165.5,100.833 165.5,102.167 165.5,103.5C 163.167,103.5 160.833,103.5 158.5,103.5C 158.5,102.167 158.5,100.833 158.5,99.5 Z"/></g>
<g><path style="opacity:0.173" fill="#dddeec" d="M 181.5,114.5 C 180.833,111.833 180.167,111.833 179.5,114.5C 178.596,113.791 178.263,112.791 178.5,111.5C 179.833,111.5 181.167,111.5 182.5,111.5C 182.737,112.791 182.404,113.791 181.5,114.5 Z"/></g>
<g><path style="opacity:1" fill="#17233e" d="M 181.5,114.5 C 180.833,114.5 180.167,114.5 179.5,114.5C 180.167,111.833 180.833,111.833 181.5,114.5 Z"/></g>
<g><path style="opacity:0.224" fill="#d2d3e4" d="M 214.5,112.5 C 213.167,112.5 212.5,113.167 212.5,114.5C 211.596,113.791 211.263,112.791 211.5,111.5C 212.791,111.263 213.791,111.596 214.5,112.5 Z"/></g>
<g><path style="opacity:0.969" fill="#4d4d66" d="M 214.5,112.5 C 215.043,112.56 215.376,112.893 215.5,113.5C 214.675,114.386 213.675,114.719 212.5,114.5C 212.5,113.167 213.167,112.5 214.5,112.5 Z"/></g>
<g><path style="opacity:0.345" fill="#a5a9c7" d="M 139.5,118.5 C 139.167,118.5 138.833,118.5 138.5,118.5C 137.486,117.235 135.986,116.569 134,116.5C 132.014,116.569 130.514,117.235 129.5,118.5C 128.596,117.791 128.263,116.791 128.5,115.5C 132.167,115.5 135.833,115.5 139.5,115.5C 139.5,116.5 139.5,117.5 139.5,118.5 Z"/></g>
<g><path style="opacity:0.294" fill="#95e3f7" d="M 26.5,95.5 C 39.1667,95.5 51.8333,95.5 64.5,95.5C 64.5,108.167 64.5,120.833 64.5,133.5C 63.5048,121.345 63.1714,109.011 63.5,96.5C 50.9887,96.8286 38.6554,96.4952 26.5,95.5 Z"/></g>
<g><path style="opacity:1" fill="#373768" d="M 186.5,116.5 C 187.504,117.683 188.338,119.016 189,120.5C 189.608,118.934 190.442,117.6 191.5,116.5C 192.5,116.5 193.5,116.5 194.5,116.5C 193.416,119.004 192.083,121.337 190.5,123.5C 190.028,125.531 189.028,127.198 187.5,128.5C 187.191,124.502 185.857,120.835 183.5,117.5C 184.209,116.596 185.209,116.263 186.5,116.5 Z"/></g>
<g><path style="opacity:0.62" fill="#9195af" d="M 289.5,117.5 C 288.292,116.766 286.959,116.433 285.5,116.5C 284.911,120.971 285.577,124.971 287.5,128.5C 286.791,129.404 285.791,129.737 284.5,129.5C 284.5,124.833 284.5,120.167 284.5,115.5C 286.781,115.077 288.448,115.744 289.5,117.5 Z"/></g>
<g><path style="opacity:0.196" fill="#bfc5e5" d="M 216.5,124.5 C 216.5,124.833 216.5,125.167 216.5,125.5C 215.833,126.5 215.167,127.5 214.5,128.5C 213.833,112.5 213.167,112.5 212.5,128.5C 211.515,124.366 211.182,120.032 211.5,115.5C 212.833,115.5 214.167,115.5 215.5,115.5C 215.19,118.713 215.523,121.713 216.5,124.5 Z"/></g>
<g><path style="opacity:1" fill="#242757" d="M 249.5,125.5 C 250.833,126.833 252.167,126.833 253.5,125.5C 254.166,122.642 254.833,119.642 255.5,116.5C 256.484,119.428 256.817,122.428 256.5,125.5C 255.758,128.138 253.925,129.471 251,129.5C 248.817,129.478 247.317,128.478 246.5,126.5C 246.18,123.102 246.513,119.768 247.5,116.5C 248.167,119.642 248.834,122.642 249.5,125.5 Z"/></g>
<g><path style="opacity:1" fill="#191a52" d="M 267.5,116.5 C 267.167,117.5 266.5,118.167 265.5,118.5C 264.432,117.566 263.099,117.232 261.5,117.5C 261.5,119.167 261.5,120.833 261.5,122.5C 263.099,122.232 264.432,122.566 265.5,123.5C 264.167,123.5 262.833,123.5 261.5,123.5C 261.5,125.167 261.5,126.833 261.5,128.5C 260.833,129.833 260.167,129.833 259.5,128.5C 259.5,124.5 259.5,120.5 259.5,116.5C 262.167,116.5 264.833,116.5 267.5,116.5 Z"/></g>
<g><path style="opacity:1" fill="#2f3261" d="M 138.5,118.5 C 137.5,118.5 136.5,118.5 135.5,118.5C 135.5,122.167 135.5,125.833 135.5,129.5C 134.5,129.5 133.5,129.5 132.5,129.5C 132.5,125.833 132.5,122.167 132.5,118.5C 131.5,118.5 130.5,118.5 129.5,118.5C 130.514,117.235 132.014,116.569 134,116.5C 135.986,116.569 137.486,117.235 138.5,118.5 Z"/></g>
<g><path style="opacity:0.724" fill="#70799d" d="M 143.5,124.5 C 143.098,121.523 142.098,118.857 140.5,116.5C 141.806,115.533 142.473,114.199 142.5,112.5C 143.5,112.5 144.5,112.5 145.5,112.5C 143.987,116.318 143.32,120.318 143.5,124.5 Z"/></g>
<g><path style="opacity:0.671" fill="#8f92b3" d="M 191.5,116.5 C 195.97,115.514 200.637,115.181 205.5,115.5C 205.5,116.5 205.5,117.5 205.5,118.5C 203.167,118.5 200.833,118.5 198.5,118.5C 200.292,117.691 202.292,117.191 204.5,117C 201.854,116.503 199.187,116.336 196.5,116.5C 196.5,120.5 196.5,124.5 196.5,128.5C 199.5,128.5 202.5,128.5 205.5,128.5C 202.375,129.479 199.042,129.813 195.5,129.5C 195.818,124.968 195.485,120.634 194.5,116.5C 193.5,116.5 192.5,116.5 191.5,116.5 Z"/></g>
<g><path style="opacity:1" fill="#484c79" d="M 267.5,116.5 C 269.687,118.282 270.02,120.448 268.5,123C 269.167,124.667 269.833,126.333 270.5,128C 269.725,129.23 268.725,129.563 267.5,129C 266.733,127.53 266.067,126.03 265.5,124.5C 265.5,124.167 265.5,123.833 265.5,123.5C 264.432,122.566 263.099,122.232 261.5,122.5C 261.5,120.833 261.5,119.167 261.5,117.5C 263.099,117.232 264.432,117.566 265.5,118.5C 266.5,118.167 267.167,117.5 267.5,116.5 Z M 265.5,118.5 C 266.494,120.854 265.494,121.854 262.5,121.5C 262.5,120.5 262.5,119.5 262.5,118.5C 263.5,118.5 264.5,118.5 265.5,118.5 Z"/></g>
<g><path style="opacity:1" fill="#3e4171" d="M 177.5,127.5 C 176.791,128.404 175.791,128.737 174.5,128.5C 173.196,127.013 172.03,125.346 171,123.5C 169.681,125.25 169.181,127.25 169.5,129.5C 168.5,129.5 167.5,129.5 166.5,129.5C 166.5,124.833 166.5,120.167 166.5,115.5C 167.5,115.5 168.5,115.5 169.5,115.5C 169.367,120.272 170.7,120.438 173.5,116C 174.944,115.219 176.277,115.386 177.5,116.5C 176.167,118.167 174.833,119.833 173.5,121.5C 175.252,123.246 176.585,125.246 177.5,127.5 Z"/></g>
<g><path style="opacity:0.424" fill="#a5a5c1" d="M 198.5,120.5 C 200.833,120.5 203.167,120.5 205.5,120.5C 205.5,121.5 205.5,122.5 205.5,123.5C 203.167,123.5 200.833,123.5 198.5,123.5C 200.292,122.691 202.292,122.191 204.5,122C 202.292,121.809 200.292,121.309 198.5,120.5 Z"/></g>
<g><path style="opacity:0.063" fill="#cdd8ec" d="M 223.5,119.5 C 224.5,119.5 225.5,119.5 226.5,119.5C 225.833,120.167 225.167,120.833 224.5,121.5C 223.209,121.737 222.209,121.404 221.5,120.5C 222.492,120.672 223.158,120.338 223.5,119.5 Z"/></g>
<g><path style="opacity:1" fill="#61638a" d="M 274.5,116.5 C 275.082,119.832 275.916,123.166 277,126.5C 279.277,123.301 280.11,119.635 279.5,115.5C 280.833,115.5 282.167,115.5 283.5,115.5C 283.979,119.911 283.312,124.078 281.5,128C 277.802,130.325 274.635,129.825 272,126.5C 271.501,122.848 271.335,119.182 271.5,115.5C 272.791,115.263 273.791,115.596 274.5,116.5 Z"/></g>
<g><path style="opacity:1" fill="#09194a" d="M 274.5,116.5 C 274.665,119.518 274.498,122.518 274,125.5C 272.936,124.056 272.436,122.389 272.5,120.5C 272.585,118.667 273.252,117.334 274.5,116.5 Z"/></g>
<g><path style="opacity:1" fill="#1b1c56" d="M 181.5,128.5 C 180.833,129.833 180.167,129.833 179.5,128.5C 180.167,112.5 180.833,112.5 181.5,128.5 Z"/></g>
<g><path style="opacity:1" fill="#1d1d4b" d="M 214.5,128.5 C 213.833,129.833 213.167,129.833 212.5,128.5C 213.167,112.5 213.833,112.5 214.5,128.5 Z"/></g>
<g><path style="opacity:1" fill="#4d4e7f" d="M 233.5,116.5 C 234.209,115.596 235.209,115.263 236.5,115.5C 236.367,120.272 237.7,120.438 240.5,116C 241.944,115.219 243.277,115.386 244.5,116.5C 243.167,118.167 241.833,119.833 240.5,121.5C 242.252,123.246 243.585,125.246 244.5,127.5C 243.791,128.404 242.791,128.737 241.5,128.5C 240.196,127.013 239.03,125.346 238,123.5C 236.681,125.25 236.181,127.25 236.5,129.5C 235.209,129.737 234.209,129.404 233.5,128.5C 234.794,126.952 235.461,124.952 235.5,122.5C 235.461,120.048 234.794,118.048 233.5,116.5 Z"/></g>
<g><path style="opacity:0.455" fill="#b1b7d4" d="M 249.5,125.5 C 248.834,122.642 248.167,119.642 247.5,116.5C 246.513,119.768 246.18,123.102 246.5,126.5C 245.518,123.038 245.185,119.371 245.5,115.5C 246.833,115.5 248.167,115.5 249.5,115.5C 249.5,118.833 249.5,122.167 249.5,125.5 Z"/></g>
<g><path style="opacity:0.455" fill="#a4add1" d="M 256.5,125.5 C 256.817,122.428 256.484,119.428 255.5,116.5C 254.833,119.642 254.166,122.642 253.5,125.5C 253.5,122.167 253.5,118.833 253.5,115.5C 254.833,115.5 256.167,115.5 257.5,115.5C 257.813,119.042 257.479,122.375 256.5,125.5 Z"/></g>
<g><path style="opacity:0.635" fill="#7d86a8" d="M 150.5,126.5 C 151.069,122.671 150.402,119.337 148.5,116.5C 147.194,115.533 146.527,114.199 146.5,112.5C 147.5,112.5 148.5,112.5 149.5,112.5C 150.451,115.215 151.117,118.049 151.5,121C 151.494,123.033 151.161,124.866 150.5,126.5 Z"/></g>
<g><path style="opacity:1" fill="#8589ae" d="M 160.5,118.5 C 161.1,119.9 162.1,120.9 163.5,121.5C 164.265,124.096 164.599,126.763 164.5,129.5C 163.209,129.737 162.209,129.404 161.5,128.5C 160.566,127.432 160.232,126.099 160.5,124.5C 159.167,124.5 157.833,124.5 156.5,124.5C 156.5,126.167 156.5,127.833 156.5,129.5C 155.209,129.737 154.209,129.404 153.5,128.5C 155.256,127.448 155.923,125.781 155.5,123.5C 157.288,123.785 158.955,123.452 160.5,122.5C 160.376,121.893 160.043,121.56 159.5,121.5C 160.11,120.609 160.443,119.609 160.5,118.5 Z"/></g>
<g><path style="opacity:0.992" fill="#111949" d="M 198.5,118.5 C 198.5,119.167 198.5,119.833 198.5,120.5C 200.292,121.309 202.292,121.809 204.5,122C 202.292,122.191 200.292,122.691 198.5,123.5C 198.5,123.833 198.5,124.167 198.5,124.5C 200.279,126.344 202.612,127.01 205.5,126.5C 205.5,127.167 205.5,127.833 205.5,128.5C 202.5,128.5 199.5,128.5 196.5,128.5C 196.5,124.5 196.5,120.5 196.5,116.5C 199.187,116.336 201.854,116.503 204.5,117C 202.292,117.191 200.292,117.691 198.5,118.5 Z"/></g>
<g><path style="opacity:0.278" fill="#c3c7dd" d="M 186.5,116.5 C 185.209,116.263 184.209,116.596 183.5,117.5C 182.833,121.167 182.167,124.833 181.5,128.5C 180.833,112.5 180.167,112.5 179.5,128.5C 177.716,129.72 176.05,129.72 174.5,128.5C 175.791,128.737 176.791,128.404 177.5,127.5C 178.483,123.702 178.817,119.702 178.5,115.5C 181.385,115.194 184.052,115.527 186.5,116.5 Z"/></g>
<g><path style="opacity:0.035" fill="#e2f7ff" d="M 218.5,122.5 C 219.167,122.5 219.5,122.833 219.5,123.5C 219.5,123.833 219.5,124.167 219.5,124.5C 218.5,124.5 217.5,124.5 216.5,124.5C 217.167,123.833 217.833,123.167 218.5,122.5 Z"/></g>
<g><path style="opacity:1" fill="#36376d" d="M 163.5,121.5 C 162.1,120.9 161.1,119.9 160.5,118.5C 159.167,118.5 157.833,118.5 156.5,118.5C 156.5,119.5 156.5,120.5 156.5,121.5C 157.5,121.5 158.5,121.5 159.5,121.5C 160.043,121.56 160.376,121.893 160.5,122.5C 158.955,123.452 157.288,123.785 155.5,123.5C 155.923,125.781 155.256,127.448 153.5,128.5C 153.5,124.167 153.5,119.833 153.5,115.5C 156.518,115.335 159.518,115.502 162.5,116C 164.553,117.678 164.887,119.511 163.5,121.5 Z M 160.5,118.5 C 160.443,119.609 160.11,120.609 159.5,121.5C 158.5,121.5 157.5,121.5 156.5,121.5C 156.5,120.5 156.5,119.5 156.5,118.5C 157.833,118.5 159.167,118.5 160.5,118.5 Z"/></g>
<g><path style="opacity:1" fill="#101757" d="M 233.5,116.5 C 234.794,118.048 235.461,120.048 235.5,122.5C 235.461,124.952 234.794,126.952 233.5,128.5C 233.5,124.5 233.5,120.5 233.5,116.5 Z"/></g>
<g><path style="opacity:0.443" fill="#999fbd" d="M 267.5,116.5 C 264.833,116.5 262.167,116.5 259.5,116.5C 259.5,120.5 259.5,124.5 259.5,128.5C 258.515,124.366 258.182,120.032 258.5,115.5C 261.713,115.19 264.713,115.523 267.5,116.5 Z"/></g>
<g><path style="opacity:1" fill="#434775" d="M 287.5,128.5 C 285.577,124.971 284.911,120.971 285.5,116.5C 286.959,116.433 288.292,116.766 289.5,117.5C 291.533,124.145 293.033,123.811 294,116.5C 295.356,115.62 296.856,115.286 298.5,115.5C 298.827,120.214 298.493,124.88 297.5,129.5C 295.869,127.941 295.036,125.941 295,123.5C 292.038,131.549 289.705,131.215 288,122.5C 287.775,124.791 287.608,126.791 287.5,128.5 Z"/></g>
<g><path style="opacity:1" fill="#070f41" d="M 161.5,128.5 C 161.238,127.022 161.571,125.689 162.5,124.5C 162.833,125.167 163.167,125.833 163.5,126.5C 163.253,127.713 162.586,128.38 161.5,128.5 Z"/></g>
<g><path style="opacity:0.102" fill="#dfe1fc" d="M 198.5,124.5 C 200.952,125.065 203.285,125.732 205.5,126.5C 202.612,127.01 200.279,126.344 198.5,124.5 Z"/></g>
<g><path style="opacity:0.098" fill="#dedff7" d="M 265.5,123.5 C 265.5,123.833 265.5,124.167 265.5,124.5C 264.5,124.5 263.5,124.5 262.5,124.5C 262.768,126.099 262.434,127.432 261.5,128.5C 261.5,126.833 261.5,125.167 261.5,123.5C 262.833,123.5 264.167,123.5 265.5,123.5 Z"/></g>
<g><path style="opacity:0.592" fill="#959ab4" d="M 190.5,123.5 C 190.5,125.5 190.5,127.5 190.5,129.5C 189.209,129.737 188.209,129.404 187.5,128.5C 189.028,127.198 190.028,125.531 190.5,123.5 Z"/></g>
<g><path style="opacity:1" fill="#444775" d="M 311.5,115.5 C 311.5,119.5 311.5,123.5 311.5,127.5C 307.996,130.101 304.496,130.101 301,127.5C 300.501,123.514 300.334,119.514 300.5,115.5C 302.103,115.312 303.437,115.812 304.5,117C 302.862,120.539 303.362,123.706 306,126.5C 308.277,123.301 309.11,119.635 308.5,115.5C 309.5,115.5 310.5,115.5 311.5,115.5 Z"/></g>
<g><path style="opacity:1" fill="#414170" d="M 140.5,116.5 C 142.098,118.857 143.098,121.523 143.5,124.5C 145.03,126.877 146.53,126.877 148,124.5C 148.497,121.854 148.664,119.187 148.5,116.5C 150.402,119.337 151.069,122.671 150.5,126.5C 148.199,129.857 145.199,130.357 141.5,128C 139.924,125.049 139.257,121.883 139.5,118.5C 140.338,118.158 140.672,117.492 140.5,116.5 Z"/></g>
<g><path style="opacity:1" fill="#3a3b6b" d="M 226.5,119.5 C 225.5,119.5 224.5,119.5 223.5,119.5C 222.399,118.402 221.066,118.235 219.5,119C 220.044,119.717 220.711,120.217 221.5,120.5C 222.209,121.404 223.209,121.737 224.5,121.5C 226.293,121.884 227.293,123.05 227.5,125C 226.292,127.346 224.959,129.513 223.5,131.5C 221.97,130.789 220.637,129.789 219.5,128.5C 217.5,128.5 216.5,127.5 216.5,125.5C 216.5,125.167 216.5,124.833 216.5,124.5C 217.5,124.5 218.5,124.5 219.5,124.5C 220.427,126.476 221.76,126.809 223.5,125.5C 222.68,123.889 221.346,123.222 219.5,123.5C 219.5,122.833 219.167,122.5 218.5,122.5C 215.866,120.46 215.866,118.293 218.5,116C 220.5,115.333 222.5,115.333 224.5,116C 225.973,116.71 226.64,117.876 226.5,119.5 Z"/></g>
<g><path style="opacity:0.043" fill="#ebe6fc" d="M 244.5,127.5 C 245.751,128.472 245.418,129.139 243.5,129.5C 242.584,129.457 241.917,129.124 241.5,128.5C 242.791,128.737 243.791,128.404 244.5,127.5 Z"/></g>
<g><path style="opacity:0.557" fill="#a4aabe" d="M 219.5,128.5 C 220.637,129.789 221.97,130.789 223.5,131.5C 222.054,132.613 220.387,132.78 218.5,132C 219.337,130.989 219.67,129.822 219.5,128.5 Z"/></g>
</svg>
