<?xml version="1.0" encoding="UTF-8"?>
<!DOCTYPE svg PUBLIC "-//W3C//DTD SVG 1.1//EN" "http://www.w3.org/Graphics/SVG/1.1/DTD/svg11.dtd">
<svg xmlns="http://www.w3.org/2000/svg" version="1.1" width="225px" height="224px" style="shape-rendering:geometricPrecision; text-rendering:geometricPrecision; image-rendering:optimizeQuality; fill-rule:evenodd; clip-rule:evenodd" xmlns:xlink="http://www.w3.org/1999/xlink">
<g><path style="opacity:1" fill="#2e76ab" d="M 154.5,9.5 C 147.884,9.78682 142.55,8.28682 138.5,5C 134.812,4.54991 131.146,4.71658 127.5,5.5C 127.5,4.5 127.5,3.5 127.5,2.5C 117.828,2.33353 108.161,2.5002 98.5,3C 95.3686,5.81586 91.8686,6.31586 88,4.5C 84.9606,5.8208 81.7939,6.65414 78.5,7C 78.0426,7.41395 77.7093,7.91395 77.5,8.5C 78.7701,9.28763 79.7701,10.2876 80.5,11.5C 79.1667,11.5 77.8333,11.5 76.5,11.5C 75.6845,9.69771 74.1845,8.69771 72,8.5C 70.2341,9.23348 68.4008,9.56681 66.5,9.5C 88.6637,0.100487 111.664,-2.06618 135.5,3C 142.245,4.303 148.579,6.46966 154.5,9.5 Z"/></g>
<g><path style="opacity:1" fill="#0d66ad" d="M 154.5,9.5 C 154.511,11.0174 155.177,12.1841 156.5,13C 163.073,14.8445 168.74,18.1779 173.5,23C 175.833,24 178.167,25 180.5,26C 181.05,28.1576 182.05,28.6576 183.5,27.5C 183.962,29.7567 184.962,31.7567 186.5,33.5C 189.487,37.2872 192.82,40.7872 196.5,44C 195,46.1667 193.833,46 193,43.5C 192.329,44.2524 191.496,44.5858 190.5,44.5C 189.5,43.5 188.5,42.5 187.5,41.5C 181.044,34.3721 173.71,28.3721 165.5,23.5C 161.079,20.4149 156.413,17.7482 151.5,15.5C 133.54,8.1194 114.873,5.6194 95.5,8C 90.2181,8.11489 85.2181,9.28156 80.5,11.5C 79.7701,10.2876 78.7701,9.28763 77.5,8.5C 77.7093,7.91395 78.0426,7.41395 78.5,7C 81.7939,6.65414 84.9606,5.8208 88,4.5C 91.8686,6.31586 95.3686,5.81586 98.5,3C 108.161,2.5002 117.828,2.33353 127.5,2.5C 127.5,3.5 127.5,4.5 127.5,5.5C 131.146,4.71658 134.812,4.54991 138.5,5C 142.55,8.28682 147.884,9.78682 154.5,9.5 Z"/></g>
<g><path style="opacity:1" fill="#1c1c4f" d="M 151.5,15.5 C 150.895,17.0257 149.729,18.0257 148,18.5C 147.667,18.1667 147.333,17.8333 147,17.5C 145.951,19.1066 144.451,19.7733 142.5,19.5C 141.391,19.5569 140.391,19.8902 139.5,20.5C 138.209,20.7373 137.209,20.404 136.5,19.5C 134.367,17.7141 131.867,16.3808 129,15.5C 126.634,16.9385 126.134,16.4385 127.5,14C 124.5,13.6667 121.5,13.3333 118.5,13C 117.542,11.8525 117.875,10.8525 119.5,10C 116.5,9.33333 113.5,9.33333 110.5,10C 112.059,10.9799 113.726,11.8133 115.5,12.5C 116.052,14.0026 116.052,15.6693 115.5,17.5C 112.972,16.9886 110.472,16.3219 108,15.5C 106.93,15.528 106.097,15.8614 105.5,16.5C 104.034,17.347 103.2,18.6803 103,20.5C 101.628,19.0899 100.795,17.4233 100.5,15.5C 100.274,10.7912 97.7738,8.79118 93,9.5C 86.7129,11.5227 80.2129,12.856 73.5,13.5C 74.5,12.8333 75.5,12.1667 76.5,11.5C 77.8333,11.5 79.1667,11.5 80.5,11.5C 85.2181,9.28156 90.2181,8.11489 95.5,8C 114.873,5.6194 133.54,8.1194 151.5,15.5 Z"/></g>
<g><path style="opacity:1" fill="#1a1f50" d="M 151.5,15.5 C 156.413,17.7482 161.079,20.4149 165.5,23.5C 165.69,27.3574 167.69,29.024 171.5,28.5C 170.987,30.2895 170.487,31.9562 170,33.5C 171.587,34.727 172.921,34.3937 174,32.5C 175.022,33.354 175.855,34.354 176.5,35.5C 174.61,36.4238 173.11,37.7571 172,39.5C 170.983,36.972 169.816,36.972 168.5,39.5C 167.459,37.0087 166.626,37.0087 166,39.5C 163.895,36.8934 163.062,33.8934 163.5,30.5C 161.263,29.551 158.929,28.8844 156.5,28.5C 155.223,25.4483 152.89,24.1149 149.5,24.5C 149.167,24.5 148.833,24.5 148.5,24.5C 148.918,23.7784 149.584,23.2784 150.5,23C 150.167,22.6667 149.833,22.3333 149.5,22C 146.639,22.0302 144.305,21.1969 142.5,19.5C 144.451,19.7733 145.951,19.1066 147,17.5C 147.333,17.8333 147.667,18.1667 148,18.5C 149.729,18.0257 150.895,17.0257 151.5,15.5 Z"/></g>
<g><path style="opacity:1" fill="#1d66a3" d="M 76.5,11.5 C 75.5,12.1667 74.5,12.8333 73.5,13.5C 63.9172,16.9566 55.2505,21.9566 47.5,28.5C 45.8784,29.1224 44.5451,30.1224 43.5,31.5C 39.8718,34.6125 36.0385,37.6125 32,40.5C 29.5643,45.7182 26.3976,50.3849 22.5,54.5C 21.3862,53.1147 20.3862,51.6147 19.5,50C 21.0368,48.8904 21.7035,47.3904 21.5,45.5C 32.914,29.0931 47.914,17.0931 66.5,9.5C 68.4008,9.56681 70.2341,9.23348 72,8.5C 74.1845,8.69771 75.6845,9.69771 76.5,11.5 Z"/></g>
<g><path style="opacity:1" fill="#1f2150" d="M 100.5,15.5 C 99.1001,14.9002 98.1001,13.9002 97.5,12.5C 96.5,12.8333 95.8333,13.5 95.5,14.5C 95.9175,15.2216 96.5842,15.7216 97.5,16C 96.5842,16.2784 95.9175,16.7784 95.5,17.5C 96.4137,20.728 96.7471,24.0613 96.5,27.5C 96.7373,28.791 96.404,29.791 95.5,30.5C 94.4479,28.744 92.7812,28.0773 90.5,28.5C 90.5,27.5 90.5,26.5 90.5,25.5C 91.1557,23.516 91.8224,21.516 92.5,19.5C 92.4573,18.5836 92.1239,17.9169 91.5,17.5C 88.5,17.5 85.5,17.5 82.5,17.5C 82.5,19.1667 82.5,20.8333 82.5,22.5C 85.5,22.1667 86.8333,23.5 86.5,26.5C 86.4431,27.609 86.1098,28.609 85.5,29.5C 84.596,30.209 84.2627,31.209 84.5,32.5C 82.1841,29.9054 79.8508,27.2387 77.5,24.5C 76.3112,23.5713 74.9778,23.238 73.5,23.5C 72.8525,25.4982 72.0192,27.4982 71,29.5C 70.5,29 70,28.5 69.5,28C 65.5138,27.5012 61.5138,27.3345 57.5,27.5C 56.842,30.1555 56.1754,32.8222 55.5,35.5C 55.1104,37.9818 56.1104,39.3152 58.5,39.5C 58.8515,42.0728 58.3515,44.4062 57,46.5C 56.5831,45.244 55.7498,44.5774 54.5,44.5C 53.7892,42.2012 52.7892,40.0346 51.5,38C 53.3438,35.439 53.8438,32.6057 53,29.5C 50.9555,28.228 49.1222,28.5614 47.5,30.5C 46.537,30.0302 46.537,29.3635 47.5,28.5C 55.2505,21.9566 63.9172,16.9566 73.5,13.5C 80.2129,12.856 86.7129,11.5227 93,9.5C 97.7738,8.79118 100.274,10.7912 100.5,15.5 Z M 97.5,12.5 C 97.5,13.8333 96.8333,14.5 95.5,14.5C 95.8333,13.5 96.5,12.8333 97.5,12.5 Z"/></g>
<g><path style="opacity:1" fill="#2f2f51" d="M 142.5,19.5 C 144.305,21.1969 146.639,22.0302 149.5,22C 149.833,22.3333 150.167,22.6667 150.5,23C 149.584,23.2784 148.918,23.7784 148.5,24.5C 146.83,24.2488 145.33,23.5822 144,22.5C 141.861,26.4409 140.028,30.4409 138.5,34.5C 137.861,33.9032 137.528,33.0698 137.5,32C 138.86,29.7298 139.527,27.2298 139.5,24.5C 137.336,24.7215 135.67,25.7215 134.5,27.5C 135.038,25.8828 135.371,24.2161 135.5,22.5C 137.483,22.8432 138.817,22.1765 139.5,20.5C 140.391,19.8902 141.391,19.5569 142.5,19.5 Z"/></g>
<g><path style="opacity:1" fill="#474760" d="M 91.5,17.5 C 88.9429,18.4852 86.2763,19.4852 83.5,20.5C 85.4244,20.567 87.4244,20.9003 89.5,21.5C 89.0428,23.5976 88.0428,25.2642 86.5,26.5C 86.8333,23.5 85.5,22.1667 82.5,22.5C 82.5,20.8333 82.5,19.1667 82.5,17.5C 85.5,17.5 88.5,17.5 91.5,17.5 Z"/></g>
<g><path style="opacity:1" fill="#477fa8" d="M 154.5,9.5 C 165.35,13.7498 175.016,19.7498 183.5,27.5C 182.05,28.6576 181.05,28.1576 180.5,26C 178.167,25 175.833,24 173.5,23C 168.74,18.1779 163.073,14.8445 156.5,13C 155.177,12.1841 154.511,11.0174 154.5,9.5 Z"/></g>
<g><path style="opacity:0.533" fill="#585960" d="M 75.5,25.5 C 76.9335,26.8333 78.2668,28.3333 79.5,30C 78.4366,31.1882 77.1033,31.6882 75.5,31.5C 75.5,29.5 75.5,27.5 75.5,25.5 Z"/></g>
<g><path style="opacity:0.878" fill="#595a6d" d="M 90.5,25.5 C 90.5,26.5 90.5,27.5 90.5,28.5C 92.7812,28.0773 94.4479,28.744 95.5,30.5C 95.1583,31.3382 94.4916,31.6716 93.5,31.5C 93.6107,30.8826 93.944,30.3826 94.5,30C 92.765,29.3486 91.0983,29.5153 89.5,30.5C 88.3664,28.5615 88.6997,26.8948 90.5,25.5 Z"/></g>
<g><path style="opacity:0.059" fill="#9397ad" d="M 85.5,29.5 C 85.2852,31.1788 85.9519,32.1788 87.5,32.5C 86.4863,33.6737 85.153,34.3404 83.5,34.5C 83.8333,33.8333 84.1667,33.1667 84.5,32.5C 84.2627,31.209 84.596,30.209 85.5,29.5 Z"/></g>
<g><path style="opacity:0.975" fill="#303457" d="M 149.5,24.5 C 152.89,24.1149 155.223,25.4483 156.5,28.5C 153.302,31.8949 151.469,35.8949 151,40.5C 152.385,39.4495 153.385,38.1161 154,36.5C 155.145,37.6364 156.312,38.6364 157.5,39.5C 156.167,39.5 154.833,39.5 153.5,39.5C 153.769,41.4286 153.269,43.0953 152,44.5C 151.29,43.0267 150.124,42.3601 148.5,42.5C 148.473,40.8007 147.806,39.4674 146.5,38.5C 147.525,38.1034 147.692,37.4368 147,36.5C 145.013,35.782 143.179,34.782 141.5,33.5C 143.035,29.9256 145.201,29.5923 148,32.5C 148.5,32 149,31.5 149.5,31C 147.153,30.2881 145.153,29.1214 143.5,27.5C 143.833,26.5 144.5,25.8333 145.5,25.5C 147.548,26.77 149.548,27.1033 151.5,26.5C 150.757,25.8182 150.091,25.1515 149.5,24.5 Z"/></g>
<g><path style="opacity:1" fill="#1a2755" d="M 47.5,28.5 C 46.537,29.3635 46.537,30.0302 47.5,30.5C 49.1222,28.5614 50.9555,28.228 53,29.5C 53.8438,32.6057 53.3438,35.439 51.5,38C 52.7892,40.0346 53.7892,42.2012 54.5,44.5C 51.6755,44.0807 49.5088,45.0807 48,47.5C 47.6924,46.6919 47.1924,46.0253 46.5,45.5C 45.3887,46.6113 44.0554,47.278 42.5,47.5C 39.91,47.3849 37.2433,47.0516 34.5,46.5C 34.0233,45.5224 33.3567,44.6891 32.5,44C 35.6134,41.0398 38.78,38.2065 42,35.5C 42.4101,34.0993 42.9101,32.766 43.5,31.5C 44.5451,30.1224 45.8784,29.1224 47.5,28.5 Z"/></g>
<g><path style="opacity:1" fill="#282b55" d="M 136.5,19.5 C 134.326,19.0798 132.326,19.0798 130.5,19.5C 131.737,20.2807 132.737,21.2807 133.5,22.5C 132.573,25.7131 131.573,28.8797 130.5,32C 131.448,32.4828 132.448,32.6495 133.5,32.5C 133.232,30.901 133.566,29.5676 134.5,28.5C 135.47,32.9315 133.803,35.2648 129.5,35.5C 129.021,31.0887 129.688,26.922 131.5,23C 130.376,22.7508 129.376,22.2508 128.5,21.5C 129.645,20.109 129.645,18.7757 128.5,17.5C 127.818,18.2427 127.151,18.9094 126.5,19.5C 126.631,18.6236 126.298,17.9569 125.5,17.5C 123.357,27.7877 121.357,27.4543 119.5,16.5C 118.5,16.5 117.5,16.5 116.5,16.5C 115.908,19.1272 115.575,21.7938 115.5,24.5C 114.539,26.2646 114.205,28.2646 114.5,30.5C 115.589,32.1171 117.256,32.9504 119.5,33C 116.291,34.4028 112.958,35.4028 109.5,36C 112.104,36.3903 114.438,37.2237 116.5,38.5C 111.5,38.5 106.5,38.5 101.5,38.5C 98.1501,38.335 94.8168,38.5017 91.5,39C 90.244,39.4169 89.5774,40.2502 89.5,41.5C 86.5738,42.6976 83.5738,43.6976 80.5,44.5C 78.8828,43.962 77.2161,43.6287 75.5,43.5C 75.0651,41.2967 75.0651,39.2967 75.5,37.5C 75.5,36.1667 75.5,34.8333 75.5,33.5C 78.4824,31.9225 81.1491,32.2558 83.5,34.5C 85.153,34.3404 86.4863,33.6737 87.5,32.5C 89.4352,31.8505 91.4352,31.5172 93.5,31.5C 94.4916,31.6716 95.1583,31.3382 95.5,30.5C 96.404,29.791 96.7373,28.791 96.5,27.5C 97.1577,28.3984 97.8243,29.3984 98.5,30.5C 98.8333,30 99.1667,29.5 99.5,29C 98.6058,25.2238 98.2725,21.3905 98.5,17.5C 97.5,17.5 96.5,17.5 95.5,17.5C 95.9175,16.7784 96.5842,16.2784 97.5,16C 96.5842,15.7216 95.9175,15.2216 95.5,14.5C 96.8333,14.5 97.5,13.8333 97.5,12.5C 98.1001,13.9002 99.1001,14.9002 100.5,15.5C 100.795,17.4233 101.628,19.0899 103,20.5C 103.2,18.6803 104.034,17.347 105.5,16.5C 106.097,15.8614 106.93,15.528 108,15.5C 110.472,16.3219 112.972,16.9886 115.5,17.5C 116.052,15.6693 116.052,14.0026 115.5,12.5C 113.726,11.8133 112.059,10.9799 110.5,10C 113.5,9.33333 116.5,9.33333 119.5,10C 117.875,10.8525 117.542,11.8525 118.5,13C 121.5,13.3333 124.5,13.6667 127.5,14C 126.134,16.4385 126.634,16.9385 129,15.5C 131.867,16.3808 134.367,17.7141 136.5,19.5 Z M 126.5,19.5 C 125.886,23.1352 125.552,26.8019 125.5,30.5C 123.801,30.4729 122.467,29.8062 121.5,28.5C 119.267,19.3323 117.601,19.6656 116.5,29.5C 115.548,27.9547 115.215,26.288 115.5,24.5C 115.575,21.7938 115.908,19.1272 116.5,16.5C 117.5,16.5 118.5,16.5 119.5,16.5C 121.357,27.4543 123.357,27.7877 125.5,17.5C 126.298,17.9569 126.631,18.6236 126.5,19.5 Z M 105.5,16.5 C 106.822,16.33 107.989,16.6634 109,17.5C 110.167,21 111.333,24.5 112.5,28C 112.167,28.5 111.833,29 111.5,29.5C 108.565,25.5199 105.565,25.5199 102.5,29.5C 102.167,29.1667 101.833,28.8333 101.5,28.5C 103.039,24.5504 104.372,20.5504 105.5,16.5 Z"/></g>
<g><path style="opacity:0.894" fill="#4f4c6b" d="M 121.5,28.5 C 119.412,29.9395 117.079,30.6061 114.5,30.5C 114.205,28.2646 114.539,26.2646 115.5,24.5C 115.215,26.288 115.548,27.9547 116.5,29.5C 117.601,19.6656 119.267,19.3323 121.5,28.5 Z"/></g>
<g><path style="opacity:0.894" fill="#3b3c4a" d="M 106.5,18.5 C 107.771,20.1086 108.771,21.9419 109.5,24C 108.207,24.49 106.873,24.6567 105.5,24.5C 105.833,22.5 106.167,20.5 106.5,18.5 Z"/></g>
<g><path style="opacity:0.82" fill="#3e3e54" d="M 156.5,31.5 C 160.647,32.6001 161.313,34.6001 158.5,37.5C 155.531,36.2351 154.865,34.2351 156.5,31.5 Z"/></g>
<g><path style="opacity:0.965" fill="#5b5b7f" d="M 101.5,38.5 C 97.6145,39.4901 93.6145,40.4901 89.5,41.5C 89.5774,40.2502 90.244,39.4169 91.5,39C 94.8168,38.5017 98.1501,38.335 101.5,38.5 Z"/></g>
<g><path style="opacity:1" fill="#1f2656" d="M 134.5,28.5 C 134.5,28.1667 134.5,27.8333 134.5,27.5C 135.67,25.7215 137.336,24.7215 139.5,24.5C 139.527,27.2298 138.86,29.7298 137.5,32C 137.528,33.0698 137.861,33.9032 138.5,34.5C 138.5,34.8333 138.5,35.1667 138.5,35.5C 137.957,35.56 137.624,35.8933 137.5,36.5C 138.325,37.3857 139.325,37.719 140.5,37.5C 140.5,38.8333 140.5,40.1667 140.5,41.5C 139.127,41.6567 137.793,41.49 136.5,41C 135.845,39.5134 134.845,38.3467 133.5,37.5C 132.808,38.0253 132.308,38.6919 132,39.5C 129.606,38.8641 127.106,38.8641 124.5,39.5C 121.763,39.5987 119.096,39.2653 116.5,38.5C 114.438,37.2237 112.104,36.3903 109.5,36C 112.958,35.4028 116.291,34.4028 119.5,33C 117.256,32.9504 115.589,32.1171 114.5,30.5C 117.079,30.6061 119.412,29.9395 121.5,28.5C 122.467,29.8062 123.801,30.4729 125.5,30.5C 125.552,26.8019 125.886,23.1352 126.5,19.5C 127.151,18.9094 127.818,18.2427 128.5,17.5C 129.645,18.7757 129.645,20.109 128.5,21.5C 129.376,22.2508 130.376,22.7508 131.5,23C 129.688,26.922 129.021,31.0887 129.5,35.5C 133.803,35.2648 135.47,32.9315 134.5,28.5 Z"/></g>
<g><path style="opacity:1" fill="#1f2b59" d="M 165.5,23.5 C 173.71,28.3721 181.044,34.3721 187.5,41.5C 187.631,42.3764 187.298,43.0431 186.5,43.5C 185.15,42.0499 183.484,41.3832 181.5,41.5C 182.138,43.46 182.138,45.2933 181.5,47C 179.149,46.8596 176.816,46.3596 174.5,45.5C 175.092,48.1272 175.425,50.7938 175.5,53.5C 173.425,53.6984 171.425,53.8651 169.5,54C 169.73,51.7144 171.063,49.8811 173.5,48.5C 170.473,47.1432 167.64,47.4765 165,49.5C 162.912,48.6919 160.912,47.6919 159,46.5C 156.443,47.6457 155.11,46.6457 155,43.5C 154.5,44.5 154,45.5 153.5,46.5C 154.811,47.2575 155.311,48.2575 155,49.5C 153.224,48.4639 151.391,48.4639 149.5,49.5C 141.443,45.2987 133.11,41.9653 124.5,39.5C 127.106,38.8641 129.606,38.8641 132,39.5C 132.308,38.6919 132.808,38.0253 133.5,37.5C 134.845,38.3467 135.845,39.5134 136.5,41C 137.793,41.49 139.127,41.6567 140.5,41.5C 140.5,40.1667 140.5,38.8333 140.5,37.5C 139.325,37.719 138.325,37.3857 137.5,36.5C 137.624,35.8933 137.957,35.56 138.5,35.5C 141.38,35.9402 144.046,36.9402 146.5,38.5C 147.806,39.4674 148.473,40.8007 148.5,42.5C 150.124,42.3601 151.29,43.0267 152,44.5C 153.269,43.0953 153.769,41.4286 153.5,39.5C 154.833,39.5 156.167,39.5 157.5,39.5C 161.475,38.9029 162.975,36.5695 162,32.5C 159.985,31.3034 158.151,29.9701 156.5,28.5C 158.929,28.8844 161.263,29.551 163.5,30.5C 163.062,33.8934 163.895,36.8934 166,39.5C 166.626,37.0087 167.459,37.0087 168.5,39.5C 169.816,36.972 170.983,36.972 172,39.5C 173.11,37.7571 174.61,36.4238 176.5,35.5C 175.855,34.354 175.022,33.354 174,32.5C 172.921,34.3937 171.587,34.727 170,33.5C 170.487,31.9562 170.987,30.2895 171.5,28.5C 167.69,29.024 165.69,27.3574 165.5,23.5 Z"/></g>
<g><path style="opacity:1" fill="#2f365d" d="M 73.5,23.5 C 72.8969,28.6186 73.5636,33.2853 75.5,37.5C 75.0651,39.2967 75.0651,41.2967 75.5,43.5C 77.2161,43.6287 78.8828,43.962 80.5,44.5C 74.8665,47.3187 69.5332,50.652 64.5,54.5C 64.5,53.8333 64.5,53.1667 64.5,52.5C 68.3784,51.106 68.0451,49.9394 63.5,49C 64.3366,47.9887 64.67,46.8221 64.5,45.5C 62.0274,45.9118 60.6941,44.9118 60.5,42.5C 64.405,44.3076 67.5717,42.9743 70,38.5C 70.3333,38.8333 70.6667,39.1667 71,39.5C 70.8744,36.9023 69.8744,34.569 68,32.5C 66.3732,33.5323 65.2066,34.8656 64.5,36.5C 65.8062,37.4674 66.4729,38.8007 66.5,40.5C 63.7897,41.407 61.623,40.407 60,37.5C 59.0733,34.4038 60.0733,32.0704 63,30.5C 64.1827,31.731 65.3493,31.731 66.5,30.5C 58.961,29.0421 56.2944,32.0421 58.5,39.5C 56.1104,39.3152 55.1104,37.9818 55.5,35.5C 56.1754,32.8222 56.842,30.1555 57.5,27.5C 61.5138,27.3345 65.5138,27.5012 69.5,28C 70,28.5 70.5,29 71,29.5C 72.0192,27.4982 72.8525,25.4982 73.5,23.5 Z"/></g>
<g><path style="opacity:0.816" fill="#707485" d="M 66.5,40.5 C 66.4729,38.8007 65.8062,37.4674 64.5,36.5C 68.7509,35.6636 69.4176,36.9969 66.5,40.5 Z"/></g>
<g><path style="opacity:1" fill="#83858e" d="M 115.5,45.5 C 114.508,45.3284 113.842,45.6618 113.5,46.5C 111.5,46.5 109.5,46.5 107.5,46.5C 107.833,48.5 108.167,50.5 108.5,52.5C 110.167,52.5 111.833,52.5 113.5,52.5C 106.953,55.2502 104.62,53.2502 106.5,46.5C 106.043,45.7025 105.376,45.3691 104.5,45.5C 108.167,41.5 111.833,41.5 115.5,45.5 Z"/></g>
<g><path style="opacity:1" fill="#1a2d5f" d="M 43.5,31.5 C 42.9101,32.766 42.4101,34.0993 42,35.5C 38.78,38.2065 35.6134,41.0398 32.5,44C 33.3567,44.6891 34.0233,45.5224 34.5,46.5C 37.2433,47.0516 39.91,47.3849 42.5,47.5C 44.0554,47.278 45.3887,46.6113 46.5,45.5C 47.1924,46.0253 47.6924,46.6919 48,47.5C 49.5088,45.0807 51.6755,44.0807 54.5,44.5C 55.7498,44.5774 56.5831,45.244 57,46.5C 58.3515,44.4062 58.8515,42.0728 58.5,39.5C 59.4013,40.2905 60.0679,41.2905 60.5,42.5C 60.6941,44.9118 62.0274,45.9118 64.5,45.5C 64.67,46.8221 64.3366,47.9887 63.5,49C 68.0451,49.9394 68.3784,51.106 64.5,52.5C 63.0695,52.4208 61.7362,52.7542 60.5,53.5C 59.2888,52.7261 59.2888,51.8928 60.5,51C 56.4058,53.0564 52.7392,56.0564 49.5,60C 50.4706,61.2036 51.4706,61.7036 52.5,61.5C 52.1345,62.9019 51.3012,63.9019 50,64.5C 48.902,63.6161 48.402,62.6161 48.5,61.5C 42.8558,62.2135 37.1892,62.8801 31.5,63.5C 29.9707,63.4712 28.804,62.8045 28,61.5C 27.2825,62.4506 26.4491,62.6172 25.5,62C 27.6598,58.9272 29.6598,55.7606 31.5,52.5C 31,52.1667 30.5,51.8333 30,51.5C 28.51,52.3169 27.01,53.1502 25.5,54C 25.9574,54.414 26.2907,54.914 26.5,55.5C 24.7033,57.9553 23.37,60.622 22.5,63.5C 21.8365,65.0419 21.1698,66.7086 20.5,68.5C 19.5793,66.2235 18.9126,63.8901 18.5,61.5C 19.4057,58.9264 20.739,56.593 22.5,54.5C 26.3976,50.3849 29.5643,45.7182 32,40.5C 36.0385,37.6125 39.8718,34.6125 43.5,31.5 Z"/></g>
<g><path style="opacity:1" fill="#1c2e5f" d="M 187.5,41.5 C 188.5,42.5 189.5,43.5 190.5,44.5C 193.186,47.477 195.519,50.8104 197.5,54.5C 197.702,56.9496 197.369,59.283 196.5,61.5C 194.857,61.4802 193.524,62.1468 192.5,63.5C 186.347,60.8553 180.18,60.8553 174,63.5C 171.853,62.4036 171.353,60.9036 172.5,59C 170.023,58.7605 167.856,59.5938 166,61.5C 164.67,60.4178 163.17,59.7512 161.5,59.5C 157.475,56.137 153.475,52.8036 149.5,49.5C 151.391,48.4639 153.224,48.4639 155,49.5C 155.311,48.2575 154.811,47.2575 153.5,46.5C 154,45.5 154.5,44.5 155,43.5C 155.11,46.6457 156.443,47.6457 159,46.5C 160.912,47.6919 162.912,48.6919 165,49.5C 167.64,47.4765 170.473,47.1432 173.5,48.5C 171.063,49.8811 169.73,51.7144 169.5,54C 171.425,53.8651 173.425,53.6984 175.5,53.5C 175.425,50.7938 175.092,48.1272 174.5,45.5C 176.816,46.3596 179.149,46.8596 181.5,47C 182.138,45.2933 182.138,43.46 181.5,41.5C 183.484,41.3832 185.15,42.0499 186.5,43.5C 187.298,43.0431 187.631,42.3764 187.5,41.5 Z"/></g>
<g><path style="opacity:1" fill="#243d68" d="M 64.5,52.5 C 64.5,53.1667 64.5,53.8333 64.5,54.5C 44.4767,72.2084 35.8101,94.5417 38.5,121.5C 38.5,122.833 38.5,124.167 38.5,125.5C 37.71,124.391 37.21,123.058 37,121.5C 36.5002,112.84 36.3336,104.173 36.5,95.5C 37.4816,92.0381 37.815,88.3714 37.5,84.5C 39.2762,80.6402 41.1095,76.9736 43,73.5C 45.2548,72.9582 47.0881,71.7915 48.5,70C 47.2889,68.8869 47.2889,67.7202 48.5,66.5C 48.3333,66.1667 48.1667,65.8333 48,65.5C 42.2952,68.3711 38.1285,72.7045 35.5,78.5C 35.1667,78.3333 34.8333,78.1667 34.5,78C 35.1667,76 35.8333,74 36.5,72C 35.0267,71.2904 34.3601,70.1238 34.5,68.5C 30.8797,68.655 27.5464,69.655 24.5,71.5C 23.8324,68.6944 23.1657,66.0277 22.5,63.5C 23.37,60.622 24.7033,57.9553 26.5,55.5C 26.2907,54.914 25.9574,54.414 25.5,54C 27.01,53.1502 28.51,52.3169 30,51.5C 30.5,51.8333 31,52.1667 31.5,52.5C 29.6598,55.7606 27.6598,58.9272 25.5,62C 26.4491,62.6172 27.2825,62.4506 28,61.5C 28.804,62.8045 29.9707,63.4712 31.5,63.5C 37.1892,62.8801 42.8558,62.2135 48.5,61.5C 48.402,62.6161 48.902,63.6161 50,64.5C 51.3012,63.9019 52.1345,62.9019 52.5,61.5C 51.4706,61.7036 50.4706,61.2036 49.5,60C 52.7392,56.0564 56.4058,53.0564 60.5,51C 59.2888,51.8928 59.2888,52.7261 60.5,53.5C 61.7362,52.7542 63.0695,52.4208 64.5,52.5 Z"/></g>
<g><path style="opacity:1" fill="#193563" d="M 196.5,61.5 C 194.615,63.8501 194.282,66.3501 195.5,69C 194.354,69.6449 193.354,70.4783 192.5,71.5C 189.7,70.2681 186.7,69.6015 183.5,69.5C 180.833,69.6667 178.167,69.8333 175.5,70C 174.874,70.7504 174.374,71.5838 174,72.5C 173.329,71.7476 172.496,71.4142 171.5,71.5C 167.82,67.817 164.486,63.817 161.5,59.5C 163.17,59.7512 164.67,60.4178 166,61.5C 167.856,59.5938 170.023,58.7605 172.5,59C 171.353,60.9036 171.853,62.4036 174,63.5C 180.18,60.8553 186.347,60.8553 192.5,63.5C 193.524,62.1468 194.857,61.4802 196.5,61.5 Z"/></g>
<g><path style="opacity:1" fill="#123567" d="M 18.5,61.5 C 18.9126,63.8901 19.5793,66.2235 20.5,68.5C 21.1698,66.7086 21.8365,65.0419 22.5,63.5C 23.1657,66.0277 23.8324,68.6944 24.5,71.5C 27.5464,69.655 30.8797,68.655 34.5,68.5C 34.3601,70.1238 35.0267,71.2904 36.5,72C 35.8333,74 35.1667,76 34.5,78C 34.8333,78.1667 35.1667,78.3333 35.5,78.5C 38.1285,72.7045 42.2952,68.3711 48,65.5C 48.1667,65.8333 48.3333,66.1667 48.5,66.5C 47.2889,67.7202 47.2889,68.8869 48.5,70C 47.0881,71.7915 45.2548,72.9582 43,73.5C 41.1095,76.9736 39.2762,80.6402 37.5,84.5C 30.3524,83.5084 23.0191,83.175 15.5,83.5C 15.719,82.325 15.3857,81.325 14.5,80.5C 14.3459,81.9091 14.1792,83.5758 14,85.5C 13.586,85.0426 13.086,84.7093 12.5,84.5C 12.0266,82.753 11.6932,81.0863 11.5,79.5C 13.0511,75.1421 14.3845,70.6421 15.5,66C 15.9586,64.0584 16.9586,62.5584 18.5,61.5 Z"/></g>
<g><path style="opacity:1" fill="#153565" d="M 197.5,54.5 C 199.014,56.364 200.347,58.364 201.5,60.5C 202.73,62.2972 203.396,64.2972 203.5,66.5C 203.511,68.0174 204.177,69.1841 205.5,70C 203.722,72.1354 203.055,74.6354 203.5,77.5C 199.077,77.6261 194.744,78.2928 190.5,79.5C 186.851,77.749 184.185,78.749 182.5,82.5C 181.833,81.5 181.167,80.5 180.5,79.5C 179.176,81.4465 177.51,81.4465 175.5,79.5C 174.153,76.8068 172.82,74.1401 171.5,71.5C 172.496,71.4142 173.329,71.7476 174,72.5C 174.374,71.5838 174.874,70.7504 175.5,70C 178.167,69.8333 180.833,69.6667 183.5,69.5C 186.7,69.6015 189.7,70.2681 192.5,71.5C 193.354,70.4783 194.354,69.6449 195.5,69C 194.282,66.3501 194.615,63.8501 196.5,61.5C 197.369,59.283 197.702,56.9496 197.5,54.5 Z"/></g>
<g><path style="opacity:1" fill="#2a5e8d" d="M 183.5,27.5 C 201,42.3525 212.333,61.0192 217.5,83.5C 216.5,83.5 215.5,83.5 214.5,83.5C 214.663,81.1432 214.497,78.8098 214,76.5C 211.882,73.8727 210.548,70.8727 210,67.5C 208.984,68.6341 208.317,68.3008 208,66.5C 206.958,59.0833 203.792,52.7499 198.5,47.5C 196.88,50.8806 197.713,53.5473 201,55.5C 201.494,57.1341 201.66,58.8008 201.5,60.5C 200.347,58.364 199.014,56.364 197.5,54.5C 195.519,50.8104 193.186,47.477 190.5,44.5C 191.496,44.5858 192.329,44.2524 193,43.5C 193.833,46 195,46.1667 196.5,44C 192.82,40.7872 189.487,37.2872 186.5,33.5C 184.962,31.7567 183.962,29.7567 183.5,27.5 Z"/></g>
<g><path style="opacity:1" fill="#0d3c6f" d="M 10.5,79.5 C 10.8333,79.5 11.1667,79.5 11.5,79.5C 11.6932,81.0863 12.0266,82.753 12.5,84.5C 13.086,84.7093 13.586,85.0426 14,85.5C 14.1792,83.5758 14.3459,81.9091 14.5,80.5C 15.3857,81.325 15.719,82.325 15.5,83.5C 23.0191,83.175 30.3524,83.5084 37.5,84.5C 37.815,88.3714 37.4816,92.0381 36.5,95.5C 35.5028,95.4701 34.8361,95.9701 34.5,97C 34.0216,99.2256 33.355,101.392 32.5,103.5C 30.7801,102.045 28.7801,101.212 26.5,101C 30.5006,97.7277 30.1673,95.8944 25.5,95.5C 25.5,97.1667 25.5,98.8333 25.5,100.5C 21.8455,100.058 18.1788,99.7244 14.5,99.5C 13.4268,96.2791 13.4268,93.1124 14.5,90C 12.5911,89.5521 11.4244,90.3855 11,92.5C 10.501,88.1794 10.3343,83.8461 10.5,79.5 Z"/></g>
<g><path style="opacity:1" fill="#103b6e" d="M 203.5,66.5 C 204.458,66.9528 205.292,67.6195 206,68.5C 208.035,75.5301 209.868,82.5301 211.5,89.5C 212.077,93.8691 211.243,97.8691 209,101.5C 208.667,100.5 208.333,99.5 208,98.5C 205.254,99.1432 202.421,99.4765 199.5,99.5C 196.3,99.3985 193.3,98.7319 190.5,97.5C 189.522,97.9767 188.689,98.6433 188,99.5C 187.692,98.6919 187.192,98.0253 186.5,97.5C 185.473,98.7914 184.473,98.7914 183.5,97.5C 182.755,94.4592 181.422,91.7925 179.5,89.5C 178.214,86.2441 176.88,82.9108 175.5,79.5C 177.51,81.4465 179.176,81.4465 180.5,79.5C 181.167,80.5 181.833,81.5 182.5,82.5C 184.185,78.749 186.851,77.749 190.5,79.5C 194.744,78.2928 199.077,77.6261 203.5,77.5C 203.055,74.6354 203.722,72.1354 205.5,70C 204.177,69.1841 203.511,68.0174 203.5,66.5 Z"/></g>
<g><path style="opacity:1" fill="#1a5688" d="M 21.5,45.5 C 21.7035,47.3904 21.0368,48.8904 19.5,50C 20.3862,51.6147 21.3862,53.1147 22.5,54.5C 20.739,56.593 19.4057,58.9264 18.5,61.5C 16.9586,62.5584 15.9586,64.0584 15.5,66C 14.3845,70.6421 13.0511,75.1421 11.5,79.5C 11.1667,79.5 10.8333,79.5 10.5,79.5C 9.52693,81.9479 9.1936,84.6146 9.5,87.5C 8.17793,87.67 7.01127,87.3366 6,86.5C 5.52907,88.2464 4.86241,89.913 4,91.5C 3.78997,89.9419 3.28997,88.6085 2.5,87.5C 5.38349,71.8131 11.7168,57.8131 21.5,45.5 Z"/></g>
<g><path style="opacity:1" fill="#064b82" d="M 217.5,83.5 C 218.488,96.1524 218.655,108.819 218,121.5C 218.145,124.923 216.645,126.923 213.5,127.5C 213.572,131.689 212.739,135.689 211,139.5C 206.904,146.558 203.404,153.891 200.5,161.5C 198.71,163.272 197.377,165.272 196.5,167.5C 196.178,165.278 196.845,163.444 198.5,162C 197.556,159.281 197.223,156.448 197.5,153.5C 193.467,152.305 190.467,149.805 188.5,146C 187.906,145.536 187.239,145.369 186.5,145.5C 186.5,144.167 187.167,143.5 188.5,143.5C 189.791,143.263 190.791,143.596 191.5,144.5C 194.028,147.583 197.362,148.749 201.5,148C 202.772,146.693 203.772,145.193 204.5,143.5C 205.863,144.879 206.863,144.713 207.5,143C 206.978,142.05 206.311,141.216 205.5,140.5C 206.628,139.738 207.795,139.071 209,138.5C 209.738,136.047 210.238,133.547 210.5,131C 209.632,125.393 207.966,120.227 205.5,115.5C 207.167,115.5 208.833,115.5 210.5,115.5C 211.195,112.433 212.195,109.433 213.5,106.5C 213.9,100.703 213.234,95.0359 211.5,89.5C 209.868,82.5301 208.035,75.5301 206,68.5C 205.292,67.6195 204.458,66.9528 203.5,66.5C 203.396,64.2972 202.73,62.2972 201.5,60.5C 201.66,58.8008 201.494,57.1341 201,55.5C 197.713,53.5473 196.88,50.8806 198.5,47.5C 203.792,52.7499 206.958,59.0833 208,66.5C 208.317,68.3008 208.984,68.6341 210,67.5C 210.548,70.8727 211.882,73.8727 214,76.5C 214.497,78.8098 214.663,81.1432 214.5,83.5C 215.5,83.5 216.5,83.5 217.5,83.5 Z"/></g>
<g><path style="opacity:1" fill="#104477" d="M 9.5,87.5 C 9.33391,93.1764 9.50058,98.8431 10,104.5C 10.3333,103.5 10.6667,102.5 11,101.5C 12.1022,102.949 13.2689,104.282 14.5,105.5C 13.7611,105.369 13.0944,105.536 12.5,106C 13.4123,108.251 14.4123,110.417 15.5,112.5C 13.2341,112.859 11.4007,112.192 10,110.5C 8.79492,111.071 7.62826,111.738 6.5,112.5C 7.44652,114.059 8.11319,115.726 8.5,117.5C 7.24555,119.334 6.57888,121.334 6.5,123.5C 6.88288,131.599 6.88288,139.599 6.5,147.5C 3.79377,141.195 1.96044,134.529 1,127.5C 0.333333,116.167 0.333333,104.833 1,93.5C 1.31525,91.4144 1.81525,89.4144 2.5,87.5C 3.28997,88.6085 3.78997,89.9419 4,91.5C 4.86241,89.913 5.52907,88.2464 6,86.5C 7.01127,87.3366 8.17793,87.67 9.5,87.5 Z"/></g>
<g><path style="opacity:1" fill="#084073" d="M 211.5,89.5 C 213.234,95.0359 213.9,100.703 213.5,106.5C 212.195,109.433 211.195,112.433 210.5,115.5C 208.833,115.5 207.167,115.5 205.5,115.5C 203.585,115.216 201.919,115.549 200.5,116.5C 199.833,116.833 199.167,117.167 198.5,117.5C 197.222,117.218 196.222,116.551 195.5,115.5C 195.167,115.5 194.833,115.5 194.5,115.5C 195.058,114.21 196.058,113.377 197.5,113C 201.311,113.083 204.645,112.25 207.5,110.5C 207.5,109.833 207.5,109.167 207.5,108.5C 202.025,107.511 196.358,107.178 190.5,107.5C 190.5,108.833 190.5,110.167 190.5,111.5C 189.566,110.432 189.232,109.099 189.5,107.5C 188.209,107.263 187.209,107.596 186.5,108.5C 185.402,109.601 185.235,110.934 186,112.5C 187,111.167 188,111.167 189,112.5C 189.495,114.473 189.662,116.473 189.5,118.5C 187.833,118.5 186.167,118.5 184.5,118.5C 183.911,111.515 183.578,104.515 183.5,97.5C 184.473,98.7914 185.473,98.7914 186.5,97.5C 187.192,98.0253 187.692,98.6919 188,99.5C 188.689,98.6433 189.522,97.9767 190.5,97.5C 193.3,98.7319 196.3,99.3985 199.5,99.5C 202.421,99.4765 205.254,99.1432 208,98.5C 208.333,99.5 208.667,100.5 209,101.5C 211.243,97.8691 212.077,93.8691 211.5,89.5 Z M 207.5,108.5 C 207.5,109.167 207.5,109.833 207.5,110.5C 202.26,111.449 196.927,111.782 191.5,111.5C 191.5,110.5 191.5,109.5 191.5,108.5C 196.833,108.5 202.167,108.5 207.5,108.5 Z M 186.5,108.5 C 188.337,108.639 188.67,109.306 187.5,110.5C 186.702,110.043 186.369,109.376 186.5,108.5 Z"/></g>
<g><path style="opacity:1" fill="#074276" d="M 10.5,79.5 C 10.3343,83.8461 10.501,88.1794 11,92.5C 11.4244,90.3855 12.5911,89.5521 14.5,90C 13.4268,93.1124 13.4268,96.2791 14.5,99.5C 18.1788,99.7244 21.8455,100.058 25.5,100.5C 25.5,98.8333 25.5,97.1667 25.5,95.5C 30.1673,95.8944 30.5006,97.7277 26.5,101C 28.7801,101.212 30.7801,102.045 32.5,103.5C 33.355,101.392 34.0216,99.2256 34.5,97C 34.8361,95.9701 35.5028,95.4701 36.5,95.5C 36.3336,104.173 36.5002,112.84 37,121.5C 37.21,123.058 37.71,124.391 38.5,125.5C 39.1901,129.49 39.3568,133.49 39,137.5C 36.8805,137.374 34.7138,137.041 32.5,136.5C 33.8333,134.5 35.5,132.833 37.5,131.5C 36.0944,129.974 34.9277,128.307 34,126.5C 33.6667,121.167 33.3333,115.833 33,110.5C 31.323,109.099 29.6563,107.765 28,106.5C 26.7147,106.95 25.548,107.617 24.5,108.5C 22.4902,106.829 20.1569,106.162 17.5,106.5C 17.6495,107.552 17.4828,108.552 17,109.5C 15.5187,108.529 14.6854,107.196 14.5,105.5C 13.2689,104.282 12.1022,102.949 11,101.5C 10.6667,102.5 10.3333,103.5 10,104.5C 9.50058,98.8431 9.33391,93.1764 9.5,87.5C 9.1936,84.6146 9.52693,81.9479 10.5,79.5 Z"/></g>
<g><path style="opacity:0.118" fill="#90aabc" d="M 207.5,108.5 C 202.167,108.5 196.833,108.5 191.5,108.5C 191.5,109.5 191.5,110.5 191.5,111.5C 191.167,111.5 190.833,111.5 190.5,111.5C 190.5,110.167 190.5,108.833 190.5,107.5C 196.358,107.178 202.025,107.511 207.5,108.5 Z"/></g>
<g><path style="opacity:1" fill="#41414b" d="M 104.5,45.5 C 105.376,45.3691 106.043,45.7025 106.5,46.5C 104.62,53.2502 106.953,55.2502 113.5,52.5C 113.5,50.5 113.5,48.5 113.5,46.5C 113.842,45.6618 114.508,45.3284 115.5,45.5C 116.167,54.1667 116.833,62.8333 117.5,71.5C 116.514,75.97 116.181,80.6367 116.5,85.5C 115.517,81.7016 115.183,77.7016 115.5,73.5C 115.5,67.1667 115.5,60.8333 115.5,54.5C 112.167,54.5 108.833,54.5 105.5,54.5C 104.394,77.0027 103.394,99.6694 102.5,122.5C 101.508,118.217 101.174,113.884 101.5,109.5C 101.333,93.8298 101.5,78.1631 102,62.5C 102.315,56.6156 103.149,50.9489 104.5,45.5 Z"/></g>
<g><path style="opacity:1" fill="#eff2e8" d="M 113.5,46.5 C 113.5,48.5 113.5,50.5 113.5,52.5C 111.833,52.5 110.167,52.5 108.5,52.5C 108.167,50.5 107.833,48.5 107.5,46.5C 109.5,46.5 111.5,46.5 113.5,46.5 Z"/></g>
<g><path style="opacity:0.961" fill="#3f617e" d="M 195.5,115.5 C 196.222,116.551 197.222,117.218 198.5,117.5C 197.68,119.812 196.847,122.146 196,124.5C 193.833,126 192.333,125.5 191.5,123C 192.731,120.316 194.064,117.816 195.5,115.5 Z"/></g>
<g><path style="opacity:1" fill="#8b8f94" d="M 115.5,45.5 C 116.895,49.5911 117.728,53.9244 118,58.5C 118.273,79.1807 118.94,99.8474 120,120.5C 122.648,122.82 124.981,125.486 127,128.5C 127.499,132.486 127.666,136.486 127.5,140.5C 127.167,140.5 126.833,140.5 126.5,140.5C 126.72,135.9 126.054,131.567 124.5,127.5C 122.833,127.5 121.167,127.5 119.5,127.5C 119.5,126.167 119.5,124.833 119.5,123.5C 113.5,123.5 107.5,123.5 101.5,123.5C 101.567,126.766 99.9008,128.266 96.5,128C 97.4743,132.436 97.4743,136.936 96.5,141.5C 99.5719,141.817 102.572,141.484 105.5,140.5C 104.494,139.604 104.494,138.938 105.5,138.5C 108.5,138.5 111.5,138.5 114.5,138.5C 115.262,139.628 115.929,140.795 116.5,142C 118.708,142.191 120.708,142.691 122.5,143.5C 114.16,143.666 105.827,143.5 97.5,143C 95.709,140.894 95.0423,138.394 95.5,135.5C 95.8064,132.615 95.4731,129.948 94.5,127.5C 96.5002,125.329 98.3335,122.996 100,120.5C 100.177,116.644 100.677,112.977 101.5,109.5C 101.174,113.884 101.508,118.217 102.5,122.5C 103.394,99.6694 104.394,77.0027 105.5,54.5C 106.795,60.8639 106.795,67.1973 105.5,73.5C 105.5,77.8333 105.5,82.1667 105.5,86.5C 105.5,98.1667 105.5,109.833 105.5,121.5C 109.167,121.5 112.833,121.5 116.5,121.5C 117.302,122.885 117.969,122.718 118.5,121C 117.522,104.535 117.188,88.0352 117.5,71.5C 116.833,62.8333 116.167,54.1667 115.5,45.5 Z"/></g>
<g><path style="opacity:1" fill="#f2f1da" d="M 114.5,73.5 C 114.833,73.5 115.167,73.5 115.5,73.5C 115.183,77.7016 115.517,81.7016 116.5,85.5C 116.5,97.5 116.5,109.5 116.5,121.5C 112.833,121.5 109.167,121.5 105.5,121.5C 105.5,109.833 105.5,98.1667 105.5,86.5C 108.5,86.5 111.5,86.5 114.5,86.5C 114.5,82.1667 114.5,77.8333 114.5,73.5 Z"/></g>
<g><path style="opacity:0.952" fill="#07070d" d="M 117.5,71.5 C 117.188,88.0352 117.522,104.535 118.5,121C 117.969,122.718 117.302,122.885 116.5,121.5C 116.5,109.5 116.5,97.5 116.5,85.5C 116.181,80.6367 116.514,75.97 117.5,71.5 Z"/></g>
<g><path style="opacity:1" fill="#c44f4d" d="M 105.5,73.5 C 108.5,73.5 111.5,73.5 114.5,73.5C 114.5,77.8333 114.5,82.1667 114.5,86.5C 111.5,86.5 108.5,86.5 105.5,86.5C 105.5,82.1667 105.5,77.8333 105.5,73.5 Z"/></g>
<g><path style="opacity:1" fill="#d82d32" d="M 106.5,74.5 C 108.833,74.5 111.167,74.5 113.5,74.5C 114.295,79.7087 112.295,81.7087 107.5,80.5C 106.534,78.604 106.201,76.604 106.5,74.5 Z"/></g>
<g><path style="opacity:1" fill="#c7d9d7" d="M 105.5,54.5 C 108.833,54.5 112.167,54.5 115.5,54.5C 115.5,60.8333 115.5,67.1667 115.5,73.5C 115.167,73.5 114.833,73.5 114.5,73.5C 111.5,73.5 108.5,73.5 105.5,73.5C 106.795,67.1973 106.795,60.8639 105.5,54.5 Z"/></g>
<g><path style="opacity:1" fill="#305980" d="M 179.5,89.5 C 181.422,91.7925 182.755,94.4592 183.5,97.5C 183.578,104.515 183.911,111.515 184.5,118.5C 186.167,118.5 187.833,118.5 189.5,118.5C 189.662,116.473 189.495,114.473 189,112.5C 188,111.167 187,111.167 186,112.5C 185.235,110.934 185.402,109.601 186.5,108.5C 187.209,107.596 188.209,107.263 189.5,107.5C 189.232,109.099 189.566,110.432 190.5,111.5C 190.833,111.5 191.167,111.5 191.5,111.5C 196.927,111.782 202.26,111.449 207.5,110.5C 204.645,112.25 201.311,113.083 197.5,113C 196.058,113.377 195.058,114.21 194.5,115.5C 190.686,118.152 189.519,121.819 191,126.5C 192.898,128.684 195.064,129.017 197.5,127.5C 196.77,129.045 195.437,129.878 193.5,130C 195.059,130.98 196.726,131.813 198.5,132.5C 198.058,133.739 197.391,134.739 196.5,135.5C 196.361,133.663 195.694,133.33 194.5,134.5C 193.82,136.889 192.986,139.222 192,141.5C 190.989,140.663 189.822,140.33 188.5,140.5C 188.955,137.797 189.622,135.13 190.5,132.5C 190.167,131.833 189.833,131.167 189.5,130.5C 188.262,134.05 186.928,137.55 185.5,141C 186.571,141.852 187.571,142.685 188.5,143.5C 187.167,143.5 186.5,144.167 186.5,145.5C 185.549,142.955 184.549,142.955 183.5,145.5C 184.457,147.918 185.791,150.084 187.5,152C 184.413,152.259 181.413,152.759 178.5,153.5C 178.5,152.5 178.5,151.5 178.5,150.5C 180.429,150.769 182.095,150.269 183.5,149C 181.381,146.782 181.048,144.282 182.5,141.5C 183.086,141.709 183.586,142.043 184,142.5C 184.994,137.882 185.494,133.215 185.5,128.5C 186.5,128.5 187.5,128.5 188.5,128.5C 188.5,127.167 188.5,125.833 188.5,124.5C 186.738,124.357 185.071,124.691 183.5,125.5C 182.135,128.687 181.301,132.02 181,135.5C 180.586,135.043 180.086,134.709 179.5,134.5C 178.85,136.184 177.85,137.517 176.5,138.5C 183.062,122.519 184.062,106.186 179.5,89.5 Z M 186.5,108.5 C 186.369,109.376 186.702,110.043 187.5,110.5C 188.67,109.306 188.337,108.639 186.5,108.5 Z"/></g>
<g><path style="opacity:1" fill="#27537e" d="M 14.5,105.5 C 14.6854,107.196 15.5187,108.529 17,109.5C 17.4828,108.552 17.6495,107.552 17.5,106.5C 20.1569,106.162 22.4902,106.829 24.5,108.5C 25.548,107.617 26.7147,106.95 28,106.5C 29.6563,107.765 31.323,109.099 33,110.5C 33.3333,115.833 33.6667,121.167 34,126.5C 34.9277,128.307 36.0944,129.974 37.5,131.5C 35.5,132.833 33.8333,134.5 32.5,136.5C 34.7138,137.041 36.8805,137.374 39,137.5C 39.3568,133.49 39.1901,129.49 38.5,125.5C 38.5,124.167 38.5,122.833 38.5,121.5C 40.0623,127.859 42.0623,134.192 44.5,140.5C 44.5,142.833 44.5,145.167 44.5,147.5C 48.0794,147.766 48.4127,149.099 45.5,151.5C 45.1667,151.833 44.8333,152.167 44.5,152.5C 43.5713,151.311 43.238,149.978 43.5,148.5C 42.5,148.5 41.5,148.5 40.5,148.5C 36.0195,153.069 33.3528,152.069 32.5,145.5C 33.5813,143.789 34.9146,142.289 36.5,141C 36.1667,140.5 35.8333,140 35.5,139.5C 31.9663,141.766 28.2996,143.766 24.5,145.5C 24.5,144.5 24.5,143.5 24.5,142.5C 23.5,142.5 22.5,142.5 21.5,142.5C 25.1405,139.032 28.9739,135.698 33,132.5C 33.4828,131.552 33.6495,130.552 33.5,129.5C 33.1788,127.952 32.1788,127.285 30.5,127.5C 25.8215,127.334 21.1548,127.501 16.5,128C 17.6174,129.892 19.2841,130.725 21.5,130.5C 21.3184,132.591 21.6518,134.591 22.5,136.5C 21.8118,137.855 20.8118,138.855 19.5,139.5C 18.7459,136.922 18.7459,134.256 19.5,131.5C 18.0222,131.762 16.6888,131.429 15.5,130.5C 14.7269,127.932 14.7269,125.599 15.5,123.5C 12.4993,122.17 10.166,122.836 8.5,125.5C 7.83333,124.833 7.16667,124.167 6.5,123.5C 6.57888,121.334 7.24555,119.334 8.5,117.5C 8.11319,115.726 7.44652,114.059 6.5,112.5C 7.62826,111.738 8.79492,111.071 10,110.5C 11.4007,112.192 13.2341,112.859 15.5,112.5C 14.4123,110.417 13.4123,108.251 12.5,106C 13.0944,105.536 13.7611,105.369 14.5,105.5 Z M 30.5,114.5 C 32.1208,117.367 31.4541,119.7 28.5,121.5C 28.1667,121 27.8333,120.5 27.5,120C 29.1632,118.505 30.1632,116.672 30.5,114.5 Z M 22.5,113.5 C 23.2216,113.918 23.7216,114.584 24,115.5C 24.2784,114.584 24.7784,113.918 25.5,113.5C 25.4519,116.313 24.7853,118.979 23.5,121.5C 19.0184,123.618 16.185,122.284 15,117.5C 14.0764,119.495 12.9097,119.828 11.5,118.5C 14.3126,117.554 15.646,115.554 15.5,112.5C 16.8149,111.524 18.1482,110.524 19.5,109.5C 19.8333,109.833 20.1667,110.167 20.5,110.5C 19.1117,112.109 18.1117,113.942 17.5,116C 18.022,118.97 19.522,119.804 22,118.5C 22.4935,116.866 22.6602,115.199 22.5,113.5 Z M 30.5,114.5 C 29.7326,113.828 29.0659,112.995 28.5,112C 27.5632,111.308 26.8966,111.475 26.5,112.5C 25.391,112.443 24.391,112.11 23.5,111.5C 25.9773,107.683 28.4773,107.683 31,111.5C 31.4696,112.577 31.3029,113.577 30.5,114.5 Z"/></g>
<g><path style="opacity:0.013" fill="#e5eef5" d="M 23.5,111.5 C 24.391,112.11 25.391,112.443 26.5,112.5C 26.5,113.167 26.1667,113.5 25.5,113.5C 24.7784,113.918 24.2784,114.584 24,115.5C 23.7216,114.584 23.2216,113.918 22.5,113.5C 22.3284,112.508 22.6618,111.842 23.5,111.5 Z"/></g>
<g><path style="opacity:0.106" fill="#b2cadb" d="M 30.5,127.5 C 32.1788,127.285 33.1788,127.952 33.5,129.5C 32.2905,129.068 31.2905,128.401 30.5,127.5 Z"/></g>
<g><path style="opacity:1" fill="#0e5087" d="M 19.5,139.5 C 19.9321,140.71 20.5987,141.71 21.5,142.5C 22.5,142.5 23.5,142.5 24.5,142.5C 24.5,143.5 24.5,144.5 24.5,145.5C 22.1481,146.543 21.9815,147.876 24,149.5C 28.3101,144.972 31.1434,145.805 32.5,152C 31.8307,153.847 30.4974,155.014 28.5,155.5C 27.6143,156.325 27.281,157.325 27.5,158.5C 25.9582,157.699 24.2915,157.366 22.5,157.5C 22.4208,158.93 22.7542,160.264 23.5,161.5C 23.1445,162.522 22.4778,163.189 21.5,163.5C 17.6246,156.913 13.7912,150.246 10,143.5C 9.4484,137.911 8.61507,132.411 7.5,127C 8.16667,126.667 8.83333,126.333 9.5,126C 9.27155,125.601 8.93822,125.435 8.5,125.5C 10.166,122.836 12.4993,122.17 15.5,123.5C 14.7269,125.599 14.7269,127.932 15.5,130.5C 16.6888,131.429 18.0222,131.762 19.5,131.5C 18.7459,134.256 18.7459,136.922 19.5,139.5 Z"/></g>
<g><path style="opacity:1" fill="#566f8b" d="M 23.5,130.5 C 31.9833,129.445 32.6499,131.112 25.5,135.5C 23.7826,134.332 23.1159,132.665 23.5,130.5 Z"/></g>
<g><path style="opacity:1" fill="#24527f" d="M 200.5,116.5 C 201.919,115.549 203.585,115.216 205.5,115.5C 207.966,120.227 209.632,125.393 210.5,131C 210.238,133.547 209.738,136.047 209,138.5C 207.795,139.071 206.628,139.738 205.5,140.5C 206.311,141.216 206.978,142.05 207.5,143C 206.863,144.713 205.863,144.879 204.5,143.5C 203.772,145.193 202.772,146.693 201.5,148C 197.362,148.749 194.028,147.583 191.5,144.5C 194.067,144.855 196.567,145.521 199,146.5C 201.351,143.639 202.851,140.305 203.5,136.5C 203.167,135.833 202.833,135.167 202.5,134.5C 201.019,137.407 199.685,140.407 198.5,143.5C 197.264,142.754 195.93,142.421 194.5,142.5C 194.767,140.035 195.434,137.701 196.5,135.5C 197.391,134.739 198.058,133.739 198.5,132.5C 196.726,131.813 195.059,130.98 193.5,130C 195.437,129.878 196.77,129.045 197.5,127.5C 198.229,124.374 199.729,121.707 202,119.5C 203.5,119.667 204.333,120.5 204.5,122C 204.175,124.403 203.008,126.236 201,127.5C 200.333,128.5 200.333,129.5 201,130.5C 206.637,127.328 207.804,122.995 204.5,117.5C 203.311,116.571 201.978,116.238 200.5,116.5 Z"/></g>
<g><path style="opacity:0.831" fill="#536d89" d="M 220.5,122.5 C 220.375,127.794 219.375,132.794 217.5,137.5C 217.241,132.127 218.241,127.127 220.5,122.5 Z"/></g>
<g><path style="opacity:1" fill="#e5e9db" d="M 124.5,127.5 C 124.98,132.822 125.313,138.155 125.5,143.5C 124.5,143.5 123.5,143.5 122.5,143.5C 120.708,142.691 118.708,142.191 116.5,142C 115.929,140.795 115.262,139.628 114.5,138.5C 111.5,138.5 108.5,138.5 105.5,138.5C 104.494,138.938 104.494,139.604 105.5,140.5C 102.572,141.484 99.5719,141.817 96.5,141.5C 97.4743,136.936 97.4743,132.436 96.5,128C 99.9008,128.266 101.567,126.766 101.5,123.5C 107.5,123.5 113.5,123.5 119.5,123.5C 119.5,124.833 119.5,126.167 119.5,127.5C 121.167,127.5 122.833,127.5 124.5,127.5 Z"/></g>
<g><path style="opacity:1" fill="#69929c" d="M 108.5,129.5 C 111.818,129.939 114.984,129.939 118,129.5C 119.376,129.684 120.209,130.351 120.5,131.5C 119.175,132.953 118.342,132.619 118,130.5C 117.667,131.5 117.333,132.5 117,133.5C 114.281,132.556 111.448,132.223 108.5,132.5C 108.5,131.5 108.5,130.5 108.5,129.5 Z"/></g>
<g><path style="opacity:0.714" fill="#343340" d="M 94.5,127.5 C 95.4731,129.948 95.8064,132.615 95.5,135.5C 94.6829,137.969 94.1829,140.635 94,143.5C 93.5026,140.854 93.3359,138.187 93.5,135.5C 93.2786,132.721 93.612,130.054 94.5,127.5 Z"/></g>
<g><path style="opacity:1" fill="#aec8c8" d="M 108.5,129.5 C 108.5,130.5 108.5,131.5 108.5,132.5C 111.448,132.223 114.281,132.556 117,133.5C 117.333,132.5 117.667,131.5 118,130.5C 118.342,132.619 119.175,132.953 120.5,131.5C 119.28,133.282 118.614,135.282 118.5,137.5C 112.833,137.5 107.167,137.5 101.5,137.5C 101.244,135.063 100.577,132.729 99.5,130.5C 102.428,129.516 105.428,129.183 108.5,129.5 Z"/></g>
<g><path style="opacity:0.958" fill="#18191d" d="M 124.5,127.5 C 126.054,131.567 126.72,135.9 126.5,140.5C 126.737,141.791 126.404,142.791 125.5,143.5C 125.313,138.155 124.98,132.822 124.5,127.5 Z"/></g>
<g><path style="opacity:1" fill="#6b7083" d="M 93.5,135.5 C 93.3359,138.187 93.5026,140.854 94,143.5C 94.1829,140.635 94.6829,137.969 95.5,135.5C 95.0423,138.394 95.709,140.894 97.5,143C 105.827,143.5 114.16,143.666 122.5,143.5C 123.5,143.5 124.5,143.5 125.5,143.5C 126.404,142.791 126.737,141.791 126.5,140.5C 126.833,140.5 127.167,140.5 127.5,140.5C 129.194,142.438 131.194,142.771 133.5,141.5C 133.875,135.619 136.875,133.452 142.5,135C 146.678,141.019 150.678,147.186 154.5,153.5C 153.5,153.5 152.5,153.5 151.5,153.5C 151.84,151.452 151.507,150.452 150.5,150.5C 149.833,150.5 149.167,150.5 148.5,150.5C 122.833,150.5 97.1667,150.5 71.5,150.5C 69.9519,150.821 69.2852,151.821 69.5,153.5C 68.209,153.263 67.209,153.596 66.5,154.5C 66.5,154.833 66.5,155.167 66.5,155.5C 66.5,156.5 66.5,157.5 66.5,158.5C 66.5,159.167 66.5,159.833 66.5,160.5C 64.0863,159.594 63.253,157.928 64,155.5C 68.3879,148.548 72.8879,141.714 77.5,135C 83.0514,133.538 86.2181,135.705 87,141.5C 88.4936,142.747 89.9936,142.747 91.5,141.5C 92.0505,139.343 92.7171,137.343 93.5,135.5 Z"/></g>
<g><path style="opacity:1" fill="#975b5e" d="M 78.5,144.5 C 79.5,144.5 80.5,144.5 81.5,144.5C 103.169,144.333 124.836,144.5 146.5,145C 147.38,146.356 147.714,147.856 147.5,149.5C 122.831,149.667 98.1644,149.5 73.5,149C 72.015,147.244 72.3484,146.077 74.5,145.5C 75.5676,144.566 76.901,144.232 78.5,144.5 Z"/></g>
<g><path style="opacity:1" fill="#d24a3f" d="M 74.5,145.5 C 98.1667,145.5 121.833,145.5 145.5,145.5C 145.5,146.5 145.5,147.5 145.5,148.5C 121.833,148.5 98.1667,148.5 74.5,148.5C 74.5,147.5 74.5,146.5 74.5,145.5 Z"/></g>
<g><path style="opacity:1" fill="#4a73a4" d="M 136.5,141.5 C 137.833,141.167 137.833,140.833 136.5,140.5C 137.038,138.883 137.371,137.216 137.5,135.5C 139.942,135.354 140.609,136.187 139.5,138C 141.004,139.337 142.004,141.004 142.5,143C 141.5,143.167 140.5,143.333 139.5,143.5C 137.97,143.36 136.97,142.693 136.5,141.5 Z"/></g>
<g><path style="opacity:1" fill="#5581ad" d="M 81.5,144.5 C 80.5,144.5 79.5,144.5 78.5,144.5C 75.5711,139.389 77.2377,137.056 83.5,137.5C 83.8151,140.211 83.1484,142.544 81.5,144.5 Z"/></g>
<g><path style="opacity:1" fill="#0d5087" d="M 178.5,153.5 C 178.5,153.833 178.5,154.167 178.5,154.5C 177.533,155.806 176.199,156.473 174.5,156.5C 174.768,154.901 174.434,153.568 173.5,152.5C 171.108,151.258 171.275,149.925 174,148.5C 174.74,147.251 174.573,146.251 173.5,145.5C 174.227,143.046 175.227,140.713 176.5,138.5C 177.85,137.517 178.85,136.184 179.5,134.5C 180.086,134.709 180.586,135.043 181,135.5C 181.301,132.02 182.135,128.687 183.5,125.5C 185.071,124.691 186.738,124.357 188.5,124.5C 188.5,125.833 188.5,127.167 188.5,128.5C 187.5,128.5 186.5,128.5 185.5,128.5C 185.494,133.215 184.994,137.882 184,142.5C 183.586,142.043 183.086,141.709 182.5,141.5C 181.048,144.282 181.381,146.782 183.5,149C 182.095,150.269 180.429,150.769 178.5,150.5C 178.5,151.5 178.5,152.5 178.5,153.5 Z"/></g>
<g><path style="opacity:0.686" fill="#87a7bb" d="M 49.5,149.5 C 50.8776,150.545 51.8776,151.878 52.5,153.5C 51.8826,153.389 51.3826,153.056 51,152.5C 50.082,154.632 48.7487,155.299 47,154.5C 47.2133,152.6 48.0466,150.933 49.5,149.5 Z"/></g>
<g><path style="opacity:1" fill="#7494c4" d="M 71.5,150.5 C 83.9822,151.833 96.8155,152.499 110,152.5C 123.185,152.499 136.018,151.833 148.5,150.5C 149.167,150.5 149.833,150.5 150.5,150.5C 150.5,151.5 150.5,152.5 150.5,153.5C 123.5,153.5 96.5,153.5 69.5,153.5C 69.2852,151.821 69.9519,150.821 71.5,150.5 Z"/></g>
<g><path style="opacity:1" fill="#3a72ab" d="M 71.5,150.5 C 97.1667,150.5 122.833,150.5 148.5,150.5C 136.018,151.833 123.185,152.499 110,152.5C 96.8155,152.499 83.9822,151.833 71.5,150.5 Z"/></g>
<g><path style="opacity:1" fill="#163467" d="M 6.5,123.5 C 7.16667,124.167 7.83333,124.833 8.5,125.5C 8.93822,125.435 9.27155,125.601 9.5,126C 8.83333,126.333 8.16667,126.667 7.5,127C 8.61507,132.411 9.4484,137.911 10,143.5C 13.7912,150.246 17.6246,156.913 21.5,163.5C 22.6298,165.315 23.2964,167.315 23.5,169.5C 22.7354,169.923 21.9021,170.257 21,170.5C 19.6693,169.004 18.1693,167.671 16.5,166.5C 17.1314,164.522 17.1314,162.355 16.5,160C 14.8659,159.506 13.1992,159.34 11.5,159.5C 9.2839,155.734 7.61723,151.734 6.5,147.5C 6.88288,139.599 6.88288,131.599 6.5,123.5 Z"/></g>
<g><path style="opacity:1" fill="#b76060" d="M 66.5,155.5 C 66.5,155.167 66.5,154.833 66.5,154.5C 94.8333,154.5 123.167,154.5 151.5,154.5C 151.5,154.833 151.5,155.167 151.5,155.5C 123.48,154.842 95.8132,155.508 68.5,157.5C 67.8333,156.833 67.1667,156.167 66.5,155.5 Z"/></g>
<g><path style="opacity:0.043" fill="#c5f2fa" d="M 171.5,154.5 C 173.048,154.821 173.715,155.821 173.5,157.5C 171.952,157.179 171.285,156.179 171.5,154.5 Z"/></g>
<g><path style="opacity:1" fill="#d08a82" d="M 151.5,154.5 C 153.652,155.077 153.985,156.244 152.5,158C 123.835,158.5 95.1686,158.667 66.5,158.5C 66.5,157.5 66.5,156.5 66.5,155.5C 67.1667,156.167 67.8333,156.833 68.5,157.5C 96.5202,158.158 124.187,157.492 151.5,155.5C 151.5,155.167 151.5,154.833 151.5,154.5 Z"/></g>
<g><path style="opacity:1" fill="#da4841" d="M 151.5,155.5 C 124.187,157.492 96.5202,158.158 68.5,157.5C 95.8132,155.508 123.48,154.842 151.5,155.5 Z"/></g>
<g><path style="opacity:0.688" fill="#4d363b" d="M 154.5,153.5 C 156.828,155.663 156.828,157.83 154.5,160C 125.169,160.5 95.8352,160.667 66.5,160.5C 66.5,159.833 66.5,159.167 66.5,158.5C 95.1686,158.667 123.835,158.5 152.5,158C 153.985,156.244 153.652,155.077 151.5,154.5C 123.167,154.5 94.8333,154.5 66.5,154.5C 67.209,153.596 68.209,153.263 69.5,153.5C 96.5,153.5 123.5,153.5 150.5,153.5C 150.5,152.5 150.5,151.5 150.5,150.5C 151.507,150.452 151.84,151.452 151.5,153.5C 152.5,153.5 153.5,153.5 154.5,153.5 Z"/></g>
<g><path style="opacity:1" fill="#22416d" d="M 217.5,83.5 C 221.262,96.168 222.262,109.168 220.5,122.5C 218.241,127.127 217.241,132.127 217.5,137.5C 214.98,149.197 210.314,159.863 203.5,169.5C 203.261,167.533 203.594,165.699 204.5,164C 203.529,162.519 202.196,161.685 200.5,161.5C 203.404,153.891 206.904,146.558 211,139.5C 212.739,135.689 213.572,131.689 213.5,127.5C 216.645,126.923 218.145,124.923 218,121.5C 218.655,108.819 218.488,96.1524 217.5,83.5 Z"/></g>
<g><path style="opacity:1" fill="#2b6191" d="M 44.5,140.5 C 46.3904,143.272 48.057,146.272 49.5,149.5C 48.0466,150.933 47.2133,152.6 47,154.5C 48.7487,155.299 50.082,154.632 51,152.5C 51.3826,153.056 51.8826,153.389 52.5,153.5C 56.1396,157.806 60.1396,161.806 64.5,165.5C 65.8288,168.8 64.4955,170.467 60.5,170.5C 58.3344,170.57 58.0011,169.904 59.5,168.5C 56.6281,167.217 53.7947,167.217 51,168.5C 50.51,167.207 50.3433,165.873 50.5,164.5C 50.1541,162.637 49.1541,161.804 47.5,162C 44.1667,165.333 40.8333,168.667 37.5,172C 38.2438,173.039 39.2438,173.539 40.5,173.5C 39.828,174.267 38.9947,174.934 38,175.5C 37.0691,173.541 36.2357,171.541 35.5,169.5C 36.376,168.749 37.376,168.249 38.5,168C 36.5347,167.18 34.5347,166.68 32.5,166.5C 31.6091,165.739 30.9424,164.739 30.5,163.5C 34.6596,160.269 34.1596,159.269 29,160.5C 27.9701,160.164 27.4701,159.497 27.5,158.5C 31.8956,156.641 36.2289,154.474 40.5,152C 41.6843,150.855 41.6843,149.688 40.5,148.5C 41.5,148.5 42.5,148.5 43.5,148.5C 43.238,149.978 43.5713,151.311 44.5,152.5C 44.8333,152.167 45.1667,151.833 45.5,151.5C 48.4127,149.099 48.0794,147.766 44.5,147.5C 44.5,145.167 44.5,142.833 44.5,140.5 Z M 32.5,166.5 C 32.3505,165.448 32.5172,164.448 33,163.5C 36.2576,161.12 39.4242,158.62 42.5,156C 43.7248,155.437 44.7248,155.77 45.5,157C 41.5506,160.796 37.2173,163.963 32.5,166.5 Z"/></g>
<g><path style="opacity:1" fill="#3e6e95" d="M 173.5,152.5 C 174.434,153.568 174.768,154.901 174.5,156.5C 176.199,156.473 177.533,155.806 178.5,154.5C 182.5,155.167 186.5,155.833 190.5,156.5C 187.09,156.457 183.757,156.957 180.5,158C 183.108,161.616 186.108,164.783 189.5,167.5C 189.392,168.442 189.059,169.275 188.5,170C 186.064,169.947 183.731,170.113 181.5,170.5C 182.738,173.166 182.738,175.832 181.5,178.5C 179.408,180.605 177.075,182.272 174.5,183.5C 177.37,180.937 179.37,177.77 180.5,174C 179.442,169.791 177.109,166.625 173.5,164.5C 176.431,164.09 177.097,162.756 175.5,160.5C 173.952,160.179 173.285,159.179 173.5,157.5C 173.715,155.821 173.048,154.821 171.5,154.5C 172.167,153.833 172.833,153.167 173.5,152.5 Z M 175.5,160.5 C 175.369,159.624 175.702,158.957 176.5,158.5C 180.142,160.975 183.642,163.642 187,166.5C 187.749,167.635 187.583,168.635 186.5,169.5C 182.619,166.731 178.952,163.731 175.5,160.5 Z"/></g>
<g><path style="opacity:1" fill="#286497" d="M 173.5,145.5 C 174.573,146.251 174.74,147.251 174,148.5C 171.275,149.925 171.108,151.258 173.5,152.5C 172.833,153.167 172.167,153.833 171.5,154.5C 171.285,156.179 171.952,157.179 173.5,157.5C 173.285,159.179 173.952,160.179 175.5,160.5C 177.097,162.756 176.431,164.09 173.5,164.5C 169.863,165.986 166.53,167.986 163.5,170.5C 161.5,172.167 159.166,173.334 156.5,174C 155.748,174.671 155.414,175.504 155.5,176.5C 154.064,177.429 152.731,178.595 151.5,180C 153.804,184.783 156.47,189.283 159.5,193.5C 160.622,192.37 161.956,191.703 163.5,191.5C 162.833,192.5 162.167,193.5 161.5,194.5C 158.247,196.612 154.58,197.945 150.5,198.5C 151.531,197.751 152.698,197.085 154,196.5C 154.667,195.833 154.667,195.167 154,194.5C 151.763,195.056 149.763,196.056 148,197.5C 145.884,193.661 144.05,189.661 142.5,185.5C 141.675,184.614 140.675,184.281 139.5,184.5C 140.455,182.29 141.955,181.957 144,183.5C 145.09,186.939 146.256,190.273 147.5,193.5C 150.4,193.72 153.067,193.054 155.5,191.5C 153.262,189.742 152.262,187.408 152.5,184.5C 150.897,184.688 149.563,184.188 148.5,183C 148.953,179.773 149.953,176.773 151.5,174C 150.975,173.308 150.308,172.808 149.5,172.5C 147.929,173.309 146.262,173.643 144.5,173.5C 156.122,166.212 165.789,156.878 173.5,145.5 Z"/></g>
<g><path style="opacity:1" fill="#192a5d" d="M 200.5,161.5 C 202.196,161.685 203.529,162.519 204.5,164C 203.594,165.699 203.261,167.533 203.5,169.5C 203.5,170.167 203.167,170.5 202.5,170.5C 202.565,170.062 202.399,169.728 202,169.5C 200.22,170.594 198.386,171.594 196.5,172.5C 197.645,173.891 197.645,175.224 196.5,176.5C 194.312,177.444 192.979,179.111 192.5,181.5C 191.675,182.386 190.675,182.719 189.5,182.5C 189.657,183.873 189.49,185.207 189,186.5C 187.667,186.5 186.333,186.5 185,186.5C 184.508,187.549 184.674,188.549 185.5,189.5C 183.593,190.37 181.76,191.37 180,192.5C 175.289,190.659 174.455,191.659 177.5,195.5C 176.065,197.401 174.398,197.734 172.5,196.5C 171.548,198.045 171.215,199.712 171.5,201.5C 168.09,201.616 166.756,199.95 167.5,196.5C 167.5,196.167 167.5,195.833 167.5,195.5C 179.149,188.184 188.816,178.85 196.5,167.5C 197.377,165.272 198.71,163.272 200.5,161.5 Z"/></g>
<g><path style="opacity:1" fill="#364165" d="M 11.5,159.5 C 13.1992,159.34 14.8659,159.506 16.5,160C 17.1314,162.355 17.1314,164.522 16.5,166.5C 18.1693,167.671 19.6693,169.004 21,170.5C 21.9021,170.257 22.7354,169.923 23.5,169.5C 21.818,172.29 22.318,174.623 25,176.5C 25.49,177.793 25.6567,179.127 25.5,180.5C 19.596,174.369 14.9293,167.369 11.5,159.5 Z"/></g>
<g><path style="opacity:1" fill="#42739b" d="M 50.5,164.5 C 50.3433,165.873 50.51,167.207 51,168.5C 53.7947,167.217 56.6281,167.217 59.5,168.5C 58.0011,169.904 58.3344,170.57 60.5,170.5C 64.4955,170.467 65.8288,168.8 64.5,165.5C 68.6964,168.759 73.0297,171.759 77.5,174.5C 72.7167,173.529 68.05,172.195 63.5,170.5C 64.8333,172.833 66.1667,175.167 67.5,177.5C 64.7105,175.359 61.7105,173.693 58.5,172.5C 58.6495,173.552 58.4828,174.552 58,175.5C 55.8118,178.567 53.6452,181.567 51.5,184.5C 52.0522,182.669 52.0522,181.003 51.5,179.5C 49.6675,180.248 48.0009,181.248 46.5,182.5C 45.8933,182.376 45.56,182.043 45.5,181.5C 49.6215,178.209 53.2882,174.376 56.5,170C 56.1501,168.743 55.4835,168.409 54.5,169C 53.0237,171.643 51.0237,173.81 48.5,175.5C 48.1667,175 47.8333,174.5 47.5,174C 48.2899,170.644 49.2899,167.477 50.5,164.5 Z"/></g>
<g><path style="opacity:1" fill="#346799" d="M 169.5,167.5 C 175.086,167.92 177.586,170.92 177,176.5C 176.221,177.728 175.221,178.728 174,179.5C 171.291,177.127 168.791,174.46 166.5,171.5C 167.524,170.148 168.524,168.815 169.5,167.5 Z"/></g>
<g><path style="opacity:1" fill="#185f9b" d="M 186.5,145.5 C 187.239,145.369 187.906,145.536 188.5,146C 190.467,149.805 193.467,152.305 197.5,153.5C 197.223,156.448 197.556,159.281 198.5,162C 196.845,163.444 196.178,165.278 196.5,167.5C 188.816,178.85 179.149,188.184 167.5,195.5C 167.585,194.005 166.919,193.005 165.5,192.5C 164.378,193.63 163.044,194.297 161.5,194.5C 162.167,193.5 162.833,192.5 163.5,191.5C 165.123,190.221 166.79,188.887 168.5,187.5C 168,187.167 167.5,186.833 167,186.5C 164.589,187.987 162.089,188.821 159.5,189C 158.371,185.58 159.704,183.413 163.5,182.5C 166.215,180.203 165.548,178.87 161.5,178.5C 162.116,174.294 163.782,173.627 166.5,176.5C 168.968,179.158 171.635,181.491 174.5,183.5C 177.075,182.272 179.408,180.605 181.5,178.5C 182.738,175.832 182.738,173.166 181.5,170.5C 183.731,170.113 186.064,169.947 188.5,170C 189.059,169.275 189.392,168.442 189.5,167.5C 186.108,164.783 183.108,161.616 180.5,158C 183.757,156.957 187.09,156.457 190.5,156.5C 191.721,157.028 192.887,157.695 194,158.5C 194.692,157.975 195.192,157.308 195.5,156.5C 190.85,154.208 187.85,150.542 186.5,145.5 Z"/></g>
<g><path style="opacity:1" fill="#075e9f" d="M 77.5,174.5 C 77.4142,175.496 77.7476,176.329 78.5,177C 81.5945,177.714 84.5945,178.714 87.5,180C 85.6618,182.303 83.3285,182.969 80.5,182C 81.7112,181.107 81.7112,180.274 80.5,179.5C 75.841,180.89 71.5077,180.223 67.5,177.5C 66.1667,175.167 64.8333,172.833 63.5,170.5C 68.05,172.195 72.7167,173.529 77.5,174.5 Z"/></g>
<g><path style="opacity:1" fill="#47769b" d="M 163.5,170.5 C 164.5,172.5 165.5,174.5 166.5,176.5C 163.782,173.627 162.116,174.294 161.5,178.5C 165.548,178.87 166.215,180.203 163.5,182.5C 163.53,181.503 163.03,180.836 162,180.5C 160.333,181.5 158.667,182.5 157,183.5C 155.231,182.629 154.564,181.296 155,179.5C 157.25,178.292 159.417,176.959 161.5,175.5C 159.383,174.531 157.383,174.864 155.5,176.5C 155.414,175.504 155.748,174.671 156.5,174C 159.166,173.334 161.5,172.167 163.5,170.5 Z"/></g>
<g><path style="opacity:1" fill="#0761a5" d="M 139.5,184.5 C 139.5,184.833 139.5,185.167 139.5,185.5C 133.691,185.313 128.025,185.98 122.5,187.5C 116.922,187.988 111.589,187.155 106.5,185C 118.903,183.768 130.903,180.935 142.5,176.5C 143.425,175.643 144.092,174.643 144.5,173.5C 146.262,173.643 147.929,173.309 149.5,172.5C 150.308,172.808 150.975,173.308 151.5,174C 149.953,176.773 148.953,179.773 148.5,183C 149.563,184.188 150.897,184.688 152.5,184.5C 152.262,187.408 153.262,189.742 155.5,191.5C 153.067,193.054 150.4,193.72 147.5,193.5C 146.256,190.273 145.09,186.939 144,183.5C 141.955,181.957 140.455,182.29 139.5,184.5 Z"/></g>
<g><path style="opacity:1" fill="#0a5d9d" d="M 27.5,158.5 C 27.4701,159.497 27.9701,160.164 29,160.5C 34.1596,159.269 34.6596,160.269 30.5,163.5C 30.9424,164.739 31.6091,165.739 32.5,166.5C 34.5347,166.68 36.5347,167.18 38.5,168C 37.376,168.249 36.376,168.749 35.5,169.5C 36.2357,171.541 37.0691,173.541 38,175.5C 38.9947,174.934 39.828,174.267 40.5,173.5C 41.4959,173.586 42.3292,173.252 43,172.5C 43.1667,173.167 43.3333,173.833 43.5,174.5C 42.9738,177.486 42.1405,179.486 41,180.5C 43.1793,183.101 46.0127,184.601 49.5,185C 50.2524,185.671 50.5858,186.504 50.5,187.5C 49.7515,188.531 49.0848,189.698 48.5,191C 50.2072,191.195 51.8739,191.195 53.5,191C 52.3774,192.044 51.0441,192.71 49.5,193C 50.056,193.383 50.3893,193.883 50.5,194.5C 41.2572,188.425 33.4238,180.759 27,171.5C 26.1841,170.177 25.0174,169.511 23.5,169.5C 23.2964,167.315 22.6298,165.315 21.5,163.5C 22.4778,163.189 23.1445,162.522 23.5,161.5C 22.7542,160.264 22.4208,158.93 22.5,157.5C 24.2915,157.366 25.9582,157.699 27.5,158.5 Z"/></g>
<g><path style="opacity:1" fill="#2568a1" d="M 144.5,173.5 C 144.092,174.643 143.425,175.643 142.5,176.5C 130.903,180.935 118.903,183.768 106.5,185C 111.589,187.155 116.922,187.988 122.5,187.5C 118.5,188.167 114.5,188.833 110.5,189.5C 109.51,195.31 109.177,201.31 109.5,207.5C 108.51,201.355 108.177,195.022 108.5,188.5C 105.545,189.159 102.545,189.492 99.5,189.5C 99.5,191.833 99.5,194.167 99.5,196.5C 97.8333,196.5 96.1667,196.5 94.5,196.5C 94.33,197.822 94.6634,198.989 95.5,200C 92.6022,199.445 91.2689,200.945 91.5,204.5C 91.5,205.167 91.1667,205.5 90.5,205.5C 90.5,203.167 90.5,200.833 90.5,198.5C 92.4483,195.536 94.4483,192.536 96.5,189.5C 95.5,188.167 94.5,188.167 93.5,189.5C 92.3333,191.167 91.1667,192.833 90,194.5C 88.5544,192.059 87.7211,189.392 87.5,186.5C 87.5,184.833 87.5,183.167 87.5,181.5C 96.4641,182.549 105.464,182.549 114.5,181.5C 124.992,180.669 134.992,178.003 144.5,173.5 Z"/></g>
<g><path style="opacity:1" fill="#1f2655" d="M 23.5,169.5 C 25.0174,169.511 26.1841,170.177 27,171.5C 33.4238,180.759 41.2572,188.425 50.5,194.5C 59.4445,200.806 69.1111,205.806 79.5,209.5C 80.0065,210.859 81.0065,211.859 82.5,212.5C 80.6565,212.755 78.6565,212.922 76.5,213C 82.5434,215.739 88.5434,216.572 94.5,215.5C 95.4287,216.689 95.762,218.022 95.5,219.5C 66.7838,215.704 43.4505,202.704 25.5,180.5C 25.6567,179.127 25.49,177.793 25,176.5C 22.318,174.623 21.818,172.29 23.5,169.5 Z"/></g>
<g><path style="opacity:1" fill="#3671a3" d="M 45.5,181.5 C 45.56,182.043 45.8933,182.376 46.5,182.5C 48.0009,181.248 49.6675,180.248 51.5,179.5C 52.0522,181.003 52.0522,182.669 51.5,184.5C 53.8989,188.703 57.5655,190.87 62.5,191C 64.7119,189.299 65.3786,187.299 64.5,185C 67.3953,183.071 68.3953,180.571 67.5,177.5C 71.5077,180.223 75.841,180.89 80.5,179.5C 81.7112,180.274 81.7112,181.107 80.5,182C 83.3285,182.969 85.6618,182.303 87.5,180C 84.5945,178.714 81.5945,177.714 78.5,177C 77.7476,176.329 77.4142,175.496 77.5,174.5C 89.3087,179.535 101.642,181.868 114.5,181.5C 105.464,182.549 96.4641,182.549 87.5,181.5C 87.5,183.167 87.5,184.833 87.5,186.5C 86.325,186.281 85.325,186.614 84.5,187.5C 87.1251,192.642 87.7918,197.976 86.5,203.5C 87.5,203.5 88.5,203.5 89.5,203.5C 89.2155,201.585 89.5489,199.919 90.5,198.5C 90.5,200.833 90.5,203.167 90.5,205.5C 88.8561,205.714 87.3561,205.38 86,204.5C 85.2181,200.364 84.7181,196.197 84.5,192C 82.892,191.342 81.7253,191.842 81,193.5C 80.5026,196.146 80.3359,198.813 80.5,201.5C 77.8127,201.664 75.146,201.497 72.5,201C 70.5743,200.578 69.5743,199.411 69.5,197.5C 71.7221,198.688 74.0554,199.688 76.5,200.5C 77.521,199.998 77.6877,199.332 77,198.5C 74.5417,197.36 72.375,195.86 70.5,194C 70.7804,192.605 71.4471,191.438 72.5,190.5C 74.6416,191.601 76.8083,192.601 79,193.5C 79.4828,192.552 79.6495,191.552 79.5,190.5C 75.1937,190.697 73.1937,188.697 73.5,184.5C 76.4769,185.071 79.3103,186.071 82,187.5C 82.1667,187.167 82.3333,186.833 82.5,186.5C 79.6985,183.419 76.3652,182.086 72.5,182.5C 70.3989,186.976 68.3989,191.476 66.5,196C 67.4158,196.278 68.0825,196.778 68.5,197.5C 63.5696,197.137 59.0696,195.47 55,192.5C 54.5172,191.552 54.3505,190.552 54.5,189.5C 52.8007,189.473 51.4674,188.806 50.5,187.5C 50.5858,186.504 50.2524,185.671 49.5,185C 46.0127,184.601 43.1793,183.101 41,180.5C 42.1405,179.486 42.9738,177.486 43.5,174.5C 43.3333,173.833 43.1667,173.167 43,172.5C 42.3292,173.252 41.4959,173.586 40.5,173.5C 42.2342,170.565 44.5675,168.732 47.5,168C 45.4331,172.395 44.7665,176.895 45.5,181.5 Z M 69.5,197.5 C 69.1667,197.5 68.8333,197.5 68.5,197.5C 68.0825,196.778 67.4158,196.278 66.5,196C 68.3989,191.476 70.3989,186.976 72.5,182.5C 76.3652,182.086 79.6985,183.419 82.5,186.5C 82.3333,186.833 82.1667,187.167 82,187.5C 79.3103,186.071 76.4769,185.071 73.5,184.5C 73.1937,188.697 75.1937,190.697 79.5,190.5C 79.6495,191.552 79.4828,192.552 79,193.5C 76.8083,192.601 74.6416,191.601 72.5,190.5C 71.4471,191.438 70.7804,192.605 70.5,194C 72.375,195.86 74.5417,197.36 77,198.5C 77.6877,199.332 77.521,199.998 76.5,200.5C 74.0554,199.688 71.7221,198.688 69.5,197.5 Z"/></g>
<g><path style="opacity:1" fill="#48779f" d="M 56.5,181.5 C 60.8373,181.969 62.504,184.135 61.5,188C 56.2616,188.594 54.5949,186.427 56.5,181.5 Z"/></g>
<g><path style="opacity:0.694" fill="#567f9e" d="M 59.5,175.5 C 64.3406,176.112 65.8406,178.445 64,182.5C 59.6752,181.718 58.1752,179.384 59.5,175.5 Z"/></g>
<g><path style="opacity:1" fill="#096ab1" d="M 109.5,207.5 C 113.741,208.818 118.074,208.652 122.5,207C 124.155,205.556 124.822,203.722 124.5,201.5C 125.5,201.5 126.5,201.5 127.5,201.5C 127.5,202.833 127.5,204.167 127.5,205.5C 129.734,205.38 131.901,205.713 134,206.5C 135.364,205.629 136.53,204.629 137.5,203.5C 137.833,203.5 138.167,203.5 138.5,203.5C 139.833,203.5 141.167,203.5 142.5,203.5C 142.351,202.448 142.517,201.448 143,200.5C 145.064,201.591 147.231,201.758 149.5,201C 150.252,200.329 150.586,199.496 150.5,198.5C 154.58,197.945 158.247,196.612 161.5,194.5C 163.044,194.297 164.378,193.63 165.5,192.5C 166.919,193.005 167.585,194.005 167.5,195.5C 167.5,195.833 167.5,196.167 167.5,196.5C 158.527,202.011 148.861,206.177 138.5,209C 137.944,209.383 137.611,209.883 137.5,210.5C 131.547,211.557 125.547,212.224 119.5,212.5C 110.625,212.833 101.958,212 93.5,210C 91.5,209.167 89.5,208.333 87.5,207.5C 89.5,207.167 91.5,206.833 93.5,206.5C 93.1445,205.478 92.4778,204.811 91.5,204.5C 91.2689,200.945 92.6022,199.445 95.5,200C 94.6634,198.989 94.33,197.822 94.5,196.5C 96.1667,196.5 97.8333,196.5 99.5,196.5C 99.5,194.167 99.5,191.833 99.5,189.5C 102.545,189.492 105.545,189.159 108.5,188.5C 108.177,195.022 108.51,201.355 109.5,207.5 Z"/></g>
<g><path style="opacity:1" fill="#222853" d="M 202.5,170.5 C 186.924,194.974 164.924,210.641 136.5,217.5C 137.465,214.525 139.799,212.191 143.5,210.5C 141.54,209.481 139.54,209.481 137.5,210.5C 137.611,209.883 137.944,209.383 138.5,209C 148.861,206.177 158.527,202.011 167.5,196.5C 166.756,199.95 168.09,201.616 171.5,201.5C 171.215,199.712 171.548,198.045 172.5,196.5C 174.398,197.734 176.065,197.401 177.5,195.5C 174.455,191.659 175.289,190.659 180,192.5C 181.76,191.37 183.593,190.37 185.5,189.5C 184.674,188.549 184.508,187.549 185,186.5C 186.333,186.5 187.667,186.5 189,186.5C 189.49,185.207 189.657,183.873 189.5,182.5C 190.675,182.719 191.675,182.386 192.5,181.5C 192.979,179.111 194.312,177.444 196.5,176.5C 197.645,175.224 197.645,173.891 196.5,172.5C 198.386,171.594 200.22,170.594 202,169.5C 202.399,169.728 202.565,170.062 202.5,170.5 Z"/></g>
<g><path style="opacity:1" fill="#0e67ab" d="M 50.5,187.5 C 51.4674,188.806 52.8007,189.473 54.5,189.5C 54.3505,190.552 54.5172,191.552 55,192.5C 59.0696,195.47 63.5696,197.137 68.5,197.5C 68.8333,197.5 69.1667,197.5 69.5,197.5C 69.5743,199.411 70.5743,200.578 72.5,201C 75.146,201.497 77.8127,201.664 80.5,201.5C 80.3359,198.813 80.5026,196.146 81,193.5C 81.7253,191.842 82.892,191.342 84.5,192C 84.7181,196.197 85.2181,200.364 86,204.5C 87.3561,205.38 88.8561,205.714 90.5,205.5C 91.1667,205.5 91.5,205.167 91.5,204.5C 92.4778,204.811 93.1445,205.478 93.5,206.5C 91.5,206.833 89.5,207.167 87.5,207.5C 89.5,208.333 91.5,209.167 93.5,210C 101.958,212 110.625,212.833 119.5,212.5C 111.677,213.656 103.677,213.823 95.5,213C 90.2227,211.514 84.8893,210.347 79.5,209.5C 69.1111,205.806 59.4445,200.806 50.5,194.5C 50.3893,193.883 50.056,193.383 49.5,193C 51.0441,192.71 52.3774,192.044 53.5,191C 51.8739,191.195 50.2072,191.195 48.5,191C 49.0848,189.698 49.7515,188.531 50.5,187.5 Z"/></g>
<g><path style="opacity:1" fill="#3c77a6" d="M 139.5,185.5 C 141.669,190.504 143.836,195.504 146,200.5C 147.33,199.418 148.83,198.751 150.5,198.5C 150.586,199.496 150.252,200.329 149.5,201C 147.231,201.758 145.064,201.591 143,200.5C 142.517,201.448 142.351,202.448 142.5,203.5C 141.167,203.5 139.833,203.5 138.5,203.5C 139.85,202.176 139.683,201.176 138,200.5C 135.923,201.017 133.923,201.684 132,202.5C 130.681,200.75 130.181,198.75 130.5,196.5C 133.059,196.61 135.392,195.944 137.5,194.5C 136.311,193.571 134.978,193.238 133.5,193.5C 132.167,193.5 130.833,193.5 129.5,193.5C 129.5,192.5 129.5,191.5 129.5,190.5C 132.09,190.082 134.423,189.082 136.5,187.5C 133.172,186.785 130.005,187.452 127,189.5C 126.667,189.167 126.333,188.833 126,188.5C 126.244,193.892 127.077,199.226 128.5,204.5C 131.518,204.296 134.518,203.963 137.5,203.5C 136.53,204.629 135.364,205.629 134,206.5C 131.901,205.713 129.734,205.38 127.5,205.5C 127.5,204.167 127.5,202.833 127.5,201.5C 126.5,201.5 125.5,201.5 124.5,201.5C 124.822,203.722 124.155,205.556 122.5,207C 118.074,208.652 113.741,208.818 109.5,207.5C 109.177,201.31 109.51,195.31 110.5,189.5C 114.5,188.833 118.5,188.167 122.5,187.5C 128.025,185.98 133.691,185.313 139.5,185.5 Z M 110.5,189.5 C 112.587,190.551 114.754,190.551 117,189.5C 122.187,190.365 123.353,192.865 120.5,197C 124.5,200 124.5,203 120.5,206C 117.24,206.784 114.073,206.617 111,205.5C 110.501,200.177 110.334,194.844 110.5,189.5 Z M 129.5,190.5 C 128.034,195.371 129.367,196.371 133.5,193.5C 134.978,193.238 136.311,193.571 137.5,194.5C 135.392,195.944 133.059,196.61 130.5,196.5C 130.181,198.75 130.681,200.75 132,202.5C 133.923,201.684 135.923,201.017 138,200.5C 139.683,201.176 139.85,202.176 138.5,203.5C 138.167,203.5 137.833,203.5 137.5,203.5C 134.518,203.963 131.518,204.296 128.5,204.5C 127.077,199.226 126.244,193.892 126,188.5C 126.333,188.833 126.667,189.167 127,189.5C 130.005,187.452 133.172,186.785 136.5,187.5C 134.423,189.082 132.09,190.082 129.5,190.5 Z"/></g>
<g><path style="opacity:0.376" fill="#97b9c4" d="M 129.5,190.5 C 129.5,191.5 129.5,192.5 129.5,193.5C 130.833,193.5 132.167,193.5 133.5,193.5C 129.367,196.371 128.034,195.371 129.5,190.5 Z"/></g>
<g><path style="opacity:0.971" fill="#5e86b3" d="M 114.5,198.5 C 119.386,197.405 121.052,199.072 119.5,203.5C 115.327,205.241 112.994,204.241 112.5,200.5C 113.243,199.818 113.909,199.151 114.5,198.5 Z"/></g>
<g><path style="opacity:0.576" fill="#8ab0c6" d="M 113.5,192.5 C 113.5,193.5 113.5,194.5 113.5,195.5C 115.288,195.785 116.955,195.452 118.5,194.5C 118.137,193.817 117.804,193.15 117.5,192.5C 118.329,191.668 119.162,192.001 120,193.5C 120.617,194.449 120.451,195.282 119.5,196C 117.19,196.497 114.857,196.663 112.5,196.5C 112.232,194.901 112.566,193.568 113.5,192.5 Z"/></g>
<g><path style="opacity:1" fill="#2d6693" d="M 117.5,192.5 C 117.804,193.15 118.137,193.817 118.5,194.5C 116.955,195.452 115.288,195.785 113.5,195.5C 113.5,194.5 113.5,193.5 113.5,192.5C 114.833,191.167 116.167,191.167 117.5,192.5 Z"/></g>
<g><path style="opacity:1" fill="#232050" d="M 79.5,209.5 C 84.8893,210.347 90.2227,211.514 95.5,213C 103.677,213.823 111.677,213.656 119.5,212.5C 125.547,212.224 131.547,211.557 137.5,210.5C 139.54,209.481 141.54,209.481 143.5,210.5C 139.799,212.191 137.465,214.525 136.5,217.5C 122.957,220.523 109.29,221.189 95.5,219.5C 95.762,218.022 95.4287,216.689 94.5,215.5C 88.5434,216.572 82.5434,215.739 76.5,213C 78.6565,212.922 80.6565,212.755 82.5,212.5C 81.0065,211.859 80.0065,210.859 79.5,209.5 Z"/></g>
</svg>
