<?xml version="1.0" standalone="no"?>
<!DOCTYPE svg PUBLIC "-//W3C//DTD SVG 20010904//EN"
 "http://www.w3.org/TR/2001/REC-SVG-20010904/DTD/svg10.dtd">
<svg version="1.0" xmlns="http://www.w3.org/2000/svg"
 width="600.000000pt" height="154.000000pt" viewBox="0 0 600.000000 154.000000"
 preserveAspectRatio="xMidYMid meet">

<g transform="translate(0.000000,154.000000) scale(0.100000,-0.100000)"
fill="#000000" stroke="none">
<path d="M2828 1406 c-74 -31 -129 -74 -169 -137 -97 -151 -72 -343 61 -463
44 -39 132 -86 163 -86 17 0 16 4 -8 31 -139 166 -137 481 4 642 38 43 28 46
-51 13z"/>
<path d="M2926 1383 c-13 -42 -26 -107 -39 -195 l-4 -28 78 0 c60 0 79 3 79
14 0 33 -32 191 -45 222 -21 51 -50 46 -69 -13z"/>
<path d="M3039 1395 c38 -44 75 -117 93 -187 l12 -48 83 0 83 0 -10 25 c-47
124 -145 212 -265 241 l-30 7 34 -38z"/>
<path d="M170 1340 l0 -69 78 -3 77 -3 3 -267 2 -268 70 0 70 0 0 270 0 270
78 0 77 0 -3 70 -4 70 -224 0 -224 0 0 -70z"/>
<path d="M730 1070 l0 -340 190 0 190 0 0 65 0 64 -117 3 -118 3 -3 73 -3 72
121 0 120 0 0 65 0 65 -120 0 -120 0 0 70 0 70 120 0 120 0 0 65 0 65 -190 0
-190 0 0 -340z"/>
<path d="M1240 1070 l0 -340 70 0 70 0 2 162 3 162 120 -162 120 -161 88 -1
87 0 -130 173 c-71 96 -130 179 -130 185 0 6 54 79 120 162 66 83 120 153 120
156 0 2 -39 4 -87 3 l-88 0 -110 -142 -110 -142 -3 143 -3 142 -69 0 -70 0 0
-340z"/>
<path d="M1900 1070 l0 -340 70 0 70 0 0 216 c0 146 3 215 10 212 6 -2 77 -98
158 -213 l148 -210 72 -3 72 -3 0 341 0 340 -70 0 -70 0 -2 -217 -3 -216 -153
216 -154 217 -74 0 -74 0 0 -340z"/>
<path d="M3430 1070 l0 -340 70 0 70 0 0 134 0 133 75 5 c137 9 216 86 216
210 0 89 -30 141 -103 179 -32 16 -59 19 -183 19 l-145 0 0 -340z m260 195
c24 -22 30 -57 15 -92 -17 -41 -35 -52 -91 -55 l-49 -3 -3 87 c-3 83 -2 87 20
90 34 5 87 -8 108 -27z"/>
<path d="M4141 1388 c-8 -21 -246 -617 -258 -645 -4 -10 14 -13 69 -13 l73 0
26 68 26 67 131 3 130 3 28 -71 27 -70 75 0 c55 0 73 3 69 13 -3 6 -65 159
-138 340 l-133 327 -58 0 c-51 0 -60 -3 -67 -22z m113 -308 c19 -47 32 -88 29
-92 -6 -10 -153 -10 -153 0 0 24 74 192 81 185 5 -5 24 -47 43 -93z"/>
<path d="M4650 1070 l0 -340 70 0 70 0 0 135 c0 74 3 135 8 135 4 0 47 -61 96
-135 l89 -135 84 0 83 0 -94 142 -95 141 39 28 c49 35 65 61 81 122 25 101
-28 205 -120 236 -19 6 -96 11 -172 11 l-139 0 0 -340z m243 209 c35 -16 51
-50 43 -93 -8 -44 -36 -64 -99 -72 l-47 -7 0 92 0 91 40 0 c21 0 50 -5 63 -11z"/>
<path d="M5270 1070 l0 -340 70 0 70 0 2 162 3 162 120 -162 120 -161 88 -1
89 0 -29 38 c-15 20 -74 98 -130 173 -57 75 -103 141 -103 146 0 6 54 79 120
162 66 83 120 153 120 156 0 3 -39 5 -87 5 l-88 -1 -99 -130 c-55 -71 -105
-134 -113 -140 -11 -10 -13 13 -13 130 l0 141 -70 0 -70 0 0 -340z"/>
<path d="M2810 1075 c0 -33 2 -35 35 -35 19 0 35 -3 35 -7 1 -51 25 -203 40
-255 17 -55 24 -68 41 -68 13 0 25 11 34 33 23 55 45 195 45 283 l0 84 -115 0
-115 0 0 -35z"/>
<path d="M3147 1037 c-7 -92 -44 -201 -91 -267 -44 -61 -30 -66 61 -20 113 56
188 167 200 294 l6 66 -85 0 -85 0 -6 -73z"/>
<path d="M817 415 c-76 -27 -112 -81 -105 -157 9 -89 68 -139 164 -139 82 0
138 46 151 124 l6 37 -67 0 c-64 0 -66 -1 -66 -25 0 -21 5 -25 30 -25 39 0 40
-25 0 -45 -47 -25 -97 -19 -130 14 -38 38 -46 71 -25 114 27 58 101 75 162 38
30 -19 32 -19 48 -1 21 23 15 33 -27 53 -51 23 -99 27 -141 12z"/>
<path d="M3400 277 l0 -157 25 0 c25 0 25 1 25 90 0 50 3 90 8 90 4 0 51 -46
104 -102 l97 -103 1 163 0 162 -25 0 c-25 0 -25 -1 -25 -90 0 -49 -3 -90 -7
-90 -4 0 -52 44 -105 97 l-98 98 0 -158z"/>
<path d="M1401 402 c-9 -17 -64 -140 -112 -249 l-18 -43 28 0 c27 0 32 7 67
90 22 49 41 90 44 90 3 0 23 -40 44 -90 36 -83 41 -90 68 -90 28 0 28 0 14 33
-42 99 -119 272 -121 275 -2 2 -8 -5 -14 -16z"/>
<path d="M1860 390 c0 -30 0 -30 56 -30 l56 0 -42 -77 c-24 -43 -54 -97 -67
-120 l-25 -43 106 0 106 0 0 30 c0 30 -1 30 -55 30 -30 0 -55 3 -55 8 0 4 27
56 60 116 33 61 60 111 60 113 0 2 -45 3 -100 3 l-100 0 0 -30z"/>
<path d="M2470 395 c0 -20 5 -25 25 -25 20 0 25 5 25 25 0 20 -5 25 -25 25
-20 0 -25 -5 -25 -25z"/>
<path d="M2905 283 c-84 -190 -79 -173 -46 -173 27 0 32 6 67 90 21 50 41 90
44 90 3 0 22 -41 44 -90 36 -83 41 -90 67 -90 23 0 27 3 21 18 -25 66 -128
292 -132 292 -3 0 -32 -62 -65 -137z"/>
<path d="M4000 390 c0 -27 3 -30 30 -30 l30 0 0 -120 0 -120 25 0 25 0 0 119
0 120 33 3 c27 2 33 8 35 31 l3 27 -90 0 -91 0 0 -30z"/>
<path d="M4560 270 l0 -150 85 0 85 0 0 30 0 30 -61 0 -60 0 3 38 3 37 58 3
c53 3 57 5 57 27 0 24 -3 25 -60 25 -57 0 -60 1 -60 25 0 24 3 25 60 25 l60 0
0 30 0 30 -85 0 -85 0 0 -150z"/>
<path d="M5120 271 l0 -151 25 0 c24 0 25 3 25 59 l0 58 39 7 c51 8 83 46 79
94 -4 47 -39 71 -111 79 l-57 6 0 -152z m104 83 c29 -29 12 -64 -31 -64 -20 0
-23 5 -23 40 0 33 3 40 19 40 11 0 27 -7 35 -16z"/>
<path d="M2470 230 l0 -110 25 0 25 0 0 110 0 110 -25 0 -25 0 0 -110z"/>
</g>
</svg>
