<?xml version="1.0" encoding="UTF-8"?>
<!DOCTYPE svg PUBLIC "-//W3C//DTD SVG 1.1//EN" "http://www.w3.org/Graphics/SVG/1.1/DTD/svg11.dtd">
<svg xmlns="http://www.w3.org/2000/svg" version="1.1" width="865px" height="288px" style="shape-rendering:geometricPrecision; text-rendering:geometricPrecision; image-rendering:optimizeQuality; fill-rule:evenodd; clip-rule:evenodd" xmlns:xlink="http://www.w3.org/1999/xlink">
<g><path style="opacity:1" fill="#d4d6ea" d="M 234.5,44.5 C 233.697,45.4232 233.53,46.4232 234,47.5C 237.933,47.724 240.266,49.724 241,53.5C 242.388,52.4464 243.888,52.2797 245.5,53C 245.167,53.3333 244.833,53.6667 244.5,54C 247.686,54.2579 249.686,55.9246 250.5,59C 257.717,59.8549 260.55,63.6882 259,70.5C 259.333,70.1667 259.667,69.8333 260,69.5C 261.399,70.2266 262.899,70.7266 264.5,71C 265.231,73.5946 266.898,75.2613 269.5,76C 269.043,76.414 268.709,76.914 268.5,77.5C 270.559,78.567 272.392,79.9004 274,81.5C 273.474,89.1233 270.307,90.29 264.5,85C 260.886,84.0642 257.22,83.5642 253.5,83.5C 228.786,69.3903 203.953,55.3903 179,41.5C 169.112,46.1929 159.612,51.5262 150.5,57.5C 153.196,59.509 155.863,61.509 158.5,63.5C 159.607,65.9311 161.607,66.9311 164.5,66.5C 168.385,66.1026 172.218,65.4359 176,64.5C 182.233,66.7806 188.733,68.1139 195.5,68.5C 196.91,68.8678 197.91,69.7011 198.5,71C 201.232,71.413 203.899,72.0797 206.5,73C 212.823,81.4584 215.49,90.9584 214.5,101.5C 210.319,103.02 207.985,106.02 207.5,110.5C 195.532,118.972 182.199,121.805 167.5,119C 152.818,117.424 141.985,110.257 135,97.5C 134.667,93.5 134.333,89.5 134,85.5C 129.416,82.7917 124.916,79.9584 120.5,77C 118.833,76.3333 117.167,76.3333 115.5,77C 106.964,82.3657 98.2974,87.5324 89.5,92.5C 85.9878,90.2433 82.6544,87.7433 79.5,85C 105.045,47.3919 140.712,29.0585 186.5,30C 203.64,31.4461 219.64,36.2794 234.5,44.5 Z"/></g>
<g><path style="opacity:0.362" fill="#b2cbe3" d="M 354.5,92.5 C 354.167,92.5 353.833,92.5 353.5,92.5C 353.5,91.8333 353.833,91.5 354.5,91.5C 360.167,91.5 365.833,91.5 371.5,91.5C 371.5,89.1667 371.5,86.8333 371.5,84.5C 362.167,84.5 352.833,84.5 343.5,84.5C 342.504,99.324 342.171,114.324 342.5,129.5C 341.504,114.342 341.17,99.0091 341.5,83.5C 351.833,83.5 362.167,83.5 372.5,83.5C 372.5,86.5 372.5,89.5 372.5,92.5C 366.5,92.5 360.5,92.5 354.5,92.5 Z"/></g>
<g><path style="opacity:0.461" fill="#95b4d2" d="M 398.5,84.5 C 400.641,83.8367 402.975,83.5034 405.5,83.5C 408.269,83.5286 410.603,84.1952 412.5,85.5C 412.167,85.5 411.833,85.5 411.5,85.5C 407.366,84.5151 403.032,84.1818 398.5,84.5 Z"/></g>
<g><path style="opacity:1" fill="#dcdee9" d="M 207.5,110.5 C 207.985,106.02 210.319,103.02 214.5,101.5C 215.49,90.9584 212.823,81.4584 206.5,73C 203.899,72.0797 201.232,71.413 198.5,71C 197.91,69.7011 196.91,68.8678 195.5,68.5C 188.733,68.1139 182.233,66.7806 176,64.5C 172.218,65.4359 168.385,66.1026 164.5,66.5C 161.607,66.9311 159.607,65.9311 158.5,63.5C 164.974,64.3846 171.474,64.0513 178,62.5C 190.171,62.7777 201.004,66.611 210.5,74C 221.708,87.1955 220.708,99.3621 207.5,110.5 Z"/></g>
<g><path style="opacity:0.975" fill="#1b4885" d="M 343.5,84.5 C 352.833,84.5 362.167,84.5 371.5,84.5C 371.5,86.8333 371.5,89.1667 371.5,91.5C 365.833,91.5 360.167,91.5 354.5,91.5C 359.64,90.5119 364.974,90.1786 370.5,90.5C 370.684,87.6787 369.351,86.0121 366.5,85.5C 363.88,86.5224 361.213,86.5224 358.5,85.5C 356.519,85.4371 354.852,86.1038 353.5,87.5C 350.807,85.7298 347.807,85.0632 344.5,85.5C 344.5,94.1667 344.5,102.833 344.5,111.5C 343.507,102.682 343.173,93.6822 343.5,84.5 Z"/></g>
<g><path style="opacity:0.735" fill="#dddeea" d="M 234.5,44.5 C 252.618,53.7795 267.118,67.1129 278,84.5C 278.684,85.7839 278.517,86.9505 277.5,88C 274.5,89.5 271.5,91 268.5,92.5C 263.198,89.8355 258.198,86.8355 253.5,83.5C 257.22,83.5642 260.886,84.0642 264.5,85C 270.307,90.29 273.474,89.1233 274,81.5C 272.392,79.9004 270.559,78.567 268.5,77.5C 268.709,76.914 269.043,76.414 269.5,76C 266.898,75.2613 265.231,73.5946 264.5,71C 262.899,70.7266 261.399,70.2266 260,69.5C 259.667,69.8333 259.333,70.1667 259,70.5C 260.55,63.6882 257.717,59.8549 250.5,59C 249.686,55.9246 247.686,54.2579 244.5,54C 244.833,53.6667 245.167,53.3333 245.5,53C 243.888,52.2797 242.388,52.4464 241,53.5C 240.266,49.724 237.933,47.724 234,47.5C 233.53,46.4232 233.697,45.4232 234.5,44.5 Z"/></g>
<g><path style="opacity:1" fill="#4c699b" d="M 411.5,85.5 C 411.833,85.5 412.167,85.5 412.5,85.5C 413.499,88.1618 414.499,90.8284 415.5,93.5C 414.504,93.5858 413.671,93.2524 413,92.5C 412.023,90.26 411.523,87.9267 411.5,85.5 Z"/></g>
<g><path style="opacity:1" fill="#557096" d="M 283.5,94.5 C 281.585,94.2155 279.919,94.5489 278.5,95.5C 277.833,95.5 277.167,95.5 276.5,95.5C 275.833,95.5 275.167,95.5 274.5,95.5C 276.535,94.0601 278.702,92.7268 281,91.5C 282.31,92.1301 283.144,93.1301 283.5,94.5 Z"/></g>
<g><path style="opacity:1" fill="#385b90" d="M 398.5,84.5 C 403.032,84.1818 407.366,84.5151 411.5,85.5C 407.833,85.5 404.167,85.5 400.5,85.5C 398.626,90.6209 396.459,95.6209 394,100.5C 393.241,102.063 392.074,103.063 390.5,103.5C 392.893,97.0471 395.56,90.7137 398.5,84.5 Z"/></g>
<g><path style="opacity:0.263" fill="#c0d4ea" d="M 468.5,84.5 C 460.167,84.5 451.833,84.5 443.5,84.5C 443.5,99.5 443.5,114.5 443.5,129.5C 451.5,129.5 459.5,129.5 467.5,129.5C 459.35,130.493 451.017,130.826 442.5,130.5C 442.5,114.833 442.5,99.1667 442.5,83.5C 451.349,83.1736 460.016,83.507 468.5,84.5 Z"/></g>
<g><path style="opacity:1" fill="#0d4c99" d="M 454.5,85.5 C 455.598,86.397 455.598,87.2303 454.5,88C 452.1,88.1858 449.766,88.6858 447.5,89.5C 448.991,90.2436 450.491,90.9103 452,91.5C 452.475,97.8422 452.975,104.176 453.5,110.5C 451.396,110.201 449.396,110.534 447.5,111.5C 448.668,113.217 450.335,113.884 452.5,113.5C 452.5,114.833 452.5,116.167 452.5,117.5C 451.5,117.5 450.5,117.5 449.5,117.5C 449.167,120.5 450.5,121.833 453.5,121.5C 453.833,123.5 454.167,125.5 454.5,127.5C 455.5,127.5 456.5,127.5 457.5,127.5C 457.5,126.5 457.5,125.5 457.5,124.5C 460.85,124.665 464.183,124.498 467.5,124C 469.155,122.556 469.822,120.722 469.5,118.5C 471.882,116.942 474.715,115.275 478,113.5C 478.498,116.817 478.665,120.15 478.5,123.5C 475.533,124.42 472.867,125.92 470.5,128C 461.921,128.816 453.421,128.649 445,127.5C 444.333,114.167 444.333,100.833 445,87.5C 447.904,85.7732 451.07,85.1065 454.5,85.5 Z"/></g>
<g><path style="opacity:0.297" fill="#b2ccec" d="M 495.5,84.5 C 499.298,83.5166 503.298,83.1832 507.5,83.5C 507.5,95.5 507.5,107.5 507.5,119.5C 514.5,119.5 521.5,119.5 528.5,119.5C 528.813,123.042 528.479,126.375 527.5,129.5C 527.5,126.5 527.5,123.5 527.5,120.5C 520.5,120.5 513.5,120.5 506.5,120.5C 506.5,108.5 506.5,96.5 506.5,84.5C 503.167,84.5 499.833,84.5 496.5,84.5C 496.167,84.5 495.833,84.5 495.5,84.5 Z"/></g>
<g><path style="opacity:1" fill="#0e4c99" d="M 354.5,91.5 C 353.833,91.5 353.5,91.8333 353.5,92.5C 353.187,96.0419 353.521,99.3752 354.5,102.5C 359.64,103.488 364.974,103.821 370.5,103.5C 370.714,105.144 370.38,106.644 369.5,108C 363.477,108.359 357.477,108.859 351.5,109.5C 351.5,115.833 351.5,122.167 351.5,128.5C 349.208,128.756 347.041,128.423 345,127.5C 344.501,122.177 344.334,116.844 344.5,111.5C 344.5,102.833 344.5,94.1667 344.5,85.5C 347.807,85.0632 350.807,85.7298 353.5,87.5C 354.852,86.1038 356.519,85.4371 358.5,85.5C 361.213,86.5224 363.88,86.5224 366.5,85.5C 369.351,86.0121 370.684,87.6787 370.5,90.5C 364.974,90.1786 359.64,90.5119 354.5,91.5 Z"/></g>
<g><path style="opacity:0.998" fill="#1e4b84" d="M 625.5,84.5 C 627.38,84.2291 628.713,84.8958 629.5,86.5C 628.883,86.6107 628.383,86.944 628,87.5C 619.434,85.5464 610.601,84.8797 601.5,85.5C 601.43,99.3963 601.597,113.396 602,127.5C 608.076,128.476 614.242,128.81 620.5,128.5C 620.5,128.833 620.5,129.167 620.5,129.5C 613.833,129.5 607.167,129.5 600.5,129.5C 600.5,114.5 600.5,99.5 600.5,84.5C 608.833,84.5 617.167,84.5 625.5,84.5 Z"/></g>
<g><path style="opacity:1" fill="#174d99" d="M 629.5,86.5 C 629.789,90.0346 631.123,93.0346 633.5,95.5C 632.106,97.6457 631.44,99.979 631.5,102.5C 630.167,102.5 628.833,102.5 627.5,102.5C 626.344,100.176 625.344,97.8428 624.5,95.5C 624.5,94.8333 624.167,94.5 623.5,94.5C 622.691,93.5313 621.691,92.6979 620.5,92C 617.518,91.502 614.518,91.3354 611.5,91.5C 611.5,95.1667 611.5,98.8333 611.5,102.5C 611.5,105.167 611.5,107.833 611.5,110.5C 611.5,114.167 611.5,117.833 611.5,121.5C 613.571,122.809 616.071,123.475 619,123.5C 621.5,123.167 624,122.833 626.5,122.5C 628.067,118.282 627.734,114.282 625.5,110.5C 632.488,106.09 635.821,108.257 635.5,117C 635.167,119.167 634.833,121.333 634.5,123.5C 630.142,126.006 625.475,127.672 620.5,128.5C 614.242,128.81 608.076,128.476 602,127.5C 601.597,113.396 601.43,99.3963 601.5,85.5C 610.601,84.8797 619.434,85.5464 628,87.5C 628.383,86.944 628.883,86.6107 629.5,86.5 Z M 623.5,94.5 C 623.675,96.6208 623.341,98.6208 622.5,100.5C 619.08,102.222 615.414,102.889 611.5,102.5C 611.5,98.8333 611.5,95.1667 611.5,91.5C 614.518,91.3354 617.518,91.502 620.5,92C 621.691,92.6979 622.691,93.5313 623.5,94.5 Z M 611.5,110.5 C 615.936,110.21 620.27,110.71 624.5,112C 626.036,115.24 625.703,118.24 623.5,121C 619.514,121.499 615.514,121.666 611.5,121.5C 611.5,117.833 611.5,114.167 611.5,110.5 Z"/></g>
<g><path style="opacity:0.808" fill="#88a3bb" d="M 274.5,95.5 C 274.027,96.9063 273.027,97.573 271.5,97.5C 271.973,96.0937 272.973,95.427 274.5,95.5 Z"/></g>
<g><path style="opacity:1" fill="#0b4c9c" d="M 496.5,123.5 C 496.5,122.167 496.5,120.833 496.5,119.5C 497.495,108.679 497.828,97.6794 497.5,86.5C 499.833,86.5 502.167,86.5 504.5,86.5C 504.333,98.1714 504.5,109.838 505,121.5C 510.417,122.309 515.917,122.809 521.5,123C 522.5,123.333 523.5,123.667 524.5,124C 523.167,124.667 523.167,125.333 524.5,126C 516.507,126.897 508.507,127.231 500.5,127C 499.616,125.28 498.283,124.114 496.5,123.5 Z"/></g>
<g><path style="opacity:1" fill="#0f4c98" d="M 569.5,87.5 C 572.239,93.452 574.239,99.7853 575.5,106.5C 577.111,109.446 579.111,112.113 581.5,114.5C 581.829,119.831 583.162,124.831 585.5,129.5C 583.5,129.5 581.5,129.5 579.5,129.5C 578.852,127.914 578.352,126.247 578,124.5C 576.989,123.663 575.822,123.33 574.5,123.5C 574.5,121.167 574.5,118.833 574.5,116.5C 571.5,116.5 568.5,116.5 565.5,116.5C 565.433,115.041 565.766,113.708 566.5,112.5C 569.884,111.756 570.218,110.423 567.5,108.5C 567.19,104.732 566.357,101.065 565,97.5C 564.617,98.056 564.117,98.3893 563.5,98.5C 563.5,97.1667 563.5,95.8333 563.5,94.5C 562.5,94.5 561.5,94.5 560.5,94.5C 560.5,96.1667 560.5,97.8333 560.5,99.5C 558.179,100.832 556.513,102.832 555.5,105.5C 554.05,104.345 553.05,102.845 552.5,101C 553.189,96.3288 554.189,91.4955 555.5,86.5C 559.466,85.8379 563.466,85.5045 567.5,85.5C 567.131,87.9935 567.797,88.6602 569.5,87.5 Z"/></g>
<g><path style="opacity:0.957" fill="#6781ae" d="M 563.5,98.5 C 562.778,98.0825 562.278,97.4158 562,96.5C 561.768,97.7375 561.268,98.7375 560.5,99.5C 560.5,97.8333 560.5,96.1667 560.5,94.5C 561.5,94.5 562.5,94.5 563.5,94.5C 563.5,95.8333 563.5,97.1667 563.5,98.5 Z"/></g>
<g><path style="opacity:1" fill="#0f4b99" d="M 411.5,85.5 C 411.523,87.9267 412.023,90.26 413,92.5C 413.671,93.2524 414.504,93.5858 415.5,93.5C 416.188,99.3081 418.021,104.641 421,109.5C 421.495,111.473 421.662,113.473 421.5,115.5C 412.775,116.927 404.109,117.927 395.5,118.5C 393.692,119.918 393.025,121.918 393.5,124.5C 392.5,124.5 391.5,124.5 390.5,124.5C 390.67,125.822 390.337,126.989 389.5,128C 387.527,128.495 385.527,128.662 383.5,128.5C 384.425,124.21 385.091,119.876 385.5,115.5C 389.837,112.768 391.504,108.768 390.5,103.5C 392.074,103.063 393.241,102.063 394,100.5C 396.459,95.6209 398.626,90.6209 400.5,85.5C 404.167,85.5 407.833,85.5 411.5,85.5 Z M 408.5,102.5 C 408.5,102.833 408.5,103.167 408.5,103.5C 408.918,106.09 409.918,108.423 411.5,110.5C 407.555,111.491 403.555,111.824 399.5,111.5C 401.033,106.739 402.866,102.072 405,97.5C 406.189,99.2331 407.356,100.9 408.5,102.5 Z"/></g>
<g><path style="opacity:0.42" fill="#88a6d0" d="M 623.5,94.5 C 624.167,94.5 624.5,94.8333 624.5,95.5C 624.923,97.7812 624.256,99.4479 622.5,100.5C 623.341,98.6208 623.675,96.6208 623.5,94.5 Z"/></g>
<g><path style="opacity:0.957" fill="#839cb8" d="M 477.5,92.5 C 478.996,96.1778 478.329,99.5111 475.5,102.5C 475.216,100.585 475.549,98.9187 476.5,97.5C 477.451,96.0813 477.784,94.4147 477.5,92.5 Z"/></g>
<g><path style="opacity:1" fill="#406699" d="M 463.5,91.5 C 464.167,91.5 464.833,91.5 465.5,91.5C 467.884,92.4251 468.884,94.2585 468.5,97C 468.333,98.1667 468.167,99.3333 468,100.5C 466.583,101.078 465.75,102.078 465.5,103.5C 464.833,103.5 464.167,103.5 463.5,103.5C 463.833,102.833 464.167,102.167 464.5,101.5C 467.301,97.8417 466.968,94.5084 463.5,91.5 Z"/></g>
<g><path style="opacity:0.612" fill="#93aece" d="M 625.5,84.5 C 617.167,84.5 608.833,84.5 600.5,84.5C 600.5,99.5 600.5,114.5 600.5,129.5C 607.167,129.5 613.833,129.5 620.5,129.5C 621.833,129.5 623.167,129.5 624.5,129.5C 616.35,130.493 608.017,130.826 599.5,130.5C 599.5,114.833 599.5,99.1667 599.5,83.5C 608.349,83.1736 617.016,83.507 625.5,84.5 Z"/></g>
<g><path style="opacity:0.159" fill="#cce3fc" d="M 353.5,92.5 C 353.833,92.5 354.167,92.5 354.5,92.5C 354.5,95.5 354.5,98.5 354.5,101.5C 360.69,101.177 366.69,101.51 372.5,102.5C 366.5,102.5 360.5,102.5 354.5,102.5C 353.521,99.3752 353.187,96.0419 353.5,92.5 Z"/></g>
<g><path style="opacity:0.41" fill="#94accc" d="M 454.5,101.5 C 457.799,102.747 461.133,102.747 464.5,101.5C 464.167,102.167 463.833,102.833 463.5,103.5C 459.988,104.055 456.988,103.388 454.5,101.5 Z"/></g>
<g><path style="opacity:1" fill="#6c86b2" d="M 567.5,108.5 C 565.654,105.46 564.321,102.127 563.5,98.5C 564.117,98.3893 564.617,98.056 565,97.5C 566.357,101.065 567.19,104.732 567.5,108.5 Z"/></g>
<g><path style="opacity:1" fill="#a3a7c5" d="M 85.5,97.5 C 84.1667,97.1667 82.8333,96.8333 81.5,96.5C 79.8414,93.7053 78.0081,93.372 76,95.5C 74.1857,101.453 71.3524,106.786 67.5,111.5C 69.4721,104.721 72.1388,98.2215 75.5,92C 79.6252,92.2707 82.9586,94.104 85.5,97.5 Z"/></g>
<g><path style="opacity:1" fill="#114c9b" d="M 466.5,87.5 C 469.089,89.5767 472.089,90.91 475.5,91.5C 476.466,93.396 476.799,95.396 476.5,97.5C 475.549,98.9187 475.216,100.585 475.5,102.5C 475.158,103.338 474.492,103.672 473.5,103.5C 472.711,103.783 472.044,104.283 471.5,105C 472.308,106.706 473.641,107.539 475.5,107.5C 476.047,111.29 474.38,113.29 470.5,113.5C 469.735,112.388 468.735,111.721 467.5,111.5C 467.5,110.167 467.5,108.833 467.5,107.5C 464.513,106.742 461.513,105.909 458.5,105C 461.036,104.814 463.369,104.314 465.5,103.5C 465.75,102.078 466.583,101.078 468,100.5C 468.167,99.3333 468.333,98.1667 468.5,97C 468.884,94.2585 467.884,92.4251 465.5,91.5C 458.712,88.3789 459.045,87.0456 466.5,87.5 Z"/></g>
<g><path style="opacity:1" fill="#4b6796" d="M 569.5,87.5 C 574.269,96.0473 578.269,105.047 581.5,114.5C 579.111,112.113 577.111,109.446 575.5,106.5C 574.239,99.7853 572.239,93.452 569.5,87.5 Z"/></g>
<g><path style="opacity:1" fill="#1a4e92" d="M 272.5,104.5 C 273.394,106.308 274.394,108.142 275.5,110C 273.475,116.263 273.142,122.596 274.5,129C 273.916,134.303 270.916,136.803 265.5,136.5C 265.5,137.5 265.5,138.5 265.5,139.5C 262.739,140.92 259.739,141.587 256.5,141.5C 255.494,141.062 255.494,140.396 256.5,139.5C 259.008,137.076 262.008,135.41 265.5,134.5C 268.368,134.915 270.535,133.915 272,131.5C 272.5,122.506 272.666,113.506 272.5,104.5 Z"/></g>
<g><path style="opacity:1" fill="#4b6c9a" d="M 408.5,103.5 C 409.5,103.5 410.5,103.5 411.5,103.5C 411.963,106.482 412.296,109.482 412.5,112.5C 407.968,112.818 403.634,112.485 399.5,111.5C 403.555,111.824 407.555,111.491 411.5,110.5C 409.918,108.423 408.918,106.09 408.5,103.5 Z"/></g>
<g><path style="opacity:1" fill="#41629a" d="M 569.5,87.5 C 567.797,88.6602 567.131,87.9935 567.5,85.5C 563.466,85.5045 559.466,85.8379 555.5,86.5C 554.189,91.4955 553.189,96.3288 552.5,101C 553.05,102.845 554.05,104.345 555.5,105.5C 556.513,102.832 558.179,100.832 560.5,99.5C 559.174,103.143 557.84,106.81 556.5,110.5C 560.107,111.489 563.774,111.823 567.5,111.5C 567.5,110.5 567.5,109.5 567.5,108.5C 570.218,110.423 569.884,111.756 566.5,112.5C 564.833,112.5 563.167,112.5 561.5,112.5C 559.473,112.662 557.473,112.495 555.5,112C 554.914,109.72 554.08,107.553 553,105.5C 552.581,106.672 551.915,107.672 551,108.5C 551,105.833 551,103.167 551,100.5C 549.448,104.333 547.615,108 545.5,111.5C 545.043,112.298 544.376,112.631 543.5,112.5C 547.299,103.109 551.299,93.7754 555.5,84.5C 559.795,83.3391 564.129,83.1725 568.5,84C 569.337,85.0113 569.67,86.1779 569.5,87.5 Z"/></g>
<g><path style="opacity:0.961" fill="#526fa0" d="M 629.5,86.5 C 635.502,89.5434 637.002,94.2101 634,100.5C 632.833,102.333 631.333,103.833 629.5,105C 638.899,109.769 640.899,116.769 635.5,126C 632.107,128.076 628.44,129.242 624.5,129.5C 623.167,129.5 621.833,129.5 620.5,129.5C 620.5,129.167 620.5,128.833 620.5,128.5C 625.475,127.672 630.142,126.006 634.5,123.5C 634.833,121.333 635.167,119.167 635.5,117C 635.821,108.257 632.488,106.09 625.5,110.5C 627.734,114.282 628.067,118.282 626.5,122.5C 624,122.833 621.5,123.167 619,123.5C 616.071,123.475 613.571,122.809 611.5,121.5C 615.514,121.666 619.514,121.499 623.5,121C 625.703,118.24 626.036,115.24 624.5,112C 620.27,110.71 615.936,110.21 611.5,110.5C 611.5,107.833 611.5,105.167 611.5,102.5C 615.414,102.889 619.08,102.222 622.5,100.5C 624.256,99.4479 624.923,97.7812 624.5,95.5C 625.344,97.8428 626.344,100.176 627.5,102.5C 628.833,102.5 630.167,102.5 631.5,102.5C 631.44,99.979 632.106,97.6457 633.5,95.5C 631.123,93.0346 629.789,90.0346 629.5,86.5 Z"/></g>
<g><path style="opacity:0.976" fill="#7594b8" d="M 473.5,103.5 C 474.211,105.03 475.211,106.363 476.5,107.5C 476.167,107.5 475.833,107.5 475.5,107.5C 473.641,107.539 472.308,106.706 471.5,105C 472.044,104.283 472.711,103.783 473.5,103.5 Z"/></g>
<g><path style="opacity:0.976" fill="#617ca7" d="M 408.5,102.5 C 407.356,100.9 406.189,99.2331 405,97.5C 402.866,102.072 401.033,106.739 399.5,111.5C 398.861,110.903 398.528,110.07 398.5,109C 399.564,104.386 401.231,100.053 403.5,96C 404.793,95.51 406.127,95.3433 407.5,95.5C 407.674,97.861 408.007,100.194 408.5,102.5 Z"/></g>
<g><path style="opacity:1" fill="#305694" d="M 454.5,85.5 C 458.182,85.3347 461.848,85.5014 465.5,86C 466.056,86.3826 466.389,86.8826 466.5,87.5C 459.045,87.0456 458.712,88.3789 465.5,91.5C 464.833,91.5 464.167,91.5 463.5,91.5C 462.833,91.5 462.167,91.5 461.5,91.5C 460.551,90.8476 459.385,90.5143 458,90.5C 456.319,90.6083 455.152,91.2749 454.5,92.5C 455.465,95.7644 455.465,98.7644 454.5,101.5C 456.988,103.388 459.988,104.055 463.5,103.5C 464.167,103.5 464.833,103.5 465.5,103.5C 463.369,104.314 461.036,104.814 458.5,105C 461.513,105.909 464.513,106.742 467.5,107.5C 467.5,108.833 467.5,110.167 467.5,111.5C 466.167,111.167 464.833,110.833 463.5,110.5C 460.713,109.523 457.713,109.19 454.5,109.5C 454.5,110.833 454.5,112.167 454.5,113.5C 454.792,115.957 454.792,118.624 454.5,121.5C 458.514,121.666 462.514,121.499 466.5,121C 467.373,119.955 468.373,119.122 469.5,118.5C 469.822,120.722 469.155,122.556 467.5,124C 464.183,124.498 460.85,124.665 457.5,124.5C 457.5,125.5 457.5,126.5 457.5,127.5C 456.5,127.5 455.5,127.5 454.5,127.5C 454.167,125.5 453.833,123.5 453.5,121.5C 450.5,121.833 449.167,120.5 449.5,117.5C 450.5,117.5 451.5,117.5 452.5,117.5C 452.5,116.167 452.5,114.833 452.5,113.5C 450.335,113.884 448.668,113.217 447.5,111.5C 449.396,110.534 451.396,110.201 453.5,110.5C 452.975,104.176 452.475,97.8422 452,91.5C 450.491,90.9103 448.991,90.2436 447.5,89.5C 449.766,88.6858 452.1,88.1858 454.5,88C 455.598,87.2303 455.598,86.397 454.5,85.5 Z"/></g>
<g><path style="opacity:1" fill="#0e4c99" d="M 627.5,102.5 C 627.607,104.903 626.607,106.736 624.5,108C 620.848,108.499 617.182,108.665 613.5,108.5C 613.5,107.167 613.5,105.833 613.5,104.5C 617.634,105.057 621.301,104.057 624.5,101.5C 625.417,102.127 626.417,102.461 627.5,102.5 Z"/></g>
<g><path style="opacity:1" fill="#0d4c9b" d="M 276.5,95.5 C 277.167,95.5 277.833,95.5 278.5,95.5C 279.833,95.5 281.167,95.5 282.5,95.5C 285.191,104.31 287.191,113.31 288.5,122.5C 287.979,124.524 287.812,126.524 288,128.5C 288.991,127.061 290.324,126.061 292,125.5C 292.703,130.695 292.536,135.861 291.5,141C 291.493,142.812 292.16,144.312 293.5,145.5C 292.708,151.449 292.208,157.449 292,163.5C 291.01,171.258 289.51,178.925 287.5,186.5C 284.346,191.622 282.346,197.288 281.5,203.5C 280.849,202.909 280.182,202.243 279.5,201.5C 278.526,203.743 278.192,206.076 278.5,208.5C 275.911,209.419 273.911,211.086 272.5,213.5C 271.833,212.5 271.167,211.5 270.5,210.5C 269.657,212.231 269.657,214.065 270.5,216C 268.365,217.993 267.365,220.493 267.5,223.5C 265.516,223.383 263.85,224.05 262.5,225.5C 259.133,231.388 254.133,234.555 247.5,235C 249.107,236.049 249.773,237.549 249.5,239.5C 248.5,239.5 247.5,239.5 246.5,239.5C 246.5,240.5 246.5,241.5 246.5,242.5C 242.074,244.273 237.408,245.44 232.5,246C 233.973,246.71 234.64,247.876 234.5,249.5C 232.821,249.285 231.821,249.952 231.5,251.5C 231.158,252.338 230.492,252.672 229.5,252.5C 227.473,252.338 225.473,252.505 223.5,253C 224.056,253.383 224.389,253.883 224.5,254.5C 220.221,253.493 217.221,254.826 215.5,258.5C 212.933,259.475 210.267,260.142 207.5,260.5C 204.813,260.336 202.146,260.503 199.5,261C 198.584,261.278 197.918,261.778 197.5,262.5C 193.167,262.5 188.833,262.5 184.5,262.5C 184.18,259.102 184.513,255.768 185.5,252.5C 188.406,251.913 190.072,250.246 190.5,247.5C 192.848,247.408 194.514,246.408 195.5,244.5C 197.604,244.799 199.604,244.466 201.5,243.5C 202.768,241.953 204.435,240.953 206.5,240.5C 207.386,239.675 207.719,238.675 207.5,237.5C 210.857,237.784 213.191,236.451 214.5,233.5C 217.857,233.784 220.191,232.451 221.5,229.5C 224.127,228.895 226.793,228.395 229.5,228C 232.578,224.375 236.411,221.875 241,220.5C 241.772,220.645 242.439,220.978 243,221.5C 243.271,219.576 244.104,217.576 245.5,215.5C 252.401,215.45 257.401,212.45 260.5,206.5C 262.848,206.408 264.514,205.408 265.5,203.5C 268.368,203.915 270.535,202.915 272,200.5C 272.833,188.486 272.666,176.486 271.5,164.5C 270.893,164.624 270.56,164.957 270.5,165.5C 270.167,165.5 269.833,165.5 269.5,165.5C 266.564,166.406 263.564,167.072 260.5,167.5C 260.5,168.5 260.5,169.5 260.5,170.5C 258.833,170.5 257.167,170.5 255.5,170.5C 255.5,171.833 255.5,173.167 255.5,174.5C 255.029,176.579 254.363,178.579 253.5,180.5C 251.333,181.646 250,183.479 249.5,186C 248.551,186.617 247.718,186.451 247,185.5C 246.251,193.023 242.418,198.023 235.5,200.5C 235.5,201.833 235.5,203.167 235.5,204.5C 232.122,203.891 230.122,205.224 229.5,208.5C 229.167,208.5 228.833,208.5 228.5,208.5C 226.708,208.366 225.042,208.699 223.5,209.5C 214.913,210.296 206.913,208.629 199.5,204.5C 200.791,202.41 200.124,201.076 197.5,200.5C 197.045,195.348 196.711,190.182 196.5,185C 197.14,178.1 198.14,171.267 199.5,164.5C 199.5,164.167 199.5,163.833 199.5,163.5C 200.906,163.027 201.573,162.027 201.5,160.5C 202.583,160.461 203.583,160.127 204.5,159.5C 208.773,153.544 213.106,147.544 217.5,141.5C 219.147,139.674 221.147,138.34 223.5,137.5C 227.897,137.257 232.23,136.59 236.5,135.5C 239.817,136.053 243.15,136.386 246.5,136.5C 247.038,138.117 247.371,139.784 247.5,141.5C 250.656,142.551 253.656,142.551 256.5,141.5C 259.739,141.587 262.739,140.92 265.5,139.5C 265.5,138.5 265.5,137.5 265.5,136.5C 270.916,136.803 273.916,134.303 274.5,129C 273.142,122.596 273.475,116.263 275.5,110C 274.394,108.142 273.394,106.308 272.5,104.5C 272.884,101.104 274.218,98.1042 276.5,95.5 Z"/></g>
<g><path style="opacity:1" fill="#4e6ea0" d="M 390.5,103.5 C 391.504,108.768 389.837,112.768 385.5,115.5C 386.655,111.203 388.321,107.203 390.5,103.5 Z"/></g>
<g><path style="opacity:0.993" fill="#405e8d" d="M 343.5,84.5 C 343.173,93.6822 343.507,102.682 344.5,111.5C 344.334,116.844 344.501,122.177 345,127.5C 347.041,128.423 349.208,128.756 351.5,128.5C 351.5,122.167 351.5,115.833 351.5,109.5C 357.477,108.859 363.477,108.359 369.5,108C 370.38,106.644 370.714,105.144 370.5,103.5C 364.974,103.821 359.64,103.488 354.5,102.5C 360.5,102.5 366.5,102.5 372.5,102.5C 372.5,105.167 372.5,107.833 372.5,110.5C 366.5,110.5 360.5,110.5 354.5,110.5C 354.666,116.842 354.5,123.175 354,129.5C 350.066,130.821 346.233,130.821 342.5,129.5C 342.171,114.324 342.504,99.324 343.5,84.5 Z"/></g>
<g><path style="opacity:1" fill="#335890" d="M 468.5,84.5 C 473.416,85.086 476.416,87.7527 477.5,92.5C 477.784,94.4147 477.451,96.0813 476.5,97.5C 476.799,95.396 476.466,93.396 475.5,91.5C 472.089,90.91 469.089,89.5767 466.5,87.5C 466.389,86.8826 466.056,86.3826 465.5,86C 461.848,85.5014 458.182,85.3347 454.5,85.5C 451.07,85.1065 447.904,85.7732 445,87.5C 444.333,100.833 444.333,114.167 445,127.5C 453.421,128.649 461.921,128.816 470.5,128C 472.867,125.92 475.533,124.42 478.5,123.5C 478.665,120.15 478.498,116.817 478,113.5C 474.715,115.275 471.882,116.942 469.5,118.5C 469.606,115.921 468.939,113.588 467.5,111.5C 468.735,111.721 469.735,112.388 470.5,113.5C 474.38,113.29 476.047,111.29 475.5,107.5C 475.833,107.5 476.167,107.5 476.5,107.5C 478.844,108.347 480.344,110.014 481,112.5C 483.4,123.603 478.9,129.269 467.5,129.5C 459.5,129.5 451.5,129.5 443.5,129.5C 443.5,114.5 443.5,99.5 443.5,84.5C 451.833,84.5 460.167,84.5 468.5,84.5 Z M 463.5,110.5 C 464.833,110.833 466.167,111.167 467.5,111.5C 468.939,113.588 469.606,115.921 469.5,118.5C 468.373,119.122 467.373,119.955 466.5,121C 462.514,121.499 458.514,121.666 454.5,121.5C 454.792,118.624 454.792,115.957 454.5,113.5C 455.404,112.791 455.737,111.791 455.5,110.5C 458.167,110.5 460.833,110.5 463.5,110.5 Z"/></g>
<g><path style="opacity:0.243" fill="#c4d3ec" d="M 463.5,110.5 C 460.833,110.5 458.167,110.5 455.5,110.5C 455.737,111.791 455.404,112.791 454.5,113.5C 454.5,112.167 454.5,110.833 454.5,109.5C 457.713,109.19 460.713,109.523 463.5,110.5 Z"/></g>
<g><path style="opacity:0.375" fill="#9fbde5" d="M 461.5,91.5 C 459.05,91.298 456.717,91.6314 454.5,92.5C 455.152,91.2749 456.319,90.6083 458,90.5C 459.385,90.5143 460.551,90.8476 461.5,91.5 Z"/></g>
<g><path style="opacity:1" fill="#4a6a9d" d="M 287.5,104.5 C 290.14,109.085 291.806,114.085 292.5,119.5C 291.59,117.981 290.757,116.315 290,114.5C 289.333,117.167 288.667,117.167 288,114.5C 287.502,111.183 287.335,107.85 287.5,104.5 Z"/></g>
<g><path style="opacity:1" fill="#21508e" d="M 561.5,112.5 C 563.167,112.5 564.833,112.5 566.5,112.5C 565.766,113.708 565.433,115.041 565.5,116.5C 568.5,116.5 571.5,116.5 574.5,116.5C 574.5,118.833 574.5,121.167 574.5,123.5C 575.822,123.33 576.989,123.663 578,124.5C 578.352,126.247 578.852,127.914 579.5,129.5C 578.5,129.5 577.5,129.5 576.5,129.5C 574.796,126.744 573.463,123.744 572.5,120.5C 566.25,118.541 559.584,117.874 552.5,118.5C 554.042,117.837 555.709,117.17 557.5,116.5C 556.41,115.391 556.41,114.391 557.5,113.5C 558.386,114.325 558.719,115.325 558.5,116.5C 561.954,116.733 562.954,115.4 561.5,112.5 Z"/></g>
<g><path style="opacity:1" fill="#3c5e96" d="M 415.5,93.5 C 419.736,102.314 423.736,111.314 427.5,120.5C 426.5,120.5 425.5,120.5 424.5,120.5C 424.912,116.212 423.245,115.545 419.5,118.5C 418.643,121.451 418.643,124.451 419.5,127.5C 419.5,128.167 419.5,128.833 419.5,129.5C 417.597,126.47 416.263,123.137 415.5,119.5C 409.021,118.509 402.354,118.176 395.5,118.5C 404.109,117.927 412.775,116.927 421.5,115.5C 421.662,113.473 421.495,111.473 421,109.5C 418.021,104.641 416.188,99.3081 415.5,93.5 Z"/></g>
<g><path style="opacity:0.373" fill="#91afd3" d="M 395.5,118.5 C 402.354,118.176 409.021,118.509 415.5,119.5C 408.8,119.17 402.134,119.503 395.5,120.5C 395.006,122.026 394.339,123.359 393.5,124.5C 393.025,121.918 393.692,119.918 395.5,118.5 Z"/></g>
<g><path style="opacity:1" fill="#104b99" d="M 427.5,120.5 C 429.531,127.842 426.865,130.175 419.5,127.5C 418.643,124.451 418.643,121.451 419.5,118.5C 423.245,115.545 424.912,116.212 424.5,120.5C 425.5,120.5 426.5,120.5 427.5,120.5 Z"/></g>
<g><path style="opacity:0.369" fill="#9abee3" d="M 552.5,119.5 C 552.5,119.167 552.5,118.833 552.5,118.5C 559.584,117.874 566.25,118.541 572.5,120.5C 565.922,119.54 559.255,119.207 552.5,119.5 Z"/></g>
<g><path style="opacity:0.896" fill="#375a8b" d="M 274.5,95.5 C 275.167,95.5 275.833,95.5 276.5,95.5C 274.218,98.1042 272.884,101.104 272.5,104.5C 272.666,113.506 272.5,122.506 272,131.5C 270.535,133.915 268.368,134.915 265.5,134.5C 267.355,133.31 269.188,131.977 271,130.5C 271.437,119.257 271.604,108.257 271.5,97.5C 273.027,97.573 274.027,96.9063 274.5,95.5 Z"/></g>
<g><path style="opacity:1" fill="#1c4e9a" d="M 561.5,112.5 C 562.954,115.4 561.954,116.733 558.5,116.5C 558.719,115.325 558.386,114.325 557.5,113.5C 556.41,114.391 556.41,115.391 557.5,116.5C 555.709,117.17 554.042,117.837 552.5,118.5C 552.5,118.833 552.5,119.167 552.5,119.5C 551.736,122.018 550.736,124.351 549.5,126.5C 547.971,127.347 546.304,128.014 544.5,128.5C 543.228,128.43 542.062,128.097 541,127.5C 541.151,123.157 541.651,118.823 542.5,114.5C 542.833,113.833 543.167,113.167 543.5,112.5C 544.376,112.631 545.043,112.298 545.5,111.5C 547.615,108 549.448,104.333 551,100.5C 551,103.167 551,105.833 551,108.5C 551.915,107.672 552.581,106.672 553,105.5C 554.08,107.553 554.914,109.72 555.5,112C 557.473,112.495 559.473,112.662 561.5,112.5 Z"/></g>
<g><path style="opacity:0.601" fill="#a7abc7" d="M 85.5,97.5 C 86.3325,131.331 86.8325,165.331 87,199.5C 95.9442,204.719 104.777,210.052 113.5,215.5C 113.5,215.833 113.5,216.167 113.5,216.5C 113.44,217.043 113.107,217.376 112.5,217.5C 110.754,215.146 108.421,214.146 105.5,214.5C 105.5,213.5 105.5,212.5 105.5,211.5C 102.428,211.817 99.4281,211.484 96.5,210.5C 97.4286,208.678 96.7619,207.345 94.5,206.5C 91.8434,205.741 89.1767,205.074 86.5,204.5C 85.5067,199.88 85.1734,195.214 85.5,190.5C 85.5,159.5 85.5,128.5 85.5,97.5 Z"/></g>
<g><path style="opacity:1" fill="#446091" d="M 581.5,114.5 C 584.284,118.405 586.284,122.738 587.5,127.5C 587.5,128.833 586.833,129.5 585.5,129.5C 583.162,124.831 581.829,119.831 581.5,114.5 Z"/></g>
<g><path style="opacity:1" fill="#144a8f" d="M 496.5,84.5 C 499.833,84.5 503.167,84.5 506.5,84.5C 506.5,96.5 506.5,108.5 506.5,120.5C 512.979,121.491 519.646,121.824 526.5,121.5C 526.5,123.833 526.5,126.167 526.5,128.5C 516.5,128.5 506.5,128.5 496.5,128.5C 496.5,126.833 496.5,125.167 496.5,123.5C 498.283,124.114 499.616,125.28 500.5,127C 508.507,127.231 516.507,126.897 524.5,126C 523.167,125.333 523.167,124.667 524.5,124C 523.5,123.667 522.5,123.333 521.5,123C 515.917,122.809 510.417,122.309 505,121.5C 504.5,109.838 504.333,98.1714 504.5,86.5C 502.167,86.5 499.833,86.5 497.5,86.5C 497.828,97.6794 497.495,108.679 496.5,119.5C 496.5,107.833 496.5,96.1667 496.5,84.5 Z"/></g>
<g><path style="opacity:0.972" fill="#8a8eb6" d="M 81.5,96.5 C 82.8333,96.8333 84.1667,97.1667 85.5,97.5C 85.5,128.5 85.5,159.5 85.5,190.5C 84.6676,161.003 84.1676,131.336 84,101.5C 83.1534,99.8068 82.3201,98.1401 81.5,96.5 Z"/></g>
<g><path style="opacity:0.935" fill="#395888" d="M 385.5,115.5 C 385.091,119.876 384.425,124.21 383.5,128.5C 385.527,128.662 387.527,128.495 389.5,128C 390.337,126.989 390.67,125.822 390.5,124.5C 391.5,124.5 392.5,124.5 393.5,124.5C 393.107,126.284 392.441,127.95 391.5,129.5C 387.774,129.823 384.107,129.489 380.5,128.5C 381.127,127.583 381.461,126.583 381.5,125.5C 382.263,121.863 383.597,118.53 385.5,115.5 Z"/></g>
<g><path style="opacity:0.918" fill="#345385" d="M 427.5,120.5 C 428.736,122.649 429.736,124.982 430.5,127.5C 427.316,129.414 423.649,130.08 419.5,129.5C 419.5,128.833 419.5,128.167 419.5,127.5C 426.865,130.175 429.531,127.842 427.5,120.5 Z"/></g>
<g><path style="opacity:0.925" fill="#506c97" d="M 495.5,84.5 C 495.833,84.5 496.167,84.5 496.5,84.5C 496.5,96.1667 496.5,107.833 496.5,119.5C 496.5,120.833 496.5,122.167 496.5,123.5C 496.5,125.167 496.5,126.833 496.5,128.5C 506.5,128.5 516.5,128.5 526.5,128.5C 526.5,126.167 526.5,123.833 526.5,121.5C 519.646,121.824 512.979,121.491 506.5,120.5C 513.5,120.5 520.5,120.5 527.5,120.5C 527.5,123.5 527.5,126.5 527.5,129.5C 517.013,130.494 506.346,130.828 495.5,130.5C 495.5,115.167 495.5,99.8333 495.5,84.5 Z"/></g>
<g><path style="opacity:0.984" fill="#3c5c8e" d="M 542.5,114.5 C 541.651,118.823 541.151,123.157 541,127.5C 542.062,128.097 543.228,128.43 544.5,128.5C 546.304,128.014 547.971,127.347 549.5,126.5C 549.443,127.609 549.11,128.609 548.5,129.5C 544.833,129.5 541.167,129.5 537.5,129.5C 537.5,128.5 537.5,127.5 537.5,126.5C 538.655,122.203 540.321,118.203 542.5,114.5 Z"/></g>
<g><path style="opacity:0.055" fill="#cfdeed" d="M 381.5,125.5 C 381.461,126.583 381.127,127.583 380.5,128.5C 384.107,129.489 387.774,129.823 391.5,129.5C 387.689,130.645 383.689,130.812 379.5,130C 378.833,128.143 379.5,126.643 381.5,125.5 Z"/></g>
<g><path style="opacity:0.063" fill="#ddecf8" d="M 430.5,127.5 C 431.404,128.209 431.737,129.209 431.5,130.5C 427.298,130.817 423.298,130.483 419.5,129.5C 423.649,130.08 427.316,129.414 430.5,127.5 Z"/></g>
<g><path style="opacity:0.047" fill="#dbedf6" d="M 537.5,126.5 C 537.5,127.5 537.5,128.5 537.5,129.5C 541.167,129.5 544.833,129.5 548.5,129.5C 544.702,130.483 540.702,130.817 536.5,130.5C 536.232,128.901 536.566,127.568 537.5,126.5 Z"/></g>
<g><path style="opacity:0.047" fill="#e3f6fc" d="M 587.5,127.5 C 588.404,128.209 588.737,129.209 588.5,130.5C 584.298,130.817 580.298,130.483 576.5,129.5C 577.5,129.5 578.5,129.5 579.5,129.5C 581.5,129.5 583.5,129.5 585.5,129.5C 586.833,129.5 587.5,128.833 587.5,127.5 Z"/></g>
<g><path style="opacity:1" fill="#697fa3" d="M 246.5,136.5 C 243.15,136.386 239.817,136.053 236.5,135.5C 232.23,136.59 227.897,137.257 223.5,137.5C 231.037,132.849 238.704,132.515 246.5,136.5 Z"/></g>
<g><path style="opacity:1" fill="#a2a7c6" d="M 127.5,135.5 C 123.395,135.234 119.395,135.734 115.5,137C 116.833,137.667 116.833,138.333 115.5,139C 113.754,139.471 112.087,140.138 110.5,141C 107.467,143.632 104.801,146.465 102.5,149.5C 107.021,137.745 115.354,133.078 127.5,135.5 Z"/></g>
<g><path style="opacity:1" fill="#848dc3" d="M 81.5,96.5 C 82.3201,98.1401 83.1534,99.8068 84,101.5C 84.1676,131.336 84.6676,161.003 85.5,190.5C 85.1734,195.214 85.5067,199.88 86.5,204.5C 89.1767,205.074 91.8434,205.741 94.5,206.5C 96.7619,207.345 97.4286,208.678 96.5,210.5C 99.4281,211.484 102.428,211.817 105.5,211.5C 105.5,212.5 105.5,213.5 105.5,214.5C 108.421,214.146 110.754,215.146 112.5,217.5C 113.107,217.376 113.44,217.043 113.5,216.5C 114.167,216.5 114.833,216.5 115.5,216.5C 116.993,215.688 117.66,214.355 117.5,212.5C 116.627,206.198 116.294,199.865 116.5,193.5C 114.897,193.688 113.563,193.188 112.5,192C 112.833,191.667 113.167,191.333 113.5,191C 105.108,178.916 101.441,165.416 102.5,150.5C 102.5,150.167 102.5,149.833 102.5,149.5C 104.801,146.465 107.467,143.632 110.5,141C 112.087,140.138 113.754,139.471 115.5,139C 116.833,138.333 116.833,137.667 115.5,137C 119.395,135.734 123.395,135.234 127.5,135.5C 127.833,135.5 128.167,135.5 128.5,135.5C 127.15,136.824 127.317,137.824 129,138.5C 133.66,139.746 138.16,141.08 142.5,142.5C 144.23,143.026 145.564,144.026 146.5,145.5C 147.511,147.372 148.345,149.372 149,151.5C 151.528,153.99 154.028,156.323 156.5,158.5C 158.27,163.837 160.103,169.17 162,174.5C 162.667,181.167 162.667,187.833 162,194.5C 160.097,197.171 159.264,200.171 159.5,203.5C 158.127,203.343 156.793,203.51 155.5,204C 154.636,205.697 153.303,206.863 151.5,207.5C 150.614,208.325 150.281,209.325 150.5,210.5C 149.883,210.611 149.383,210.944 149,211.5C 148.333,220.833 148.333,230.167 149,239.5C 152.284,240.642 155.284,242.309 158,244.5C 159.766,245.233 161.599,245.567 163.5,245.5C 163.511,247.017 164.177,248.184 165.5,249C 164.044,249.423 163.544,250.256 164,251.5C 166,250.167 168,250.167 170,251.5C 171.043,254.757 171.543,258.09 171.5,261.5C 167.759,262.401 165.759,261.068 165.5,257.5C 162.678,257.678 160.011,258.345 157.5,259.5C 154.448,258.986 151.448,258.32 148.5,257.5C 144.334,256.614 140.167,255.614 136,254.5C 133.633,251.724 130.8,249.724 127.5,248.5C 121.861,247.001 116.527,245.001 111.5,242.5C 109.728,238.077 106.395,235.411 101.5,234.5C 98.684,231.546 96.3507,228.212 94.5,224.5C 88.6754,221.096 85.3421,216.096 84.5,209.5C 82.7085,209.634 81.0418,209.301 79.5,208.5C 79.6107,207.883 79.944,207.383 80.5,207C 77.3576,202.45 74.6909,197.617 72.5,192.5C 72.0431,191.702 71.3764,191.369 70.5,191.5C 68.406,183.739 67.0727,175.739 66.5,167.5C 65.8076,166.975 65.3076,166.308 65,165.5C 64.3333,152.833 64.3333,140.167 65,127.5C 67.0801,122.37 67.9134,117.037 67.5,111.5C 71.3524,106.786 74.1857,101.453 76,95.5C 78.0081,93.372 79.8414,93.7053 81.5,96.5 Z"/></g>
<g><path style="opacity:1" fill="#9ea4c2" d="M 128.5,135.5 C 134.006,136.325 138.673,138.658 142.5,142.5C 138.16,141.08 133.66,139.746 129,138.5C 127.317,137.824 127.15,136.824 128.5,135.5 Z"/></g>
<g><path style="opacity:0.984" fill="#446597" d="M 246.5,136.5 C 248.571,137.954 250.738,139.287 253,140.5C 254.138,140.011 255.305,139.678 256.5,139.5C 255.494,140.396 255.494,141.062 256.5,141.5C 253.656,142.551 250.656,142.551 247.5,141.5C 247.371,139.784 247.038,138.117 246.5,136.5 Z"/></g>
<g><path style="opacity:1" fill="#9fa3c4" d="M 67.5,111.5 C 67.9134,117.037 67.0801,122.37 65,127.5C 64.3333,140.167 64.3333,152.833 65,165.5C 65.3076,166.308 65.8076,166.975 66.5,167.5C 67.0727,175.739 68.406,183.739 70.5,191.5C 59.7838,165.181 58.7838,138.514 67.5,111.5 Z"/></g>
<g><path style="opacity:1" fill="#3a5e9b" d="M 278.5,95.5 C 279.919,94.5489 281.585,94.2155 283.5,94.5C 285.346,97.54 286.679,100.873 287.5,104.5C 287.335,107.85 287.502,111.183 288,114.5C 288.667,117.167 289.333,117.167 290,114.5C 290.757,116.315 291.59,117.981 292.5,119.5C 296.793,135.32 297.459,151.32 294.5,167.5C 293.883,167.611 293.383,167.944 293,168.5C 292.505,170.473 292.338,172.473 292.5,174.5C 291.748,179.411 290.415,184.078 288.5,188.5C 287.662,188.158 287.328,187.492 287.5,186.5C 289.51,178.925 291.01,171.258 292,163.5C 292.208,157.449 292.708,151.449 293.5,145.5C 292.16,144.312 291.493,142.812 291.5,141C 292.536,135.861 292.703,130.695 292,125.5C 290.324,126.061 288.991,127.061 288,128.5C 287.812,126.524 287.979,124.524 288.5,122.5C 287.191,113.31 285.191,104.31 282.5,95.5C 281.167,95.5 279.833,95.5 278.5,95.5 Z"/></g>
<g><path style="opacity:1" fill="#a8abca" d="M 146.5,145.5 C 149.78,148.043 152.613,151.043 155,154.5C 155.791,155.745 156.291,157.078 156.5,158.5C 154.028,156.323 151.528,153.99 149,151.5C 148.345,149.372 147.511,147.372 146.5,145.5 Z"/></g>
<g><path style="opacity:1" fill="#3b5d94" d="M 217.5,141.5 C 213.106,147.544 208.773,153.544 204.5,159.5C 203.583,160.127 202.583,160.461 201.5,160.5C 204.725,152.379 210.058,146.045 217.5,141.5 Z"/></g>
<g><path style="opacity:1" fill="#375b9b" d="M 522.5,159.5 C 516.5,160.833 514.167,158.5 515.5,152.5C 519.461,149.357 522.461,150.024 524.5,154.5C 523.453,156.056 522.786,157.723 522.5,159.5 Z"/></g>
<g><path style="opacity:0.886" fill="#798db1" d="M 522.5,159.5 C 522.786,157.723 523.453,156.056 524.5,154.5C 522.461,150.024 519.461,149.357 515.5,152.5C 516.673,149.246 519.006,148.08 522.5,149C 527.817,152.777 527.817,156.277 522.5,159.5 Z"/></g>
<g><path style="opacity:0.341" fill="#b2c2de" d="M 201.5,160.5 C 201.573,162.027 200.906,163.027 199.5,163.5C 199.427,161.973 200.094,160.973 201.5,160.5 Z"/></g>
<g><path style="opacity:0.013" fill="#fefefe" d="M 460.5,164.5 C 474.339,163.174 488.339,163.174 502.5,164.5C 502.376,165.107 502.043,165.44 501.5,165.5C 488.01,164.504 474.344,164.171 460.5,164.5 Z"/></g>
<g><path style="opacity:0.882" fill="#3d5b84" d="M 460.5,164.5 C 474.344,164.171 488.01,164.504 501.5,165.5C 501.573,167.027 500.906,168.027 499.5,168.5C 498.833,167.833 498.167,167.167 497.5,166.5C 485.678,165.505 473.678,165.172 461.5,165.5C 461.5,167.833 461.5,170.167 461.5,172.5C 468.687,172.175 475.687,172.509 482.5,173.5C 474.833,173.5 467.167,173.5 459.5,173.5C 459.19,170.287 459.523,167.287 460.5,164.5 Z"/></g>
<g><path style="opacity:0.91" fill="#6d84a7" d="M 574.5,172.5 C 571.903,171.068 570.237,168.901 569.5,166C 565.413,165.238 561.413,165.404 557.5,166.5C 557.414,165.504 557.748,164.671 558.5,164C 562.5,163.333 566.5,163.333 570.5,164C 571.939,166.833 573.272,169.666 574.5,172.5 Z"/></g>
<g><path style="opacity:0.867" fill="#7084a2" d="M 706.5,173.5 C 701.167,173.5 695.833,173.5 690.5,173.5C 695.305,172.513 700.305,172.179 705.5,172.5C 705.5,170.167 705.5,167.833 705.5,165.5C 691.5,165.5 677.5,165.5 663.5,165.5C 663.279,168.279 663.612,170.946 664.5,173.5C 663.833,173.5 663.167,173.5 662.5,173.5C 661.182,170.435 661.182,167.269 662.5,164C 677.163,163.5 691.83,163.333 706.5,163.5C 706.5,166.833 706.5,170.167 706.5,173.5 Z"/></g>
<g><path style="opacity:0.886" fill="#6e82a0" d="M 733.5,172.5 C 732.5,172.5 731.5,172.5 730.5,172.5C 736.319,171.672 742.319,171.172 748.5,171C 749.406,169.301 749.739,167.467 749.5,165.5C 739.794,165.245 730.127,165.579 720.5,166.5C 720.167,166.5 719.833,166.5 719.5,166.5C 719.5,165.833 719.5,165.167 719.5,164.5C 729.658,163.341 739.992,163.175 750.5,164C 751.943,167.278 751.776,170.444 750,173.5C 744.593,172.527 739.093,172.193 733.5,172.5 Z"/></g>
<g><path style="opacity:0.031" fill="#c4dae5" d="M 415.5,164.5 C 415.34,166.153 414.674,167.486 413.5,168.5C 413.229,166.62 413.896,165.287 415.5,164.5 Z"/></g>
<g><path style="opacity:0.091" fill="#d4e3f8" d="M 602.5,164.5 C 601.85,179.871 602.516,194.871 604.5,209.5C 606.5,209.5 608.5,209.5 610.5,209.5C 611.5,209.5 612.5,209.5 613.5,209.5C 609.702,210.483 605.702,210.817 601.5,210.5C 601.17,194.991 601.504,179.658 602.5,164.5 Z"/></g>
<g><path style="opacity:0.839" fill="#839bb9" d="M 294.5,167.5 C 294.279,170.067 293.612,172.401 292.5,174.5C 292.338,172.473 292.505,170.473 293,168.5C 293.383,167.944 293.883,167.611 294.5,167.5 Z"/></g>
<g><path style="opacity:0.992" fill="#436495" d="M 351.5,167.5 C 350.54,171.793 347.873,174.46 343.5,175.5C 344.5,171.167 347.167,168.5 351.5,167.5 Z"/></g>
<g><path style="opacity:0.976" fill="#375c97" d="M 383.5,167.5 C 384.036,170.698 383.369,173.365 381.5,175.5C 379.421,175.029 377.421,174.363 375.5,173.5C 371.702,172.517 367.702,172.183 363.5,172.5C 366.701,170.74 370.367,169.906 374.5,170C 375.759,169.077 377.092,168.243 378.5,167.5C 369.436,165.064 360.436,165.064 351.5,167.5C 352.058,166.21 353.058,165.377 354.5,165C 362.833,163 371.167,163 379.5,165C 381.32,165.2 382.653,166.034 383.5,167.5 Z"/></g>
<g><path style="opacity:0.141" fill="#d0dcec" d="M 383.5,167.5 C 384.477,170.287 384.81,173.287 384.5,176.5C 383.209,176.737 382.209,176.404 381.5,175.5C 383.369,173.365 384.036,170.698 383.5,167.5 Z"/></g>
<g><path style="opacity:1" fill="#6882ae" d="M 269.5,165.5 C 265.21,168.985 260.543,171.985 255.5,174.5C 255.5,173.167 255.5,171.833 255.5,170.5C 257.167,170.5 258.833,170.5 260.5,170.5C 260.5,169.5 260.5,168.5 260.5,167.5C 263.564,167.072 266.564,166.406 269.5,165.5 Z"/></g>
<g><path style="opacity:0.9" fill="#49638b" d="M 615.5,167.5 C 613.213,167.276 611.047,166.609 609,165.5C 607.237,165.975 605.57,166.642 604,167.5C 603.186,181.575 603.352,195.575 604.5,209.5C 602.516,194.871 601.85,179.871 602.5,164.5C 605.64,163.359 608.973,163.192 612.5,164C 613.71,165.039 614.71,166.206 615.5,167.5 Z"/></g>
<g><path style="opacity:1" fill="#7086b2" d="M 363.5,172.5 C 367.702,172.183 371.702,172.517 375.5,173.5C 370.821,173.334 366.155,173.501 361.5,174C 357.639,175.396 354.972,177.896 353.5,181.5C 353.558,178.336 354.224,175.336 355.5,172.5C 358.167,172.5 360.833,172.5 363.5,172.5 Z"/></g>
<g><path style="opacity:0.037" fill="#e2fdfe" d="M 459.5,173.5 C 467.167,173.5 474.833,173.5 482.5,173.5C 482.5,174.167 482.5,174.833 482.5,175.5C 482.167,175.5 481.833,175.5 481.5,175.5C 474.167,174.833 466.833,174.167 459.5,173.5 Z"/></g>
<g><path style="opacity:0.013" fill="#f7fbfe" d="M 662.5,173.5 C 663.167,173.5 663.833,173.5 664.5,173.5C 669.167,173.5 673.833,173.5 678.5,173.5C 678.5,185.5 678.5,197.5 678.5,209.5C 678.5,209.833 678.5,210.167 678.5,210.5C 677.505,198.678 677.172,186.678 677.5,174.5C 672.305,174.821 667.305,174.487 662.5,173.5 Z"/></g>
<g><path style="opacity:1" fill="#0d4c99" d="M 690.5,173.5 C 690.167,173.5 689.833,173.5 689.5,173.5C 688.669,184.659 688.169,195.993 688,207.5C 685.667,208.833 683.333,208.833 681,207.5C 681.149,195.789 680.316,184.456 678.5,173.5C 673.833,173.5 669.167,173.5 664.5,173.5C 663.612,170.946 663.279,168.279 663.5,165.5C 677.5,165.5 691.5,165.5 705.5,165.5C 705.5,167.833 705.5,170.167 705.5,172.5C 700.305,172.179 695.305,172.513 690.5,173.5 Z"/></g>
<g><path style="opacity:0.302" fill="#bacce6" d="M 689.5,173.5 C 689.833,173.5 690.167,173.5 690.5,173.5C 695.833,173.5 701.167,173.5 706.5,173.5C 701.36,174.488 696.026,174.821 690.5,174.5C 690.5,186.5 690.5,198.5 690.5,210.5C 686.5,210.5 682.5,210.5 678.5,210.5C 678.5,210.167 678.5,209.833 678.5,209.5C 682.167,209.5 685.833,209.5 689.5,209.5C 689.5,197.5 689.5,185.5 689.5,173.5 Z"/></g>
<g><path style="opacity:0.901" fill="#44608c" d="M 801.5,173.5 C 801.802,176.059 801.468,178.393 800.5,180.5C 800.5,179.167 800.5,177.833 800.5,176.5C 799.5,176.5 798.5,176.5 797.5,176.5C 797.328,174.508 797.995,172.842 799.5,171.5C 797.834,170.053 796.001,168.719 794,167.5C 785.208,166.542 776.375,166.208 767.5,166.5C 767.5,180.5 767.5,194.5 767.5,208.5C 770.249,208.726 772.916,208.393 775.5,207.5C 776.495,201.872 776.829,196.206 776.5,190.5C 780.457,190.992 784.123,190.325 787.5,188.5C 790.443,189.975 793.109,189.642 795.5,187.5C 797.698,187.409 798.031,188.075 796.5,189.5C 795.22,190.931 793.553,191.598 791.5,191.5C 786.833,191.5 782.167,191.5 777.5,191.5C 777.5,197.5 777.5,203.5 777.5,209.5C 773.833,209.5 770.167,209.5 766.5,209.5C 766.5,194.5 766.5,179.5 766.5,164.5C 775.378,163.142 784.378,163.309 793.5,165C 797.785,166.447 800.452,169.281 801.5,173.5 Z"/></g>
<g><path style="opacity:1" fill="#1f477e" d="M 678.5,173.5 C 680.316,184.456 681.149,195.789 681,207.5C 683.333,208.833 685.667,208.833 688,207.5C 688.169,195.993 688.669,184.659 689.5,173.5C 689.5,185.5 689.5,197.5 689.5,209.5C 685.833,209.5 682.167,209.5 678.5,209.5C 678.5,197.5 678.5,185.5 678.5,173.5 Z"/></g>
<g><path style="opacity:0.329" fill="#a9b8d5" d="M 343.5,175.5 C 343.573,177.027 342.906,178.027 341.5,178.5C 341.427,176.973 342.094,175.973 343.5,175.5 Z"/></g>
<g><path style="opacity:1" fill="#51709c" d="M 481.5,175.5 C 481.833,175.5 482.167,175.5 482.5,175.5C 481.166,179.34 478.833,182.34 475.5,184.5C 477.265,181.291 479.265,178.291 481.5,175.5 Z"/></g>
<g><path style="opacity:0.925" fill="#637aa8" d="M 497.5,166.5 C 498.167,167.167 498.833,167.833 499.5,168.5C 496.883,173.114 493.883,177.447 490.5,181.5C 492.19,177.628 493.523,173.628 494.5,169.5C 495.5,169.5 496.5,169.5 497.5,169.5C 497.5,168.5 497.5,167.5 497.5,166.5 Z"/></g>
<g><path style="opacity:1" fill="#134c97" d="M 615.5,167.5 C 616.5,167.833 617.167,168.5 617.5,169.5C 618.08,171.749 619.413,173.415 621.5,174.5C 621.801,178.035 623.635,180.368 627,181.5C 627.49,182.793 627.657,184.127 627.5,185.5C 628.833,185.5 630.167,185.5 631.5,185.5C 632.833,186.167 633.833,187.167 634.5,188.5C 634.942,191.332 636.275,192.332 638.5,191.5C 639.493,183.016 639.826,174.349 639.5,165.5C 642.167,165.5 644.833,165.5 647.5,165.5C 647.833,179.516 647.499,193.516 646.5,207.5C 644.161,208.724 641.828,208.724 639.5,207.5C 638.516,205.52 637.183,203.853 635.5,202.5C 635.709,201.914 636.043,201.414 636.5,201C 634.134,200.56 631.801,200.06 629.5,199.5C 628.167,198.833 627.167,197.833 626.5,196.5C 625.864,194.205 624.531,192.539 622.5,191.5C 620.833,190.5 619.5,189.167 618.5,187.5C 618.532,185.381 617.532,184.048 615.5,183.5C 614.833,183.5 614.167,183.5 613.5,183.5C 612.653,190.752 612.153,198.752 612,207.5C 611.283,208.044 610.783,208.711 610.5,209.5C 608.5,209.5 606.5,209.5 604.5,209.5C 603.352,195.575 603.186,181.575 604,167.5C 605.57,166.642 607.237,165.975 609,165.5C 611.047,166.609 613.213,167.276 615.5,167.5 Z"/></g>
<g><path style="opacity:1" fill="#5977a4" d="M 621.5,174.5 C 625.544,177.543 628.877,181.209 631.5,185.5C 630.167,185.5 628.833,185.5 627.5,185.5C 627.657,184.127 627.49,182.793 627,181.5C 623.635,180.368 621.801,178.035 621.5,174.5 Z"/></g>
<g><path style="opacity:0.678" fill="#aabcce" d="M 617.5,169.5 C 619.587,170.585 620.92,172.251 621.5,174.5C 619.413,173.415 618.08,171.749 617.5,169.5 Z"/></g>
<g><path style="opacity:1" fill="#4e6c9c" d="M 445.5,204.5 C 445.286,206.144 445.62,207.644 446.5,209C 442.848,209.499 439.182,209.665 435.5,209.5C 434.833,208.167 434.167,206.833 433.5,205.5C 436.636,208.055 440.303,209.055 444.5,208.5C 444.776,205.148 443.609,202.481 441,200.5C 439.188,193.163 436.188,186.497 432,180.5C 431.667,178.167 431.333,175.833 431,173.5C 430.667,173.833 430.333,174.167 430,174.5C 428.663,166.823 424.163,164.323 416.5,167C 413.827,172.434 411.327,177.934 409,183.5C 408.329,184.252 407.496,184.586 406.5,184.5C 408.802,179.183 411.136,173.85 413.5,168.5C 414.674,167.486 415.34,166.153 415.5,164.5C 419.566,163.178 423.733,163.178 428,164.5C 434.131,177.733 439.964,191.067 445.5,204.5 Z"/></g>
<g><path style="opacity:1" fill="#506da1" d="M 574.5,172.5 C 576.679,176.203 578.345,180.203 579.5,184.5C 578.272,183.694 577.272,182.694 576.5,181.5C 575.883,181.389 575.383,181.056 575,180.5C 574.503,177.854 574.336,175.187 574.5,172.5 Z"/></g>
<g><path style="opacity:0.082" fill="#d9f0ff" d="M 730.5,172.5 C 731.5,172.5 732.5,172.5 733.5,172.5C 731.242,175.569 730.908,178.902 732.5,182.5C 730.598,179.663 729.931,176.329 730.5,172.5 Z"/></g>
<g><path style="opacity:0.992" fill="#a1a5c4" d="M 102.5,150.5 C 101.441,165.416 105.108,178.916 113.5,191C 113.167,191.333 112.833,191.667 112.5,192C 113.563,193.188 114.897,193.688 116.5,193.5C 116.294,199.865 116.627,206.198 117.5,212.5C 117.66,214.355 116.993,215.688 115.5,216.5C 115.825,209.313 115.491,202.313 114.5,195.5C 102.704,182.464 98.7039,167.464 102.5,150.5 Z"/></g>
<g><path style="opacity:1" fill="#134c99" d="M 433.5,205.5 C 433.5,205.167 433.5,204.833 433.5,204.5C 433.5,202.5 433.5,200.5 433.5,198.5C 425.757,197.87 418.424,198.537 411.5,200.5C 411.737,201.791 411.404,202.791 410.5,203.5C 409.5,203.5 408.5,203.5 407.5,203.5C 406.896,208.152 404.23,209.652 399.5,208C 398.748,207.329 398.414,206.496 398.5,205.5C 399.719,203.058 401.219,200.724 403,198.5C 403.497,196.19 403.663,193.857 403.5,191.5C 404.397,192.598 405.23,192.598 406,191.5C 407.06,189.05 407.227,186.717 406.5,184.5C 407.496,184.586 408.329,184.252 409,183.5C 411.327,177.934 413.827,172.434 416.5,167C 424.163,164.323 428.663,166.823 430,174.5C 430.333,174.167 430.667,173.833 431,173.5C 431.333,175.833 431.667,178.167 432,180.5C 436.188,186.497 439.188,193.163 441,200.5C 443.609,202.481 444.776,205.148 444.5,208.5C 440.303,209.055 436.636,208.055 433.5,205.5 Z M 426.5,187.5 C 426.328,188.492 426.662,189.158 427.5,189.5C 423.971,191.423 419.971,192.089 415.5,191.5C 415.5,191.167 415.5,190.833 415.5,190.5C 416.931,189.22 417.598,187.553 417.5,185.5C 418.895,182.858 420.395,180.191 422,177.5C 423.232,181.061 424.732,184.394 426.5,187.5 Z"/></g>
<g><path style="opacity:0.961" fill="#6f88af" d="M 426.5,187.5 C 424.732,184.394 423.232,181.061 422,177.5C 420.395,180.191 418.895,182.858 417.5,185.5C 417.203,182.276 417.87,179.276 419.5,176.5C 420.689,175.571 422.022,175.238 423.5,175.5C 425.302,179.252 426.302,183.252 426.5,187.5 Z"/></g>
<g><path style="opacity:0.286" fill="#c9d9f0" d="M 515.5,164.5 C 515.5,179.5 515.5,194.5 515.5,209.5C 519.167,209.5 522.833,209.5 526.5,209.5C 526.5,194.5 526.5,179.5 526.5,164.5C 527.496,179.658 527.83,194.991 527.5,210.5C 523.167,210.5 518.833,210.5 514.5,210.5C 514.17,194.991 514.504,179.658 515.5,164.5 Z"/></g>
<g><path style="opacity:1" fill="#a3a7c5" d="M 156.5,158.5 C 159.69,162.214 161.857,166.547 163,171.5C 166.15,180.524 166.15,189.524 163,198.5C 162.303,200.584 161.136,202.251 159.5,203.5C 159.264,200.171 160.097,197.171 162,194.5C 162.667,187.833 162.667,181.167 162,174.5C 160.103,169.17 158.27,163.837 156.5,158.5 Z"/></g>
<g><path style="opacity:1" fill="#3b5e94" d="M 557.5,166.5 C 557.607,170.343 556.607,173.843 554.5,177C 555.233,178.766 555.567,180.599 555.5,182.5C 554.5,182.5 553.5,182.5 552.5,182.5C 551.972,185.688 550.305,188.021 547.5,189.5C 550.463,181.591 553.796,173.925 557.5,166.5 Z"/></g>
<g><path style="opacity:0.949" fill="#657ca1" d="M 801.5,173.5 C 803.057,178.255 802.557,182.921 800,187.5C 799.184,188.823 798.017,189.489 796.5,189.5C 798.031,188.075 797.698,187.409 795.5,187.5C 796.568,186.566 797.901,186.232 799.5,186.5C 799.517,184.435 799.85,182.435 800.5,180.5C 801.468,178.393 801.802,176.059 801.5,173.5 Z"/></g>
<g><path style="opacity:0.98" fill="#7992b7" d="M 615.5,183.5 C 617.532,184.048 618.532,185.381 618.5,187.5C 616.738,186.738 615.738,185.404 615.5,183.5 Z"/></g>
<g><path style="opacity:1" fill="#104b97" d="M 730.5,172.5 C 729.931,176.329 730.598,179.663 732.5,182.5C 732.833,182.5 733.167,182.5 733.5,182.5C 738.305,183.487 743.305,183.821 748.5,183.5C 748.5,185.5 748.5,187.5 748.5,189.5C 742.31,189.177 736.31,189.51 730.5,190.5C 730.5,194.5 730.5,198.5 730.5,202.5C 731.5,202.5 732.5,202.5 733.5,202.5C 738.975,203.489 744.642,203.822 750.5,203.5C 750.5,205.167 750.5,206.833 750.5,208.5C 740.5,208.5 730.5,208.5 720.5,208.5C 720.5,194.5 720.5,180.5 720.5,166.5C 730.127,165.579 739.794,165.245 749.5,165.5C 749.739,167.467 749.406,169.301 748.5,171C 742.319,171.172 736.319,171.672 730.5,172.5 Z"/></g>
<g><path style="opacity:1" fill="#5471a2" d="M 253.5,180.5 C 250.395,190.728 244.395,198.728 235.5,204.5C 235.5,203.167 235.5,201.833 235.5,200.5C 242.418,198.023 246.251,193.023 247,185.5C 247.718,186.451 248.551,186.617 249.5,186C 250,183.479 251.333,181.646 253.5,180.5 Z"/></g>
<g><path style="opacity:0.873" fill="#395e91" d="M 270.5,165.5 C 270.56,164.957 270.893,164.624 271.5,164.5C 272.666,176.486 272.833,188.486 272,200.5C 270.535,202.915 268.368,203.915 265.5,203.5C 267.355,202.31 269.188,200.977 271,199.5C 271.826,187.992 271.659,176.659 270.5,165.5 Z"/></g>
<g><path style="opacity:0.749" fill="#517099" d="M 384.5,186.5 C 379.167,186.5 373.833,186.5 368.5,186.5C 368.5,188.833 368.5,191.167 368.5,193.5C 368.167,193.5 367.833,193.5 367.5,193.5C 367.5,190.833 367.5,188.167 367.5,185.5C 373.93,185.167 379.597,185.5 384.5,186.5 Z"/></g>
<g><path style="opacity:1" fill="#4d6897" d="M 199.5,164.5 C 198.14,171.267 197.14,178.1 196.5,185C 196.711,190.182 197.045,195.348 197.5,200.5C 193.907,192.838 193.074,184.838 195,176.5C 195.905,172.163 197.405,168.163 199.5,164.5 Z"/></g>
<g><path style="opacity:0.949" fill="#7286a9" d="M 417.5,185.5 C 417.598,187.553 416.931,189.22 415.5,190.5C 415.077,188.219 415.744,186.552 417.5,185.5 Z"/></g>
<g><path style="opacity:0.471" fill="#9aaec5" d="M 475.5,184.5 C 475.573,186.027 474.906,187.027 473.5,187.5C 473.427,185.973 474.094,184.973 475.5,184.5 Z"/></g>
<g><path style="opacity:0.123" fill="#cedff6" d="M 766.5,164.5 C 766.5,179.5 766.5,194.5 766.5,209.5C 770.167,209.5 773.833,209.5 777.5,209.5C 777.5,203.5 777.5,197.5 777.5,191.5C 782.167,191.5 786.833,191.5 791.5,191.5C 787.366,192.485 783.032,192.818 778.5,192.5C 778.5,198.5 778.5,204.5 778.5,210.5C 774.167,210.5 769.833,210.5 765.5,210.5C 765.17,194.991 765.504,179.658 766.5,164.5 Z"/></g>
<g><path style="opacity:0.929" fill="#7c97b9" d="M 579.5,184.5 C 580.492,186.456 581.492,188.456 582.5,190.5C 580.025,189.313 579.025,187.313 579.5,184.5 Z"/></g>
<g><path style="opacity:0.447" fill="#a3b9d8" d="M 649.5,164.5 C 645.833,164.5 642.167,164.5 638.5,164.5C 638.5,173.5 638.5,182.5 638.5,191.5C 636.275,192.332 634.942,191.332 634.5,188.5C 635.458,188.953 636.292,189.619 637,190.5C 637.5,181.506 637.666,172.506 637.5,163.5C 641.702,163.183 645.702,163.517 649.5,164.5 Z"/></g>
<g><path style="opacity:1" fill="#124c99" d="M 497.5,166.5 C 497.5,167.5 497.5,168.5 497.5,169.5C 496.5,169.5 495.5,169.5 494.5,169.5C 493.523,173.628 492.19,177.628 490.5,181.5C 490.573,183.027 489.906,184.027 488.5,184.5C 486.716,185.956 484.716,186.956 482.5,187.5C 481.551,189.737 480.884,192.071 480.5,194.5C 478.585,194.216 476.919,194.549 475.5,195.5C 474.341,198.577 474.675,201.577 476.5,204.5C 480.313,203.238 484.313,202.571 488.5,202.5C 492.167,202.667 495.833,202.833 499.5,203C 500.747,204.458 500.747,205.958 499.5,207.5C 487.185,208.499 474.851,208.832 462.5,208.5C 462.128,205.978 462.961,203.978 465,202.5C 467.68,204.661 468.18,203.828 466.5,200C 470.24,196.605 472.573,192.438 473.5,187.5C 474.906,187.027 475.573,186.027 475.5,184.5C 478.833,182.34 481.166,179.34 482.5,175.5C 482.5,174.833 482.5,174.167 482.5,173.5C 475.687,172.509 468.687,172.175 461.5,172.5C 461.5,170.167 461.5,167.833 461.5,165.5C 473.678,165.172 485.678,165.505 497.5,166.5 Z"/></g>
<g><path style="opacity:0.894" fill="#637799" d="M 749.5,190.5 C 743.167,190.5 736.833,190.5 730.5,190.5C 736.31,189.51 742.31,189.177 748.5,189.5C 748.5,187.5 748.5,185.5 748.5,183.5C 743.305,183.821 738.305,183.487 733.5,182.5C 738.933,182.381 744.267,182.215 749.5,182C 750.817,184.937 750.817,187.77 749.5,190.5 Z"/></g>
<g><path style="opacity:1" fill="#5b76a2" d="M 352.5,183.5 C 351.741,188.827 353.074,193.494 356.5,197.5C 355.178,197.67 354.011,197.337 353,196.5C 352.576,194.485 351.742,192.651 350.5,191C 351.016,188.331 351.683,185.831 352.5,183.5 Z"/></g>
<g><path style="opacity:1" fill="#4b6b9c" d="M 406.5,184.5 C 407.227,186.717 407.06,189.05 406,191.5C 405.23,192.598 404.397,192.598 403.5,191.5C 404.264,188.982 405.264,186.649 406.5,184.5 Z"/></g>
<g><path style="opacity:1" fill="#2a5492" d="M 576.5,181.5 C 577.272,182.694 578.272,183.694 579.5,184.5C 579.025,187.313 580.025,189.313 582.5,190.5C 583.441,192.05 584.107,193.716 584.5,195.5C 584.5,196.167 584.5,196.833 584.5,197.5C 583.761,197.631 583.094,197.464 582.5,197C 581.521,194.863 580.188,193.029 578.5,191.5C 577.833,192.5 577.167,193.5 576.5,194.5C 574.099,192.938 572.099,193.271 570.5,195.5C 572.045,196.452 573.712,196.785 575.5,196.5C 575.5,197.5 575.5,198.5 575.5,199.5C 568.313,199.175 561.313,199.509 554.5,200.5C 553.925,203.912 552.592,206.912 550.5,209.5C 546.351,210.08 542.684,209.414 539.5,207.5C 540.463,204.256 541.796,201.256 543.5,198.5C 543.167,201.833 542.833,205.167 542.5,208.5C 547.636,207.707 550.969,204.707 552.5,199.5C 556.111,198.738 559.778,198.238 563.5,198C 565.952,195.929 565.286,195.096 561.5,195.5C 559.616,195.716 557.949,196.383 556.5,197.5C 556.167,197 555.833,196.5 555.5,196C 556.035,193.004 556.702,190.171 557.5,187.5C 557.5,188.5 557.5,189.5 557.5,190.5C 561.715,192.436 566.381,193.103 571.5,192.5C 571.727,189.562 570.727,187.229 568.5,185.5C 567.559,183.95 566.893,182.284 566.5,180.5C 567.458,180.953 568.292,181.619 569,182.5C 569.419,181.328 570.085,180.328 571,179.5C 571.144,184.102 572.644,188.102 575.5,191.5C 576.885,190.449 577.885,189.116 578.5,187.5C 577.349,185.675 576.682,183.675 576.5,181.5 Z"/></g>
<g><path style="opacity:0.035" fill="#cae2f2" d="M 730.5,190.5 C 736.833,190.5 743.167,190.5 749.5,190.5C 743.69,191.49 737.69,191.823 731.5,191.5C 731.5,194.833 731.5,198.167 731.5,201.5C 738.354,201.176 745.021,201.509 751.5,202.5C 745.5,202.5 739.5,202.5 733.5,202.5C 732.5,202.5 731.5,202.5 730.5,202.5C 730.5,198.5 730.5,194.5 730.5,190.5 Z"/></g>
<g><path style="opacity:0.2" fill="#b6d4f7" d="M 427.5,189.5 C 428.404,190.209 428.737,191.209 428.5,192.5C 423.968,192.818 419.634,192.485 415.5,191.5C 419.971,192.089 423.971,191.423 427.5,189.5 Z"/></g>
<g><path style="opacity:0.2" fill="#a6c4e6" d="M 568.5,185.5 C 570.727,187.229 571.727,189.562 571.5,192.5C 566.381,193.103 561.715,192.436 557.5,190.5C 557.833,190.5 558.167,190.5 558.5,190.5C 562.311,191.645 566.311,191.812 570.5,191C 569.139,189.416 568.472,187.582 568.5,185.5 Z"/></g>
<g><path style="opacity:0.918" fill="#45628b" d="M 613.5,183.5 C 613.67,192.153 613.67,200.82 613.5,209.5C 612.5,209.5 611.5,209.5 610.5,209.5C 610.783,208.711 611.283,208.044 612,207.5C 612.153,198.752 612.653,190.752 613.5,183.5 Z"/></g>
<g><path style="opacity:0.875" fill="#9aadcb" d="M 622.5,191.5 C 624.531,192.539 625.864,194.205 626.5,196.5C 624.457,195.421 623.124,193.754 622.5,191.5 Z"/></g>
<g><path style="opacity:1" fill="#355b91" d="M 649.5,164.5 C 649.5,179.833 649.5,195.167 649.5,210.5C 645.818,210.665 642.152,210.499 638.5,210C 635.664,206.333 632.664,202.833 629.5,199.5C 631.801,200.06 634.134,200.56 636.5,201C 636.043,201.414 635.709,201.914 635.5,202.5C 637.183,203.853 638.516,205.52 639.5,207.5C 641.828,208.724 644.161,208.724 646.5,207.5C 647.499,193.516 647.833,179.516 647.5,165.5C 644.833,165.5 642.167,165.5 639.5,165.5C 639.826,174.349 639.493,183.016 638.5,191.5C 638.5,182.5 638.5,173.5 638.5,164.5C 642.167,164.5 645.833,164.5 649.5,164.5 Z"/></g>
<g><path style="opacity:0.984" fill="#627ca6" d="M 287.5,186.5 C 287.328,187.492 287.662,188.158 288.5,188.5C 286.95,193.93 284.616,198.93 281.5,203.5C 282.346,197.288 284.346,191.622 287.5,186.5 Z"/></g>
<g><path style="opacity:0.999" fill="#104c9a" d="M 574.5,172.5 C 574.336,175.187 574.503,177.854 575,180.5C 575.383,181.056 575.883,181.389 576.5,181.5C 576.682,183.675 577.349,185.675 578.5,187.5C 577.885,189.116 576.885,190.449 575.5,191.5C 572.644,188.102 571.144,184.102 571,179.5C 570.085,180.328 569.419,181.328 569,182.5C 568.292,181.619 567.458,180.953 566.5,180.5C 565.89,179.609 565.557,178.609 565.5,177.5C 564.377,176.243 563.711,176.576 563.5,178.5C 562.504,178.414 561.671,178.748 561,179.5C 560.262,182.447 559.096,185.113 557.5,187.5C 556.702,190.171 556.035,193.004 555.5,196C 555.833,196.5 556.167,197 556.5,197.5C 557.949,196.383 559.616,195.716 561.5,195.5C 565.286,195.096 565.952,195.929 563.5,198C 559.778,198.238 556.111,198.738 552.5,199.5C 550.969,204.707 547.636,207.707 542.5,208.5C 542.833,205.167 543.167,201.833 543.5,198.5C 544.496,198.586 545.329,198.252 546,197.5C 546.822,194.883 547.322,192.216 547.5,189.5C 550.305,188.021 551.972,185.688 552.5,182.5C 553.5,182.5 554.5,182.5 555.5,182.5C 555.567,180.599 555.233,178.766 554.5,177C 556.607,173.843 557.607,170.343 557.5,166.5C 561.413,165.404 565.413,165.238 569.5,166C 570.237,168.901 571.903,171.068 574.5,172.5 Z M 565.5,177.5 C 565.557,178.609 565.89,179.609 566.5,180.5C 566.893,182.284 567.559,183.95 568.5,185.5C 568.472,187.582 569.139,189.416 570.5,191C 566.311,191.812 562.311,191.645 558.5,190.5C 560.556,186.667 562.222,182.667 563.5,178.5C 564.167,178.167 564.833,177.833 565.5,177.5 Z"/></g>
<g><path style="opacity:0.976" fill="#4d6999" d="M 563.5,178.5 C 562.222,182.667 560.556,186.667 558.5,190.5C 558.167,190.5 557.833,190.5 557.5,190.5C 557.5,189.5 557.5,188.5 557.5,187.5C 559.096,185.113 560.262,182.447 561,179.5C 561.671,178.748 562.504,178.414 563.5,178.5 Z"/></g>
<g><path style="opacity:0.157" fill="#cde1f5" d="M 565.5,177.5 C 564.833,177.833 564.167,178.167 563.5,178.5C 563.711,176.576 564.377,176.243 565.5,177.5 Z"/></g>
<g><path style="opacity:0.929" fill="#7b91b0" d="M 341.5,179.5 C 341.425,185.529 341.759,191.529 342.5,197.5C 339.196,191.637 338.863,185.637 341.5,179.5 Z"/></g>
<g><path style="opacity:0.263" fill="#afc6d8" d="M 470.5,191.5 C 470.573,193.027 469.906,194.027 468.5,194.5C 468.427,192.973 469.094,191.973 470.5,191.5 Z"/></g>
<g><path style="opacity:1" fill="#0f4b98" d="M 800.5,180.5 C 799.85,182.435 799.517,184.435 799.5,186.5C 797.901,186.232 796.568,186.566 795.5,187.5C 793.109,189.642 790.443,189.975 787.5,188.5C 784.123,190.325 780.457,190.992 776.5,190.5C 776.829,196.206 776.495,201.872 775.5,207.5C 772.916,208.393 770.249,208.726 767.5,208.5C 767.5,194.5 767.5,180.5 767.5,166.5C 776.375,166.208 785.208,166.542 794,167.5C 796.001,168.719 797.834,170.053 799.5,171.5C 797.995,172.842 797.328,174.508 797.5,176.5C 798.5,176.5 799.5,176.5 800.5,176.5C 800.5,177.833 800.5,179.167 800.5,180.5 Z M 785.5,172.5 C 785.833,172.5 786.167,172.5 786.5,172.5C 789.387,174.718 790.221,177.718 789,181.5C 788.292,182.381 787.458,183.047 786.5,183.5C 783.833,183.5 781.167,183.5 778.5,183.5C 778.5,179.833 778.5,176.167 778.5,172.5C 780.833,172.5 783.167,172.5 785.5,172.5 Z"/></g>
<g><path style="opacity:0.973" fill="#496998" d="M 786.5,172.5 C 788.722,172.178 790.556,172.845 792,174.5C 792.598,178.053 791.931,181.386 790,184.5C 785.733,185.822 781.566,185.822 777.5,184.5C 780.713,184.81 783.713,184.477 786.5,183.5C 787.458,183.047 788.292,182.381 789,181.5C 790.221,177.718 789.387,174.718 786.5,172.5 Z"/></g>
<g><path style="opacity:0.122" fill="#bad4ed" d="M 785.5,172.5 C 783.167,172.5 780.833,172.5 778.5,172.5C 778.5,176.167 778.5,179.833 778.5,183.5C 781.167,183.5 783.833,183.5 786.5,183.5C 783.713,184.477 780.713,184.81 777.5,184.5C 777.5,180.167 777.5,175.833 777.5,171.5C 780.385,171.194 783.052,171.527 785.5,172.5 Z"/></g>
<g><path style="opacity:0.996" fill="#4f6a9f" d="M 488.5,184.5 C 485.547,189.45 482.214,194.117 478.5,198.5C 478.5,197.5 478.5,196.5 478.5,195.5C 477.5,195.5 476.5,195.5 475.5,195.5C 476.919,194.549 478.585,194.216 480.5,194.5C 480.884,192.071 481.551,189.737 482.5,187.5C 484.716,186.956 486.716,185.956 488.5,184.5 Z"/></g>
<g><path style="opacity:0.757" fill="#91acc4" d="M 468.5,194.5 C 468.573,196.027 467.906,197.027 466.5,197.5C 466.427,195.973 467.094,194.973 468.5,194.5 Z"/></g>
<g><path style="opacity:1" fill="#5977a4" d="M 547.5,189.5 C 547.322,192.216 546.822,194.883 546,197.5C 545.329,198.252 544.496,198.586 543.5,198.5C 544.463,195.256 545.796,192.256 547.5,189.5 Z"/></g>
<g><path style="opacity:0.921" fill="#7084a6" d="M 433.5,204.5 C 432.751,203.469 432.085,202.302 431.5,201C 424.842,200.5 418.175,200.334 411.5,200.5C 418.424,198.537 425.757,197.87 433.5,198.5C 433.5,200.5 433.5,202.5 433.5,204.5 Z"/></g>
<g><path style="opacity:0.922" fill="#375686" d="M 526.5,164.5 C 526.5,179.5 526.5,194.5 526.5,209.5C 522.833,209.5 519.167,209.5 515.5,209.5C 515.5,194.5 515.5,179.5 515.5,164.5C 519.167,163.167 522.833,163.167 526.5,164.5 Z"/></g>
<g><path style="opacity:1" fill="#104b97" d="M 516.5,165.5 C 519.448,165.223 522.281,165.556 525,166.5C 525.5,180.163 525.667,193.829 525.5,207.5C 522.607,208.523 519.774,208.523 517,207.5C 516.5,193.504 516.333,179.504 516.5,165.5 Z"/></g>
<g><path style="opacity:0.018" fill="#f6f8fb" d="M 554.5,200.5 C 561.313,199.509 568.313,199.175 575.5,199.5C 575.5,200.5 575.5,201.5 575.5,202.5C 568.781,200.595 561.781,199.929 554.5,200.5 Z"/></g>
<g><path style="opacity:1" fill="#a8adca" d="M 70.5,191.5 C 71.3764,191.369 72.0431,191.702 72.5,192.5C 74.6909,197.617 77.3576,202.45 80.5,207C 79.944,207.383 79.6107,207.883 79.5,208.5C 75.2618,203.567 72.2618,197.9 70.5,191.5 Z"/></g>
<g><path style="opacity:1" fill="#456094" d="M 384.5,186.5 C 385.474,192.955 385.807,199.288 385.5,205.5C 385.145,206.522 384.478,207.189 383.5,207.5C 381.167,207.5 378.833,207.5 376.5,207.5C 378.265,206.539 380.265,206.205 382.5,206.5C 381.883,200.25 381.883,193.917 382.5,187.5C 378.833,187.5 375.167,187.5 371.5,187.5C 371.5,189.167 371.5,190.833 371.5,192.5C 373.5,192.5 375.5,192.5 377.5,192.5C 376.841,195.455 376.508,198.455 376.5,201.5C 370.536,202.307 364.536,202.64 358.5,202.5C 358.169,200.678 357.502,199.011 356.5,197.5C 357.71,197.932 358.71,198.599 359.5,199.5C 359.611,200.117 359.944,200.617 360.5,201C 362.473,201.495 364.473,201.662 366.5,201.5C 368.717,200.631 371.05,200.298 373.5,200.5C 374.468,198.393 374.802,196.059 374.5,193.5C 372.5,193.5 370.5,193.5 368.5,193.5C 368.5,191.167 368.5,188.833 368.5,186.5C 373.833,186.5 379.167,186.5 384.5,186.5 Z"/></g>
<g><path style="opacity:0.875" fill="#7486a0" d="M 478.5,199.5 C 486.5,199.5 494.5,199.5 502.5,199.5C 502.5,202.833 502.5,206.167 502.5,209.5C 502.167,209.5 501.833,209.5 501.5,209.5C 501.5,206.833 501.5,204.167 501.5,201.5C 493.826,201.666 486.159,201.5 478.5,201C 477.262,200.31 477.262,199.81 478.5,199.5 Z"/></g>
<g><path style="opacity:0.996" fill="#6885ad" d="M 197.5,200.5 C 200.124,201.076 200.791,202.41 199.5,204.5C 198.326,203.486 197.66,202.153 197.5,200.5 Z"/></g>
<g><path style="opacity:0.99" fill="#3c5d90" d="M 473.5,187.5 C 472.573,192.438 470.24,196.605 466.5,200C 468.18,203.828 467.68,204.661 465,202.5C 462.961,203.978 462.128,205.978 462.5,208.5C 462.5,208.833 462.5,209.167 462.5,209.5C 460.901,209.768 459.568,209.434 458.5,208.5C 460.934,204.618 463.601,200.952 466.5,197.5C 467.906,197.027 468.573,196.027 468.5,194.5C 469.906,194.027 470.573,193.027 470.5,191.5C 470.738,189.596 471.738,188.262 473.5,187.5 Z"/></g>
<g><path style="opacity:0.984" fill="#5a75aa" d="M 281.5,203.5 C 280.89,205.434 279.89,207.101 278.5,208.5C 278.192,206.076 278.526,203.743 279.5,201.5C 280.182,202.243 280.849,202.909 281.5,203.5 Z"/></g>
<g><path style="opacity:0.965" fill="#4e6e99" d="M 403.5,191.5 C 403.663,193.857 403.497,196.19 403,198.5C 401.219,200.724 399.719,203.058 398.5,205.5C 398.167,205.5 397.833,205.5 397.5,205.5C 399.324,200.675 401.324,196.008 403.5,191.5 Z"/></g>
<g><path style="opacity:0.196" fill="#dfe2fa" d="M 114.5,195.5 C 115.491,202.313 115.825,209.313 115.5,216.5C 114.833,216.5 114.167,216.5 113.5,216.5C 113.5,216.167 113.5,215.833 113.5,215.5C 114.491,209.021 114.824,202.354 114.5,195.5 Z"/></g>
<g><path style="opacity:1" fill="#a4a8c4" d="M 159.5,203.5 C 157.738,206.737 155.071,209.071 151.5,210.5C 151.167,210.5 150.833,210.5 150.5,210.5C 150.281,209.325 150.614,208.325 151.5,207.5C 153.303,206.863 154.636,205.697 155.5,204C 156.793,203.51 158.127,203.343 159.5,203.5 Z"/></g>
<g><path style="opacity:1" fill="#114b98" d="M 584.5,197.5 C 585.359,201.274 586.359,204.941 587.5,208.5C 585.143,208.663 582.81,208.497 580.5,208C 579.033,206.902 578.199,205.402 578,203.5C 577.329,202.748 576.496,202.414 575.5,202.5C 575.5,201.5 575.5,200.5 575.5,199.5C 575.5,198.5 575.5,197.5 575.5,196.5C 573.712,196.785 572.045,196.452 570.5,195.5C 572.099,193.271 574.099,192.938 576.5,194.5C 577.167,193.5 577.833,192.5 578.5,191.5C 580.188,193.029 581.521,194.863 582.5,197C 583.094,197.464 583.761,197.631 584.5,197.5 Z"/></g>
<g><path style="opacity:0.773" fill="#7d97b8" d="M 265.5,203.5 C 264.514,205.408 262.848,206.408 260.5,206.5C 261.659,204.75 263.326,203.75 265.5,203.5 Z"/></g>
<g><path style="opacity:1" fill="#114c99" d="M 363.5,172.5 C 360.833,172.5 358.167,172.5 355.5,172.5C 354.224,175.336 353.558,178.336 353.5,181.5C 353.672,182.492 353.338,183.158 352.5,183.5C 351.683,185.831 351.016,188.331 350.5,191C 351.742,192.651 352.576,194.485 353,196.5C 354.011,197.337 355.178,197.67 356.5,197.5C 357.502,199.011 358.169,200.678 358.5,202.5C 364.536,202.64 370.536,202.307 376.5,201.5C 376.508,198.455 376.841,195.455 377.5,192.5C 375.5,192.5 373.5,192.5 371.5,192.5C 371.5,190.833 371.5,189.167 371.5,187.5C 375.167,187.5 378.833,187.5 382.5,187.5C 381.883,193.917 381.883,200.25 382.5,206.5C 380.265,206.205 378.265,206.539 376.5,207.5C 370.666,209.375 364.666,209.875 358.5,209C 357.833,208 357.167,207 356.5,206C 351.874,205.447 348.374,203.281 346,199.5C 345.184,198.177 344.017,197.511 342.5,197.5C 341.759,191.529 341.425,185.529 341.5,179.5C 341.5,179.167 341.5,178.833 341.5,178.5C 342.906,178.027 343.573,177.027 343.5,175.5C 347.873,174.46 350.54,171.793 351.5,167.5C 360.436,165.064 369.436,165.064 378.5,167.5C 377.092,168.243 375.759,169.077 374.5,170C 370.367,169.906 366.701,170.74 363.5,172.5 Z"/></g>
<g><path style="opacity:0.784" fill="#90a8c4" d="M 359.5,199.5 C 362.01,199.927 364.343,200.593 366.5,201.5C 364.473,201.662 362.473,201.495 360.5,201C 359.944,200.617 359.611,200.117 359.5,199.5 Z"/></g>
<g><path style="opacity:0.133" fill="#deebf9" d="M 367.5,193.5 C 367.833,193.5 368.167,193.5 368.5,193.5C 370.5,193.5 372.5,193.5 374.5,193.5C 374.802,196.059 374.468,198.393 373.5,200.5C 373.5,198.5 373.5,196.5 373.5,194.5C 371.265,194.795 369.265,194.461 367.5,193.5 Z"/></g>
<g><path style="opacity:0.827" fill="#637ea9" d="M 235.5,204.5 C 233.853,206.326 231.853,207.66 229.5,208.5C 230.122,205.224 232.122,203.891 235.5,204.5 Z"/></g>
<g><path style="opacity:0.994" fill="#30578f" d="M 199.5,204.5 C 206.913,208.629 214.913,210.296 223.5,209.5C 218.36,210.488 213.026,210.821 207.5,210.5C 207.027,209.094 206.027,208.427 204.5,208.5C 202.251,207.92 200.585,206.587 199.5,204.5 Z"/></g>
<g><path style="opacity:0.971" fill="#3d5b8f" d="M 410.5,203.5 C 410.107,205.284 409.441,206.95 408.5,208.5C 404.936,209.423 401.269,209.756 397.5,209.5C 397.5,208.167 397.5,206.833 397.5,205.5C 397.833,205.5 398.167,205.5 398.5,205.5C 398.414,206.496 398.748,207.329 399.5,208C 404.23,209.652 406.896,208.152 407.5,203.5C 408.5,203.5 409.5,203.5 410.5,203.5 Z"/></g>
<g><path style="opacity:0.984" fill="#1a4a85" d="M 475.5,195.5 C 476.5,195.5 477.5,195.5 478.5,195.5C 478.5,196.5 478.5,197.5 478.5,198.5C 478.5,198.833 478.5,199.167 478.5,199.5C 477.262,199.81 477.262,200.31 478.5,201C 486.159,201.5 493.826,201.666 501.5,201.5C 501.5,204.167 501.5,206.833 501.5,209.5C 488.5,209.5 475.5,209.5 462.5,209.5C 462.5,209.167 462.5,208.833 462.5,208.5C 474.851,208.832 487.185,208.499 499.5,207.5C 500.747,205.958 500.747,204.458 499.5,203C 495.833,202.833 492.167,202.667 488.5,202.5C 484.313,202.571 480.313,203.238 476.5,204.5C 474.675,201.577 474.341,198.577 475.5,195.5 Z"/></g>
<g><path style="opacity:0.965" fill="#4b6793" d="M 584.5,195.5 C 586.679,199.203 588.345,203.203 589.5,207.5C 586.316,209.414 582.649,210.08 578.5,209.5C 577.264,207.351 576.264,205.018 575.5,202.5C 576.496,202.414 577.329,202.748 578,203.5C 578.199,205.402 579.033,206.902 580.5,208C 582.81,208.497 585.143,208.663 587.5,208.5C 586.359,204.941 585.359,201.274 584.5,197.5C 584.5,196.833 584.5,196.167 584.5,195.5 Z"/></g>
<g><path style="opacity:0.946" fill="#21487f" d="M 719.5,166.5 C 719.833,166.5 720.167,166.5 720.5,166.5C 720.5,180.5 720.5,194.5 720.5,208.5C 730.5,208.5 740.5,208.5 750.5,208.5C 750.5,206.833 750.5,205.167 750.5,203.5C 744.642,203.822 738.975,203.489 733.5,202.5C 739.5,202.5 745.5,202.5 751.5,202.5C 751.5,204.833 751.5,207.167 751.5,209.5C 740.833,209.5 730.167,209.5 719.5,209.5C 719.5,195.167 719.5,180.833 719.5,166.5 Z"/></g>
<g><path style="opacity:0.314" fill="#aabcd6" d="M 204.5,208.5 C 206.027,208.427 207.027,209.094 207.5,210.5C 205.973,210.573 204.973,209.906 204.5,208.5 Z"/></g>
<g><path style="opacity:0.908" fill="#5c749c" d="M 342.5,197.5 C 344.017,197.511 345.184,198.177 346,199.5C 348.374,203.281 351.874,205.447 356.5,206C 357.167,207 357.833,208 358.5,209C 364.666,209.875 370.666,209.375 376.5,207.5C 378.833,207.5 381.167,207.5 383.5,207.5C 371.639,213.231 359.972,212.731 348.5,206C 345.477,203.823 343.477,200.989 342.5,197.5 Z"/></g>
<g><path style="opacity:0.349" fill="#aabfd6" d="M 397.5,205.5 C 397.5,206.833 397.5,208.167 397.5,209.5C 401.269,209.756 404.936,209.423 408.5,208.5C 404.627,210.43 400.294,211.097 395.5,210.5C 395.402,208.447 396.069,206.78 397.5,205.5 Z"/></g>
<g><path style="opacity:0.341" fill="#99adca" d="M 445.5,204.5 C 446.738,206.214 447.405,208.214 447.5,210.5C 443.298,210.817 439.298,210.483 435.5,209.5C 439.182,209.665 442.848,209.499 446.5,209C 445.62,207.644 445.286,206.144 445.5,204.5 Z"/></g>
<g><path style="opacity:0.345" fill="#a9bed9" d="M 458.5,208.5 C 459.568,209.434 460.901,209.768 462.5,209.5C 475.5,209.5 488.5,209.5 501.5,209.5C 501.833,209.5 502.167,209.5 502.5,209.5C 487.661,210.826 472.661,210.826 457.5,209.5C 457.624,208.893 457.957,208.56 458.5,208.5 Z"/></g>
<g><path style="opacity:0.341" fill="#a9c0d9" d="M 539.5,207.5 C 542.684,209.414 546.351,210.08 550.5,209.5C 546.702,210.483 542.702,210.817 538.5,210.5C 538.263,209.209 538.596,208.209 539.5,207.5 Z"/></g>
<g><path style="opacity:0.324" fill="#b0bfd1" d="M 589.5,207.5 C 590.267,208.172 590.934,209.005 591.5,210C 586.98,210.814 582.646,210.647 578.5,209.5C 582.649,210.08 586.316,209.414 589.5,207.5 Z"/></g>
<g><path style="opacity:0.349" fill="#bfd0e6" d="M 719.5,164.5 C 719.5,165.167 719.5,165.833 719.5,166.5C 719.5,180.833 719.5,195.167 719.5,209.5C 730.167,209.5 740.833,209.5 751.5,209.5C 740.679,210.495 729.679,210.828 718.5,210.5C 718.17,194.991 718.504,179.658 719.5,164.5 Z"/></g>
<g><path style="opacity:0.941" fill="#6f8bad" d="M 228.5,208.5 C 227.653,209.966 226.32,210.8 224.5,211C 218.629,213.124 212.963,212.957 207.5,210.5C 213.026,210.821 218.36,210.488 223.5,209.5C 225.042,208.699 226.708,208.366 228.5,208.5 Z"/></g>
<g><path style="opacity:1" fill="#44649a" d="M 278.5,208.5 C 275.564,214.041 271.897,219.041 267.5,223.5C 267.365,220.493 268.365,217.993 270.5,216C 269.657,214.065 269.657,212.231 270.5,210.5C 271.167,211.5 271.833,212.5 272.5,213.5C 273.911,211.086 275.911,209.419 278.5,208.5 Z"/></g>
<g><path style="opacity:1" fill="#416296" d="M 260.5,206.5 C 257.401,212.45 252.401,215.45 245.5,215.5C 249.995,211.749 254.995,208.749 260.5,206.5 Z"/></g>
<g><path style="opacity:0.871" fill="#a7abc8" d="M 79.5,208.5 C 81.0418,209.301 82.7085,209.634 84.5,209.5C 85.3421,216.096 88.6754,221.096 94.5,224.5C 96.3507,228.212 98.684,231.546 101.5,234.5C 100.761,234.631 100.094,234.464 99.5,234C 91.4503,226.466 84.7836,217.966 79.5,208.5 Z"/></g>
<g><path style="opacity:0.999" fill="#9196ba" d="M 150.5,210.5 C 149.861,220.227 150.528,229.56 152.5,238.5C 156.711,240.098 160.378,242.432 163.5,245.5C 161.599,245.567 159.766,245.233 158,244.5C 155.284,242.309 152.284,240.642 149,239.5C 148.333,230.167 148.333,220.833 149,211.5C 149.383,210.944 149.883,210.611 150.5,210.5 Z"/></g>
<g><path style="opacity:0.11" fill="#ebeefe" d="M 150.5,210.5 C 150.833,210.5 151.167,210.5 151.5,210.5C 151.195,219.917 151.528,229.25 152.5,238.5C 150.528,229.56 149.861,220.227 150.5,210.5 Z"/></g>
<g><path style="opacity:1" fill="#3f6193" d="M 245.5,215.5 C 244.104,217.576 243.271,219.576 243,221.5C 242.439,220.978 241.772,220.645 241,220.5C 236.411,221.875 232.578,224.375 229.5,228C 226.793,228.395 224.127,228.895 221.5,229.5C 228.915,223.909 236.915,219.242 245.5,215.5 Z"/></g>
<g><path style="opacity:1" fill="#466894" d="M 221.5,229.5 C 220.191,232.451 217.857,233.784 214.5,233.5C 216.336,231.412 218.669,230.079 221.5,229.5 Z"/></g>
<g><path style="opacity:1" fill="#46669a" d="M 267.5,223.5 C 266.094,226.414 264.094,228.914 261.5,231C 256.909,235.432 251.909,239.266 246.5,242.5C 246.5,241.5 246.5,240.5 246.5,239.5C 247.5,239.5 248.5,239.5 249.5,239.5C 249.773,237.549 249.107,236.049 247.5,235C 254.133,234.555 259.133,231.388 262.5,225.5C 263.85,224.05 265.516,223.383 267.5,223.5 Z"/></g>
<g><path style="opacity:0.996" fill="#506e99" d="M 214.5,233.5 C 213.191,236.451 210.857,237.784 207.5,237.5C 209.336,235.412 211.669,234.079 214.5,233.5 Z"/></g>
<g><path style="opacity:0.941" fill="#a2a3bf" d="M 101.5,234.5 C 106.395,235.411 109.728,238.077 111.5,242.5C 107.296,240.967 103.963,238.3 101.5,234.5 Z"/></g>
<g><path style="opacity:1" fill="#476799" d="M 207.5,237.5 C 207.719,238.675 207.386,239.675 206.5,240.5C 204.435,240.953 202.768,241.953 201.5,243.5C 199.604,244.466 197.604,244.799 195.5,244.5C 198.976,241.377 202.976,239.043 207.5,237.5 Z"/></g>
<g><path style="opacity:1" fill="#5772a5" d="M 246.5,242.5 C 242.005,246.251 237.005,249.251 231.5,251.5C 231.821,249.952 232.821,249.285 234.5,249.5C 234.64,247.876 233.973,246.71 232.5,246C 237.408,245.44 242.074,244.273 246.5,242.5 Z"/></g>
<g><path style="opacity:0.902" fill="#6f89b1" d="M 195.5,244.5 C 194.514,246.408 192.848,247.408 190.5,247.5C 191.659,245.75 193.326,244.75 195.5,244.5 Z"/></g>
<g><path style="opacity:1" fill="#9fa2c3" d="M 111.5,242.5 C 116.527,245.001 121.861,247.001 127.5,248.5C 130.8,249.724 133.633,251.724 136,254.5C 140.167,255.614 144.334,256.614 148.5,257.5C 149.058,258.79 150.058,259.623 151.5,260C 154.522,260.098 157.189,260.932 159.5,262.5C 141.569,260.194 125.569,253.527 111.5,242.5 Z"/></g>
<g><path style="opacity:0.973" fill="#617aa5" d="M 229.5,252.5 C 228.22,253.931 226.553,254.598 224.5,254.5C 224.389,253.883 224.056,253.383 223.5,253C 225.473,252.505 227.473,252.338 229.5,252.5 Z"/></g>
<g><path style="opacity:0.965" fill="#6079a7" d="M 224.5,254.5 C 221.912,256.592 218.912,257.925 215.5,258.5C 217.221,254.826 220.221,253.493 224.5,254.5 Z"/></g>
<g><path style="opacity:1" fill="#8e94bc" d="M 163.5,245.5 C 167.655,246.742 171.322,248.742 174.5,251.5C 174.5,255.5 174.5,259.5 174.5,263.5C 172.5,263.5 170.5,263.5 168.5,263.5C 165.43,263.632 162.43,263.299 159.5,262.5C 157.189,260.932 154.522,260.098 151.5,260C 150.058,259.623 149.058,258.79 148.5,257.5C 151.448,258.32 154.448,258.986 157.5,259.5C 160.011,258.345 162.678,257.678 165.5,257.5C 165.759,261.068 167.759,262.401 171.5,261.5C 171.543,258.09 171.043,254.757 170,251.5C 168,250.167 166,250.167 164,251.5C 163.544,250.256 164.044,249.423 165.5,249C 164.177,248.184 163.511,247.017 163.5,245.5 Z"/></g>
<g><path style="opacity:0.969" fill="#405f8c" d="M 190.5,247.5 C 190.072,250.246 188.406,251.913 185.5,252.5C 184.513,255.768 184.18,259.102 184.5,262.5C 188.833,262.5 193.167,262.5 197.5,262.5C 195.393,263.468 193.059,263.802 190.5,263.5C 187.833,263.5 185.167,263.5 182.5,263.5C 182.5,259.5 182.5,255.5 182.5,251.5C 184.938,249.733 187.605,248.399 190.5,247.5 Z"/></g>
<g><path style="opacity:0.898" fill="#768db1" d="M 207.5,260.5 C 204.456,262.011 201.122,262.678 197.5,262.5C 197.918,261.778 198.584,261.278 199.5,261C 202.146,260.503 204.813,260.336 207.5,260.5 Z"/></g>
<g><path style="opacity:0.129" fill="#eaecfb" d="M 174.5,251.5 C 175.485,255.634 175.818,259.968 175.5,264.5C 172.941,264.802 170.607,264.468 168.5,263.5C 170.5,263.5 172.5,263.5 174.5,263.5C 174.5,259.5 174.5,255.5 174.5,251.5 Z"/></g>
<g><path style="opacity:0.098" fill="#daedf8" d="M 182.5,251.5 C 182.5,255.5 182.5,259.5 182.5,263.5C 185.167,263.5 187.833,263.5 190.5,263.5C 187.713,264.477 184.713,264.81 181.5,264.5C 181.182,259.968 181.515,255.634 182.5,251.5 Z"/></g>
</svg>
