<?xml version="1.0" standalone="no"?>
<!DOCTYPE svg PUBLIC "-//W3C//DTD SVG 20010904//EN"
 "http://www.w3.org/TR/2001/REC-SVG-20010904/DTD/svg10.dtd">
<svg version="1.0" xmlns="http://www.w3.org/2000/svg"
 width="155.000000pt" height="206.000000pt" viewBox="0 0 155.000000 206.000000"
 preserveAspectRatio="xMidYMid meet">

<g transform="translate(0.000000,206.000000) scale(0.100000,-0.100000)"
fill="#000000" stroke="none">
<path d="M688 2045 c-175 -35 -326 -181 -358 -346 -6 -30 -13 -64 -16 -76 -2
-13 0 -23 6 -23 5 0 10 13 10 28 0 42 28 131 58 182 105 183 316 270 510 211
84 -26 138 -59 198 -123 62 -65 102 -145 117 -232 6 -36 15 -66 20 -66 4 0 6
8 3 18 -2 9 -8 37 -11 62 -19 120 -120 258 -235 319 -33 18 -94 38 -136 46
-87 17 -78 17 -166 0z"/>
<path d="M650 1948 c-119 -45 -199 -131 -239 -257 -16 -49 -14 -91 4 -91 9 0
16 14 20 38 19 117 85 209 189 262 61 31 75 34 151 34 76 0 90 -3 151 -34 104
-53 170 -145 189 -262 4 -24 11 -38 20 -38 36 0 -3 143 -60 220 -94 128 -279
184 -425 128z"/>
<path d="M707 1879 c-112 -27 -199 -119 -216 -228 l-8 -51 101 0 100 0 -54
-32 c-29 -18 -67 -50 -83 -70 l-29 -37 21 -34 c43 -70 138 -117 236 -117 98 0
193 47 236 117 l21 34 -29 37 c-16 20 -54 52 -83 70 l-54 32 100 0 101 0 -8
51 c-15 92 -81 174 -171 212 -49 20 -134 28 -181 16z"/>
<path d="M17 1578 c6 -7 115 -159 243 -338 446 -620 506 -703 514 -704 8 -1
123 157 583 799 75 105 147 205 161 223 l24 32 -151 0 -151 0 0 -34 c0 -85
-61 -215 -135 -286 -20 -19 -45 -54 -55 -78 -28 -62 -109 -137 -172 -158 -148
-49 -307 14 -373 150 -14 29 -42 68 -61 87 -73 70 -134 201 -134 285 l0 34
-151 0 c-120 0 -149 -3 -142 -12z"/>
<path d="M344 1539 c10 -71 40 -146 84 -204 l37 -50 5 35 c4 21 1 41 -6 50
-24 29 -63 125 -69 173 -7 42 -10 47 -32 47 -25 0 -25 -1 -19 -51z"/>
<path d="M444 1551 c8 -49 35 -121 46 -121 14 0 20 31 9 51 -5 11 -13 39 -17
62 -5 29 -13 43 -26 45 -17 4 -18 -1 -12 -37z"/>
<path d="M1077 1583 c-4 -3 -7 -17 -7 -30 0 -13 -7 -39 -15 -59 -14 -33 -11
-64 5 -64 11 0 36 66 45 118 5 33 4 42 -7 42 -8 0 -18 -3 -21 -7z"/>
<path d="M1154 1543 c-8 -54 -34 -122 -63 -162 -15 -20 -18 -35 -12 -61 l7
-34 38 52 c45 61 72 129 82 201 6 50 6 51 -19 51 -23 0 -27 -5 -33 -47z"/>
<path d="M490 1376 c0 -32 67 -91 139 -124 47 -21 71 -25 146 -25 75 0 99 4
146 25 72 33 139 92 139 124 0 21 -3 20 -45 -20 -136 -132 -350 -132 -482 1
-40 39 -43 41 -43 19z"/>
<path d="M490 1243 c0 -15 85 -61 149 -82 121 -39 270 -21 378 47 24 15 43 30
43 35 0 11 -7 9 -45 -18 -134 -91 -346 -91 -480 0 -38 27 -45 29 -45 18z"/>
<path d="M250 360 c0 -13 7 -20 20 -20 13 0 20 7 20 20 0 13 -7 20 -20 20 -13
0 -20 -7 -20 -20z"/>
<path d="M330 360 c0 -11 7 -20 15 -20 8 0 15 9 15 20 0 11 -7 20 -15 20 -8 0
-15 -9 -15 -20z"/>
<path d="M750 360 c0 -15 7 -20 25 -20 18 0 25 5 25 20 0 15 -7 20 -25 20 -18
0 -25 -5 -25 -20z"/>
<path d="M0 291 c0 -10 9 -21 20 -24 19 -5 20 -14 20 -131 l0 -126 25 0 25 0
0 126 c0 117 1 126 20 131 11 3 20 14 20 24 0 17 -8 19 -65 19 -57 0 -65 -2
-65 -19z"/>
<path d="M230 190 c0 -67 5 -130 11 -144 23 -51 103 -55 128 -7 6 11 11 76 11
145 l0 126 -25 0 -25 0 0 -131 c0 -130 0 -130 -22 -127 -22 3 -23 7 -26 131
l-3 127 -24 0 -25 0 0 -120z"/>
<path d="M500 160 l0 -150 45 0 c35 0 52 6 70 25 31 30 34 84 5 110 -19 17
-19 18 0 43 23 28 24 41 9 75 -14 30 -48 47 -94 47 l-35 0 0 -150z m90 66 c0
-26 -24 -51 -40 -41 -11 7 -14 68 -4 78 13 12 44 -14 44 -37z m-3 -113 c12
-17 11 -23 -5 -43 -24 -29 -42 -19 -42 24 0 51 20 60 47 19z"/>
<path d="M750 160 l0 -150 25 0 25 0 0 150 0 150 -25 0 -25 0 0 -150z"/>
<path d="M910 290 c0 -11 7 -20 15 -20 13 0 15 -21 15 -130 l0 -130 25 0 25 0
0 126 c0 117 1 126 20 131 11 3 20 14 20 24 0 17 -8 19 -60 19 -53 0 -60 -2
-60 -20z"/>
<path d="M1153 160 l-30 -150 22 0 c17 0 24 7 29 31 5 26 10 30 33 27 22 -2
29 -9 31 -30 3 -22 9 -28 28 -28 20 0 23 4 19 22 -7 29 -55 270 -55 274 0 2
-11 4 -24 4 -22 0 -25 -8 -53 -150z m67 -17 c0 -23 -5 -33 -15 -33 -17 0 -18
12 -9 60 8 39 24 21 24 -27z"/>
<path d="M1390 160 l0 -150 25 0 c23 0 25 4 25 43 0 69 14 74 34 12 14 -47 21
-55 42 -55 30 0 30 2 0 95 l-24 76 24 59 c13 33 24 62 24 65 0 4 -12 5 -26 3
-21 -2 -29 -12 -45 -57 -10 -30 -21 -56 -24 -59 -3 -3 -5 22 -5 56 0 59 -1 62
-25 62 l-25 0 0 -150z"/>
</g>
</svg>
